<?xml version="1.0" encoding="UTF-8"?>
<svg id="Layer_1" data-name="Layer 1" xmlns="http://www.w3.org/2000/svg" version="1.1" viewBox="0 0 923.2 1056.8">
  <defs>
    <style>
      .cls-1 {
        fill: #a7c5d1;
      }

      .cls-1, .cls-2, .cls-3, .cls-4, .cls-5, .cls-6, .cls-7, .cls-8, .cls-9, .cls-10, .cls-11, .cls-12, .cls-13, .cls-14, .cls-15, .cls-16, .cls-17, .cls-18, .cls-19, .cls-20, .cls-21, .cls-22, .cls-23, .cls-24, .cls-25, .cls-26, .cls-27, .cls-28, .cls-29, .cls-30, .cls-31, .cls-32, .cls-33, .cls-34, .cls-35, .cls-36, .cls-37, .cls-38, .cls-39, .cls-40, .cls-41, .cls-42, .cls-43, .cls-44, .cls-45, .cls-46, .cls-47, .cls-48, .cls-49, .cls-50, .cls-51, .cls-52, .cls-53, .cls-54, .cls-55, .cls-56, .cls-57, .cls-58, .cls-59, .cls-60, .cls-61, .cls-62, .cls-63, .cls-64, .cls-65, .cls-66, .cls-67, .cls-68, .cls-69, .cls-70, .cls-71, .cls-72, .cls-73, .cls-74, .cls-75, .cls-76, .cls-77, .cls-78, .cls-79, .cls-80, .cls-81, .cls-82, .cls-83, .cls-84, .cls-85, .cls-86, .cls-87, .cls-88, .cls-89, .cls-90, .cls-91, .cls-92, .cls-93, .cls-94, .cls-95, .cls-96, .cls-97, .cls-98, .cls-99, .cls-100, .cls-101, .cls-102, .cls-103, .cls-104, .cls-105, .cls-106, .cls-107, .cls-108, .cls-109, .cls-110, .cls-111, .cls-112, .cls-113, .cls-114, .cls-115, .cls-116, .cls-117, .cls-118, .cls-119, .cls-120, .cls-121, .cls-122, .cls-123, .cls-124, .cls-125, .cls-126, .cls-127, .cls-128, .cls-129, .cls-130, .cls-131, .cls-132, .cls-133, .cls-134, .cls-135, .cls-136, .cls-137, .cls-138, .cls-139, .cls-140, .cls-141, .cls-142, .cls-143, .cls-144, .cls-145, .cls-146, .cls-147, .cls-148, .cls-149, .cls-150, .cls-151, .cls-152, .cls-153, .cls-154, .cls-155, .cls-156, .cls-157, .cls-158, .cls-159, .cls-160, .cls-161, .cls-162, .cls-163, .cls-164, .cls-165, .cls-166, .cls-167, .cls-168, .cls-169, .cls-170, .cls-171, .cls-172, .cls-173, .cls-174, .cls-175, .cls-176, .cls-177, .cls-178, .cls-179, .cls-180, .cls-181, .cls-182, .cls-183, .cls-184, .cls-185, .cls-186, .cls-187, .cls-188, .cls-189, .cls-190, .cls-191, .cls-192, .cls-193, .cls-194, .cls-195, .cls-196, .cls-197, .cls-198, .cls-199, .cls-200, .cls-201, .cls-202, .cls-203, .cls-204, .cls-205, .cls-206, .cls-207, .cls-208, .cls-209, .cls-210, .cls-211, .cls-212, .cls-213, .cls-214, .cls-215, .cls-216, .cls-217, .cls-218, .cls-219, .cls-220, .cls-221, .cls-222, .cls-223, .cls-224, .cls-225, .cls-226, .cls-227, .cls-228, .cls-229, .cls-230, .cls-231, .cls-232, .cls-233, .cls-234, .cls-235, .cls-236, .cls-237, .cls-238, .cls-239, .cls-240, .cls-241, .cls-242, .cls-243, .cls-244, .cls-245, .cls-246, .cls-247, .cls-248, .cls-249, .cls-250, .cls-251, .cls-252, .cls-253, .cls-254, .cls-255, .cls-256, .cls-257, .cls-258, .cls-259, .cls-260, .cls-261, .cls-262, .cls-263, .cls-264, .cls-265, .cls-266, .cls-267, .cls-268, .cls-269, .cls-270, .cls-271, .cls-272, .cls-273, .cls-274, .cls-275, .cls-276, .cls-277, .cls-278, .cls-279, .cls-280, .cls-281 {
        stroke-width: 0px;
      }

      .cls-2 {
        fill: #09d4f5;
      }

      .cls-3 {
        fill: #012039;
      }

      .cls-4 {
        fill: #de8610;
      }

      .cls-5 {
        fill: #0d1b1a;
      }

      .cls-6 {
        fill: #0eb3d8;
      }

      .cls-7 {
        fill: #111a1e;
      }

      .cls-8 {
        fill: #15112c;
      }

      .cls-9 {
        fill: #08688e;
      }

      .cls-10 {
        fill: #085072;
      }

      .cls-11 {
        fill: #07b5d6;
      }

      .cls-12 {
        fill: #031b34;
      }

      .cls-13 {
        fill: #f3a20d;
      }

      .cls-14 {
        fill: #3c1e0d;
      }

      .cls-15 {
        fill: #0d2031;
      }

      .cls-16 {
        fill: #c56e09;
      }

      .cls-17 {
        fill: #0f90b4;
      }

      .cls-18 {
        fill: #03c6eb;
      }

      .cls-19 {
        fill: #2dcfec;
      }

      .cls-20 {
        fill: #fbedbe;
      }

      .cls-21 {
        fill: #de8d07;
      }

      .cls-22 {
        fill: #0aa8c9;
      }

      .cls-23 {
        fill: #e7af28;
      }

      .cls-24 {
        fill: #1c6b82;
      }

      .cls-25 {
        fill: #2ae9f9;
      }

      .cls-26 {
        fill: #be5e0b;
      }

      .cls-27 {
        fill: #031f39;
      }

      .cls-28 {
        fill: #12cbe4;
      }

      .cls-29 {
        fill: #081c2c;
      }

      .cls-30 {
        fill: #678aa2;
      }

      .cls-31 {
        fill: #0ec5ea;
      }

      .cls-32 {
        fill: #f9e870;
      }

      .cls-33 {
        fill: #894c0b;
      }

      .cls-34 {
        fill: #0b1225;
      }

      .cls-35 {
        fill: #12a2bd;
      }

      .cls-36 {
        fill: #061d2f;
      }

      .cls-37 {
        fill: #feb957;
      }

      .cls-38 {
        fill: #19e0f6;
      }

      .cls-39 {
        fill: #10171d;
      }

      .cls-40 {
        fill: #99630c;
      }

      .cls-41 {
        fill: #3a6a8e;
      }

      .cls-42 {
        fill: #ecf1f3;
      }

      .cls-43 {
        fill: #eeb12e;
      }

      .cls-44 {
        fill: #e3849a;
      }

      .cls-45 {
        fill: #fcd24e;
      }

      .cls-46 {
        fill: #081a28;
      }

      .cls-47 {
        fill: #092247;
      }

      .cls-48 {
        fill: #16abc5;
      }

      .cls-49 {
        fill: #09627f;
      }

      .cls-50 {
        fill: #eba826;
      }

      .cls-51 {
        fill: #f1ab0e;
      }

      .cls-52 {
        fill: #f8c652;
      }

      .cls-53 {
        fill: #25959d;
      }

      .cls-54 {
        fill: #10a4ca;
      }

      .cls-55 {
        fill: #e1f9f7;
      }

      .cls-56 {
        fill: #b18f00;
      }

      .cls-57 {
        fill: #081d2a;
      }

      .cls-58 {
        fill: #071c39;
      }

      .cls-59 {
        fill: #0678a4;
      }

      .cls-60 {
        fill: #4d7fa2;
      }

      .cls-61 {
        fill: #0d1923;
      }

      .cls-62 {
        fill: #e2f7f6;
      }

      .cls-63 {
        fill: #a09856;
      }

      .cls-64 {
        fill: #f8ecb0;
      }

      .cls-65 {
        fill: #a9530a;
      }

      .cls-66 {
        fill: #115876;
      }

      .cls-67 {
        fill: #14cff6;
      }

      .cls-68 {
        fill: #067f9f;
      }

      .cls-69 {
        fill: #f1d543;
      }

      .cls-70 {
        fill: #f8e16c;
      }

      .cls-71 {
        fill: #072138;
      }

      .cls-72 {
        fill: #5a787e;
      }

      .cls-73 {
        fill: #1b6882;
      }

      .cls-74 {
        fill: #da8402;
      }

      .cls-75 {
        fill: #0c1e2e;
      }

      .cls-76 {
        fill: #cf780b;
      }

      .cls-77 {
        fill: #095373;
      }

      .cls-78 {
        fill: #e5cd77;
      }

      .cls-79 {
        fill: #0db8dd;
      }

      .cls-80 {
        fill: #083146;
      }

      .cls-81 {
        fill: #0488ab;
      }

      .cls-82 {
        fill: #f9ac05;
      }

      .cls-83 {
        fill: #03bfe4;
      }

      .cls-84 {
        fill: #13181a;
      }

      .cls-85 {
        fill: #b9680d;
      }

      .cls-86 {
        fill: #ebf5f6;
      }

      .cls-87 {
        fill: #046f8c;
      }

      .cls-88 {
        fill: #0fd7f8;
      }

      .cls-89 {
        fill: #caf7f9;
      }

      .cls-90 {
        fill: #07bad5;
      }

      .cls-91 {
        fill: #dbb564;
      }

      .cls-92 {
        fill: #e3880a;
      }

      .cls-93 {
        fill: #fcc335;
      }

      .cls-94 {
        fill: #0ecff7;
      }

      .cls-95 {
        fill: #d19c54;
      }

      .cls-96 {
        fill: #b7690b;
      }

      .cls-97 {
        fill: #27c2cd;
      }

      .cls-98 {
        fill: #fcca43;
      }

      .cls-99 {
        fill: #10c0e4;
      }

      .cls-100 {
        fill: #f1f4e7;
      }

      .cls-101 {
        fill: #d7f0f5;
      }

      .cls-102 {
        fill: #002b48;
      }

      .cls-103 {
        fill: #e09b23;
      }

      .cls-104 {
        fill: #1c5c77;
      }

      .cls-105 {
        fill: #c62f43;
      }

      .cls-106 {
        fill: #0b2130;
      }

      .cls-107 {
        fill: #001b35;
      }

      .cls-108 {
        fill: #03263f;
      }

      .cls-109 {
        fill: #032b48;
      }

      .cls-110 {
        fill: #036485;
      }

      .cls-111 {
        fill: #faca43;
      }

      .cls-112 {
        fill: #f5ecd7;
      }

      .cls-113 {
        fill: #f8ad19;
      }

      .cls-114 {
        fill: #fdc63d;
      }

      .cls-115 {
        fill: #c06407;
      }

      .cls-116 {
        fill: #efcb67;
      }

      .cls-117 {
        fill: #091c2b;
      }

      .cls-118 {
        fill: #e38c59;
      }

      .cls-119 {
        fill: #eec545;
      }

      .cls-120 {
        fill: #effbfa;
      }

      .cls-121 {
        fill: #182021;
      }

      .cls-122 {
        fill: #053b56;
      }

      .cls-123 {
        fill: #d4800d;
      }

      .cls-124 {
        fill: #66250b;
      }

      .cls-125 {
        fill: #091b24;
      }

      .cls-126 {
        fill: #f7c53d;
      }

      .cls-127 {
        fill: #1b1d1c;
      }

      .cls-128 {
        fill: #041b32;
      }

      .cls-129 {
        fill: #021a34;
      }

      .cls-130 {
        fill: #effafc;
      }

      .cls-131 {
        fill: #094662;
      }

      .cls-132 {
        fill: #21a6be;
      }

      .cls-133 {
        fill: #041d36;
      }

      .cls-134 {
        fill: #dff9f9;
      }

      .cls-135 {
        fill: #f0fcf8;
      }

      .cls-136 {
        fill: #144161;
      }

      .cls-137 {
        fill: #0c85a4;
      }

      .cls-138 {
        fill: #a9c5ce;
      }

      .cls-139 {
        fill: #e6912a;
      }

      .cls-140 {
        fill: #059ebf;
      }

      .cls-141 {
        fill: #21687f;
      }

      .cls-142 {
        fill: #b05f30;
      }

      .cls-143 {
        fill: #c88303;
      }

      .cls-144 {
        fill: #09202e;
      }

      .cls-145 {
        fill: #041c34;
      }

      .cls-146 {
        fill: #e6c629;
      }

      .cls-147 {
        fill: #eda040;
      }

      .cls-148 {
        fill: #e4f9f7;
      }

      .cls-149 {
        fill: #f9e595;
      }

      .cls-150 {
        fill: #bacfd5;
      }

      .cls-151 {
        fill: #ce8a19;
      }

      .cls-152 {
        fill: #17748f;
      }

      .cls-153 {
        fill: #f0ae1e;
      }

      .cls-154 {
        fill: #f1b422;
      }

      .cls-155 {
        fill: #d27e04;
      }

      .cls-156 {
        fill: #1fcbe9;
      }

      .cls-157 {
        fill: #fdcb47;
      }

      .cls-158 {
        fill: #c4e5f3;
      }

      .cls-159 {
        fill: #04afd3;
      }

      .cls-160 {
        fill: #e3f5f8;
      }

      .cls-161 {
        fill: #fcbf31;
      }

      .cls-162 {
        fill: #0acdf5;
      }

      .cls-163 {
        fill: #d78717;
      }

      .cls-164 {
        fill: #d78911;
      }

      .cls-165 {
        fill: #e79a0c;
      }

      .cls-166 {
        fill: #ea6b76;
      }

      .cls-167 {
        fill: #0c1c2b;
      }

      .cls-168 {
        fill: #03243f;
      }

      .cls-169 {
        fill: #051c35;
      }

      .cls-170 {
        fill: #f9b20d;
      }

      .cls-171 {
        fill: #9cc1d1;
      }

      .cls-172 {
        fill: #06e1f7;
      }

      .cls-173 {
        fill: #022640;
      }

      .cls-174 {
        fill: #0d8cb0;
      }

      .cls-175 {
        fill: #0a5f7f;
      }

      .cls-176 {
        fill: #fcb823;
      }

      .cls-177 {
        fill: #0ed9fa;
      }

      .cls-178 {
        fill: #e9aa19;
      }

      .cls-179 {
        fill: #1c677d;
      }

      .cls-180 {
        fill: #ecf5fa;
      }

      .cls-181 {
        fill: #c1700a;
      }

      .cls-182 {
        fill: #129bbc;
      }

      .cls-183 {
        fill: #a2bfce;
      }

      .cls-184 {
        fill: #8bcbcf;
      }

      .cls-185 {
        fill: #06c0e3;
      }

      .cls-186 {
        fill: #fad25d;
      }

      .cls-187 {
        fill: #bc6104;
      }

      .cls-188 {
        fill: #234961;
      }

      .cls-189 {
        fill: #a06b09;
      }

      .cls-190 {
        fill: #e99609;
      }

      .cls-191 {
        fill: #be6a04;
      }

      .cls-192 {
        fill: #db8f19;
      }

      .cls-193 {
        fill: #efe9e4;
      }

      .cls-194 {
        fill: #597d94;
      }

      .cls-195 {
        fill: #e0f7f7;
      }

      .cls-196 {
        fill: #ecbd65;
      }

      .cls-197 {
        fill: #073552;
      }

      .cls-198 {
        fill: #f4f3ca;
      }

      .cls-199 {
        fill: #0c6a92;
      }

      .cls-200 {
        fill: #01b6d8;
      }

      .cls-201 {
        fill: #0b1e2f;
      }

      .cls-202 {
        fill: #119bbc;
      }

      .cls-203 {
        fill: #a25409;
      }

      .cls-204 {
        fill: #06e8f6;
      }

      .cls-205 {
        fill: #1a1a0a;
      }

      .cls-206 {
        fill: #78c8cb;
      }

      .cls-207 {
        fill: #11caf2;
      }

      .cls-208 {
        fill: #ae5703;
      }

      .cls-209 {
        fill: #066384;
      }

      .cls-210 {
        fill: #aac7d8;
      }

      .cls-211 {
        fill: #0a5e7c;
      }

      .cls-212 {
        fill: #1b6983;
      }

      .cls-213 {
        fill: #02223c;
      }

      .cls-214 {
        fill: #98490a;
      }

      .cls-215 {
        fill: #055d7b;
      }

      .cls-216 {
        fill: #c3a257;
      }

      .cls-217 {
        fill: #001c35;
      }

      .cls-218 {
        fill: #0c6487;
      }

      .cls-219 {
        fill: #f3c653;
      }

      .cls-220 {
        fill: #f1f3c8;
      }

      .cls-221 {
        fill: #456d83;
      }

      .cls-222 {
        fill: #cf8422;
      }

      .cls-223 {
        fill: #0cc0e7;
      }

      .cls-224 {
        fill: #05badb;
      }

      .cls-225 {
        fill: #75290a;
      }

      .cls-226 {
        fill: #02badd;
      }

      .cls-227 {
        fill: #fcb727;
      }

      .cls-228 {
        fill: #e8a11b;
      }

      .cls-229 {
        fill: #efebc5;
      }

      .cls-230 {
        fill: #091b28;
      }

      .cls-231 {
        fill: #f6eed7;
      }

      .cls-232 {
        fill: #cd8f26;
      }

      .cls-233 {
        fill: #08c6ef;
      }

      .cls-234 {
        fill: #dea020;
      }

      .cls-235 {
        fill: #037697;
      }

      .cls-236 {
        fill: #061f39;
      }

      .cls-237 {
        fill: #9fbdc7;
      }

      .cls-238 {
        fill: #b65e03;
      }

      .cls-239 {
        fill: #66e2f1;
      }

      .cls-240 {
        fill: #38c6d7;
      }

      .cls-241 {
        fill: #0abfdf;
      }

      .cls-242 {
        fill: #a75e17;
      }

      .cls-243 {
        fill: #0ec8ea;
      }

      .cls-244 {
        fill: #051c2f;
      }

      .cls-245 {
        fill: #12c3d7;
      }

      .cls-246 {
        fill: #facb3b;
      }

      .cls-247 {
        fill: #0e617b;
      }

      .cls-248 {
        fill: #dbf1f5;
      }

      .cls-249 {
        fill: #051b29;
      }

      .cls-250 {
        fill: #eec625;
      }

      .cls-251 {
        fill: #0f6a92;
      }

      .cls-252 {
        fill: #265978;
      }

      .cls-253 {
        fill: #21b3c4;
      }

      .cls-254 {
        fill: #cf2f48;
      }

      .cls-255 {
        fill: #01223c;
      }

      .cls-256 {
        fill: #bf5e0b;
      }

      .cls-257 {
        fill: #05a7ce;
      }

      .cls-258 {
        fill: #16e3f6;
      }

      .cls-259 {
        fill: #b46d08;
      }

      .cls-260 {
        fill: #bc5604;
      }

      .cls-261 {
        fill: #64360f;
      }

      .cls-262 {
        fill: #f2ce52;
      }

      .cls-263 {
        fill: #21485f;
      }

      .cls-264 {
        fill: #06dcfa;
      }

      .cls-265 {
        fill: #f0f7f8;
      }

      .cls-266 {
        fill: #03accb;
      }

      .cls-267 {
        fill: #c06a0b;
      }

      .cls-268 {
        fill: #08202d;
      }

      .cls-269 {
        fill: #587a97;
      }

      .cls-270 {
        fill: #fec151;
      }

      .cls-271 {
        fill: #0c2e48;
      }

      .cls-272 {
        fill: #f8d83a;
      }

      .cls-273 {
        fill: #e3f8f8;
      }

      .cls-274 {
        fill: #0a1824;
      }

      .cls-275 {
        fill: #f69f0a;
      }

      .cls-276 {
        fill: #f6af34;
      }

      .cls-277 {
        fill: #e7f7f7;
      }

      .cls-278 {
        fill: #e6b733;
      }

      .cls-279 {
        fill: #18d1f3;
      }

      .cls-280 {
        fill: #eea817;
      }

      .cls-281 {
        fill: #cd9415;
      }
    </style>
  </defs>
  <path class="cls-236" d="M682.3,169.1c-1.1,2.4-2.1,4.8-3.2,7.2-4.5.3-3.1,5.8-7,7.5-.2-2.4,2-5-1.2-6.5-10.5,2.4-4.4,16.3-7,23-2.9,3.8-7.2-1-8.2,3.9-8.4-8.2,15.1-60.6,17.9-69,3.4-10.1,21.1-41.6,17.2-52.1,4.6-1.1,8.9-6.2,8.3-10.5-6.8,3.5-5.8-5.7-10.9-6.3,7.3.3,8.9-5,11-9.6,2.2,3.2,6.9.3,9,3.7,1.3,1.7,2.6,3.4,3.9,5,3.8,6.4,3.2,12.5.4,19.5-11.2,27.6-21.7,55.6-30.3,84.1Z"/>
  <path class="cls-133" d="M352.8,168.5c23.8-13.5-.7-106.4-1.1-129.4l2.5-2.6c6.7,0,11.4-7.7,18.8-5.3,1.1,6.1-7.9,30.8-6.7,43.7,2.6-.9,0-4.1,2.3-4.6,4.2,6,1,12.4.9,18.9,3.2-.8,4.8-2.6,5.3-5.4.5,1,1.3,2,1.4,3.1,3.1,30,2.5,59.9-1,89.7-.6,5.3-.6,9.6,6.6,5.5,9.1-1,17.5,3.2,26.4,3.6-3.7,7.6-11.4.8-16.5,4.7,2,3.3-1.4,6-1.4,9.3l-4.7.6c-.5-2.2.6-4.8-2-7-6.1,1.6-15.6-3.5-20.1,1,.4-.5-.4,27.5-.4,27.6h54.4c-6.7,1.4-27,3.4-26.8,10.8-3,1.1-6.4-.1-9.3,1.9-32.1,2.2-63.3,13.8-89.7,32.1-4.7,3.3-51.1,42.5-39.8,49.5-3.6,6.7-.4,14.2-2.6,20.7,4.6,3.5,10.9-1.3,14.5,3.8-1.3,5.2-7.6.6-9,5.3,3.2,2.3,7.7-.5,10.7,4.5,2-15.6,17.9-15.5,13-4.6-76.2,75.1-132.9,148.6-149.6,258.2,4.3-.9,6-4.3,8.8-6.2,5.8-1.4,55.8-18.6,56.4-22.4,1.1-.1,2.3-.3,3.4-.4,2.8,1.4,5.4,3.1,8.3,4,6.4,2,12.1,4.7,15.5,10.8-35.7,6.7-66.5,23.3-94.4,46.1-12.1,8.6-23,18.5-32.1,30.4-37.3,42.8-55.9,93.2-60.7,149.2-.2,2.7.1,5.2,2,7.3-.7,12.9-.8,25.8,2.4,39,5.2-7.4,10-14.4,14.9-21.4,8-2.1,11.2-9.7,16.8-14.6,25.6-22.7,55.8-36.9,88.2-46.5,27.3-8.1,49.1-22,60.2-49.4l3.7-4c12.5-6,14.7-18.7,19-31.5,2.6,12.3,1.4,23.3,1.9,34.2l-2.9,12.8c-6.5,11.9-10.2,24.9-14.8,37.6-2-.8-1.8-4.6-5.6-3.8-4.6,9.2-7.2,33.6-16.1,37.1,1.8-6.9-1.7-9.9-6.3-12.2-4.9-1.9-2.8-8.7-8.1-11-3.8,14.8,5.9,31,4.7,46.1-9.1,21.1,9.8,38.8,17.5,56.3-16.5,3.1-7.5-12.5-14.4-18.1-5.7-4.7-11.9-4.4-16.8-8.8,13.4-2.7,6.7-68.7-5.8-76.3-19.4-11.8-46.6,14.8-66.2,16.9,2.7,2.9,6.2,1.2,8.1,4.4.8,4.6-5.4,10.2.2,15.4-14.2-21-91.5,108-91,108-2.5-8.1-8.1-15.1-8.1-24.1,6.1-16.5-4.1-36.8-5.7-53.4-1.9-18.8-1.7-39.6,0-58.4,3.7-41,27.7-70.2,36.2-107.9-.5-.7-1.4-1.4-1.5-2.1-4.2-34.7-7.9-69.5-3.6-104.5,12.9,12.5-9.5,49,3.5,61.5-1,12.2,2.7,23.7,5,37.6,3.3-7.7,28.4-42.7,37-44.9,15.6-31.5,16.4-68.6,27.7-103.4,12.2-37.4,30.2-71.3,49.8-105.2,14.6-11.4,42.9-47.1,52-63.3,10-17.7,4-45.6,9.3-68.5,1.4-2.5,2-5.6,5.1-6.7,9.4-3.5,11.6-13.4,17.8-19.7,20.5-15.7,38.7-30.7,62.8-41.5,20.9-9.3,52.2-27.6,39.2-58.1l.7-1.9ZM247.8,339.9c-6.8-.7-12.2-3.6-17.4-9.6-3.1,12.9.4,22.2,7.1,30.2,10.8-2.9.5-16.2,10.4-20.6ZM198,764.5c5.3,4.8-2.7,14.2,8.4,13.4,5-.4,10.4-2.9,8.3-9.4-2.7-8.2-9.4-2.7-16.7-4Z"/>
  <path class="cls-12" d="M699.4,56.7c-2.1,4.6-3.7,9.9-11,9.6,5.1.6,4.1,9.8,10.9,6.3.5,4.3-3.7,9.3-8.4,10.5-.5,0-1,0-1.6,0,8.3-18.6-96.6-41.8-110.6-44-20.8-4.9-41.8-7.9-63.3-6.8-12.4,0-24.9-.1-37.3-.2-18-.5-35.9.1-55.5,4.8,3.6-4.3,7.7-1.5,9.1-5.4-3.8-2.3-8.4.2-12.3-2.5-1-4,.1-10.5-7.8-9.1,17.6-18.4,83.2-8.4,108.3-6.3,33.7,2.8,67,9,100.3,13.7-.7,2.6-4,0-4.5,2.8,2.9,1,6.4-.6,9,1.6-1.5,4.4-7.3,0-8.3,4.9,9.7,4.4,21.6-11.6,29.7,3.5,13.7-2.3,38,20.8,49.9,13.5,1.6.5,3.5.8,3.3,3.2Z"/>
  <path class="cls-117" d="M696.1,53.5c-11.9,7.3-36.2-15.7-49.9-13.5-8.1-15.1-20,.9-29.7-3.5,1-5,6.8-.5,8.3-4.9-2.7-2.2-6.1-.6-9-1.6.4-2.7,3.8-.1,4.5-2.8-33.2-4.6-66.6-10.8-100.3-13.7-25.1-2.1-90.7-12.1-108.3,6.3-13.7-.5-24.8,8.9-38.1,9.9-.2,0-.4.4-.5.7-7.6-2.5-12.3,5.6-19.4,5.3,1.2-31.3,141-29,161.9-27.9,62.4,3.3,124.7,17,180.5,45.7Z"/>
  <path class="cls-29" d="M351.7,38.6c.6,23.3,24.3,113.8,1.8,128.6.9-23.4,2.8-46.7,1.1-70-1.3-17.6-10.5-41.2-6.2-58.3,1.1-.1,2.2-.2,3.3-.4Z"/>
  <path class="cls-213" d="M808.6,901.3c-9.8,11.3-17.5,24.4-29.9,33.4-4-3.6-.6,2.6-.7-6.8-1.1-2.2-3.2,2-4.4-2.2,1.9-1.2,4.2-2.8,8.5-5.7-9.9,0-18.9-44.2-15.7-52.2,2.9,3.1,2.4,7.6,5,11.8,48.3-56.3,81-119.5,93.1-192.7,2.4-18.1,4.8-36.2,7.3-54.3.9.6,1.8,1.2,3.5,2.4,0-17.8,6.8-56.2-5.3-70.9-13.4-37.3-14.9-77.8-30.5-115.4-14.5-35.1-33-72.6-57.5-102,7.9-7,19-31.5-2.3-31.2-7.8-13.3,26.3-2.3,27.1-2.4,10.8,4,22.6,28.2,27.9,37.2,2.5-.2,3.5-1.7,3.8-4,10.1,16.1,19.9,32.4,28.5,49.4,9.8,19.5,17.7,39.7,25.7,60,6.4,20.5,9.8,41.7,15.8,62.3,1.5,5.1,4.4,10.5,3.3,16.4-8,14.6,1.8,42.9,2.3,59.2.9,29-2.5,57.8-3.6,86.7,0,0,.1-.1.1-.1-9.6,5.7-9.8,42.5-13.7,53.7-4.4,12.6-23,45.4-17,58.5-9.3,23.6-21.3,45.2-35.8,66-7,10-23.7,39.8-35.4,43Z"/>
  <path class="cls-57" d="M910.5,680.2c1.1-28.9,4.5-57.7,3.6-86.7-.5-16.3-10.3-44.6-2.3-59.2,7,38.6,7.2,77.4,3.5,116.2-.9,9.9,0,20.3-4.8,29.7Z"/>
  <path class="cls-144" d="M879.9,792.4c-5.9-13.1,12.6-45.9,17-58.5,3.9-11.2,4.1-48,13.7-53.7-.2,21.2-6.2,41.4-12.3,61.3-5.3,17.2-10.9,34.4-18.4,50.9Z"/>
  <path class="cls-129" d="M278.4,345.3c4.9-10.9-11-11-13,4.6-3-5-7.5-2.2-10.7-4.5,1.4-4.8,7.7-.1,9-5.3-3.6-5.1-9.9-.3-14.5-3.8,2.2-6.6-1-14,2.6-20.7,9.8-11.4,19.7-22.7,31-32.6,8.5,2.6,63-28.1,72.8-32.8,52.9-11.7,104.8-8.7,155.4,10.6,26.6,10.2,52.2,22.8,79,32.6,5.9,2.1,49,16.8,46.4,9.1,20.3,4,44.3,9.6,64.8,4.3,7.4-1.9,38.2-15,23-28.5,7.7-17.1-32-17.8-39.3-17.3,2.1,1.7,37.4,17.5,39.4,17.2-4.5,45.6-112.9,12.4-134.7,1.5-7.9-3.4-15.8-6.8-23.6-10.3,7.9-2.3,15.9-5.8,24.1-2.7,5,1.9,9.8,3.1,15,2.4,12.6.7,24,9.2,37.9,6.4-.6-2.1-1.1-3.7-1.6-5.4,5.8-13.1,7.4-27,8.7-41,0-.6-1.1-1.3-1.7-2,1.4-.9,3.4-1,3.9-3.2-2.5-1.7-5-3.3-7.1-4.7,1-7,8.1-9.1,10.3-14.9,1-4.9,5.3,0,8.2-3.9,2.6-6.7-3.5-20.6,7-23,3.2,1.5,1,4.2,1.2,6.5,3.9-1.7,2.5-7.3,7-7.5-2,7.4-4.7,14.6-4,22.5-4.3,5.3-4.9,36.8.9,41.6,8.9,7.4,35.9,2.9,48.1,9.2,14.8,7.6,27.2,20.3,26.2,38-.7,13.4-11.7,17.4-12.1,29.1-16.5,15.7-38,17.3-59.5,20.1,1.3,3.6,2.3,6.5,3.4,9.5-1.3,9.3-11.1,19.9-3.4,28.2-2.8,3.7-6.2,6.1-10.2,7.2-.9-15.2-6.4-28.6-15-41-3.6-5.1-8-9.2-15.1-8.2-1.3,0-2.5.1-3.8.2-92.8-11.4-196.4-88.2-287.7-23.1-4.2-1.2-7.9.3-11.6,2.1-20.1,9.3-38.9,20.8-57,33.7Z"/>
  <path class="cls-108" d="M738.3,316.6c.4-11.7,11.4-15.7,12.1-29.1.9-17.7-11.4-30.4-26.2-38-12.2-6.2-39.2-1.8-48.1-9.2-5.7-4.8-5.1-36.3-.9-41.6,30.3,14.5,74.4,36.7,94.4,65.3,10,11.1,21.4,21,30.2,33.2-1.4.9-3.3,1.1-3.7,2.7,2.7,5.3,9.5,6.9,10.7,13.1-.7.1-34.9-10.8-27.1,2.4,21.3-.3,10.2,24.2,2.3,31.2-12.4-12.1-21.3-27.3-34.4-38.9-3.8,3-5.5,7-9.4,8.7Z"/>
  <path class="cls-201" d="M799.7,297.2c1.8,1.7,3.5,3.5,5.3,5.2,11.4,14.4,23.2,28.5,33.4,43.9-.3,2.3-1.3,3.8-3.8,4-5.3-9-17.1-33.2-27.9-37.2-1.2-6.2-8-7.8-10.7-13.1.4-1.7,2.3-1.9,3.7-2.7Z"/>
  <path class="cls-46" d="M655.7,204.2c-2.2,5.8-9.3,7.9-10.3,14.9,2.1,1.4,4.6,3.1,7.1,4.7-.5,2.2-2.5,2.3-3.9,3.2-6-2-12-3.8-17.5-7.1,5-2.6,9.3-6,12.4-10.8,7.3,1.1,5.8-5.2,6.6-8.6,9.6-40.3,22.8-79.4,39.2-117.5.5,0,1,0,1.6,0,3.9,10.5-13.8,42-17.2,52.1-2.9,8.4-26.4,60.8-17.9,69Z"/>
  <path class="cls-167" d="M25.3,725.7c4.7-9.2,9.3-18.3,14-27.5,2-4.1,4.3-7.9,8.8-9.8-8.5,37.7-32.5,66.9-36.2,107.9-1.7,18.8-1.9,39.6,0,58.4,1.6,16.6,11.8,36.9,5.7,53.4-21.3-60.9-8.2-122.8,7.8-182.5Z"/>
  <path class="cls-173" d="M272.9,204.2c17.5-10.3,34.1-22.2,53.8-28.5,3.7-1.2,8.3.2,11.3-3.3,5.9,4.4,9.1-3.5,14.1-3.1,13.3,30.7-18.1,49.1-39.1,58.5-24.1,10.8-42.3,25.8-62.8,41.5-2.1,0-22.9-20.6-20.1-25.6.6-1,59.6-1.3,46.3-22.5-1.2.2-13.9,15.5-12.9,4.9.5-5.3,8.2-11.9,14-10.8-.5-2-3.6-10.6-4.5-11Z"/>
  <path class="cls-217" d="M643.5,209.2c-3.1,4.8-7.4,8.2-12.4,10.8-34.9-10.6-71.3-22.3-108.2-23.1-7.2-2.1-76.5-9.1-79.8-1.6-7.5.1-15.1.2-22.6.3-.8-2.9-3.8-3.2-5.7-4.7-.2-2.3,3.7-2.4,2.5-5.2-2.9-1.7-6.1-.6-9.2-.9-8.9-.5-17.3-4.6-26.4-3.6,3.1-34.6,11.3-79.3.3-113.3-11.9-36.9-11.6-4.4-7.2,15-.4,2.8-2,4.6-5.3,5.4,0-6.5,3.2-12.9-.9-18.9-2.2.5.3,3.7-2.3,4.6-1.3-12.8,7.7-37.6,6.7-43.7.2-.2.3-.6.5-.7,13.3-1,24.4-10.4,38.1-9.9,7.9-1.4,6.7,5.1,7.8,9.1,3.9,2.7,8.5.2,12.3,2.5-1.4,4-5.4,1.2-9.1,5.4,19.6-4.7,37.6-5.3,55.5-4.8,1.1,5,25.5,6.8,30.8,14.4,10.2,14.6,3.8,43.3,2.8,59.9-.9,14.6-12.5,55.4-5.3,66.9,7.6,12,34.3,9.8,49.1,11.5,22.6,3.9,44.8,9.3,66.7,16,3.8,2,7.9,3.2,12.2,3.5.9,1.1,1.9,2,3.4,1.8,1.9,1,3.7,2,5.6,3Z"/>
  <path class="cls-255" d="M271.7,204.2c.9.4,4,9,4.5,11-5.8-1-13.4,5.5-14,10.8-1,10.6,11.7-4.7,12.9-4.9,13.3,21.2-45.7,21.5-46.3,22.5-2.8,5,18,25.7,20.1,25.6-6.2,6.3-8.4,16.2-17.8,19.7-3,1.1-3.7,4.2-5.1,6.7-3.8,0-6.6,2.2-9,4.7-20.9,21.6-40.2,44.5-57.4,69.1-12.7,6.3-30.1,52.9-35.7,65.5-9.3,21.1-17,43.3-23.3,65.4-6.1,21.5-33.7,119.6-13.5,135.6-8.6,2.2-33.7,37.2-37,44.9-2.3-13.8-6-25.4-5-37.6,0-27.5,0-55,0-82.5,6.5-26.3,8.7-52.7,16.8-78.7,4.1-13.1,24.6-47.2,17.9-60.3,4.2-11.8,11.4-22.3,15.4-34,6.2-18.3,21.1-31,29-48.1,6.2-8.3,12.4-16.5,18.6-24.8.4-.5.7-1,1.1-1.6,8.1-9.3,16.8-18.1,23.9-28.3,2.2-13.4,39.1-36.1,49.3-44.2,17-13.4,34.8-27.5,54.5-36.6Z"/>
  <path class="cls-3" d="M250.1,975.1c-26.6-16.8-49.8-37.6-70.3-61.4,8.1-8.9,1.8-15.9-5.4-19.8,12.8,4,39.6,10.6,20.5,25,10.1,0,38-5.7,34.8,12.6-1.9,3.3-9.4-1.5-8.1,6.2,38.3,7.2-4.9-26.3-7.3-29.5,2.6-6.4,4.2-12.7-2.8-17.4-7.8-17.4-26.6-35.1-17.5-56.3,12.1,13.5,14.2,39.6,26.8,55.4,15.1,19,36.1,36.7,57.4,48.4,1.7,4,6.2,4,9.2,6.1,23.8,16.2,49.7,28.3,76.9,37.6,4.5,1.2,9,2.3,13.4,3.5,13.8,5.1,28.1,8.2,42.5,10.9,11,2.7,22,5.4,33.4,4.7-9.3,23.6,9.2,14.4-11.1,23.5-3.7,1.6-19.3-9.2-18,1.1,7.5,6.2,17.4,3.6,24.2,9.5-15.1-1.6-27.4,5.8-42.3,3.2-30.3-11.7-60.2-19.9-89.3-33.9-13.8-6.6-53.2-32-67-29.3Z"/>
  <path class="cls-81" d="M221.7,725.5c-1,1.2-2.1,2.5-3.1,3.7-1.2-.7-82.8,42.5-91.6,46.9-18.9,9.5-72.5,37-73.7,61.7-4.9-1-6.9,2.5-9.1,6.2-1.1-16.2,3.9-33.9,1.7-49.6,3.2-10.6,4.6-22,12.9-30.4,17.1,2,46.6-22.5,62.5-30.1,18.3-8.8,39.3-16.3,55.2-29.3,6.9-1.8,11.9-6.7,17.6-10.4,15.2-9.9,27.1-23.2,38.4-37,.9-.6,1.8-1.3,4.7-3.2-4.3,10.5-5.4,37.7-3.4,48.5-2.6,8.4-8.9,14.9-12,23Z"/>
  <path class="cls-107" d="M211.5,890.8c7,4.7,5.4,11,2.8,17.4,2.4,3.1,45.6,36.6,7.3,29.5-1.3-7.7,6.1-2.9,8.1-6.2,3.3-18.3-24.7-12.6-34.8-12.6,19.1-14.4-7.7-21-20.5-25,7.2,3.9,13.5,10.9,5.4,19.8-25.5-26.7-47-56.2-63.2-89.5-5.6-5.2.6-10.8-.2-15.4-1.9-3.2-5.4-1.4-8.1-4.4,19.5-2,46.8-28.6,66.2-16.9,12.5,7.6,19.2,73.6,5.8,76.3,4.9,4.4,11.1,4.2,16.8,8.8,6.8,5.6-2.1,21.2,14.4,18.1Z"/>
  <path class="cls-215" d="M225.4,778.3c5.2-14.4,9.3-29.2,17.6-42.3,1.8,14.2-8.1,25.7-6,38.8,1.2,7.1,10.7,19.1,13.9,26.6,9.1,20.8,9,52.5,27.4,68.3,8.9,16.2,17.9,32.3,26.8,48.5,1.5,2.8,2.4,6.1,6.5,6.1,5.5,11.2,10,23,19.6,31.7,2.6,2.4,3.6,5.2,3.3,8.5-19.5-.9-40.3-26.2-59.6-31.7-10.4-17.3-21-33.8-29.5-52.1-6-13-11.3-46.6-21.6-56.6-2.6-15.4-6.8-30.9,1.7-45.9Z"/>
  <path class="cls-73" d="M160.9,369.4c17.1-24.7,36.5-47.5,57.4-69.1,2.5-2.5,5.2-4.7,9-4.7-5.3,22.9.7,50.8-9.3,68.5-9.1,16.2-37.4,51.8-52,63.3-13.3,4-20,28-26.9,38.1-4.6-8.3,7.1-15.5.4-23.3-5.1,1.3-11.6,33.5-14.2,40.3,1.1,2.8,5.2.4,5.2,4-5.2,4.9-8.5-1.4-12.7-2.5-3,9.3,8.6,23.7-4,28,.5-23.6-8-23.9,9.3-43.3-13.4-25.1,51.2-83.4,37.9-99.3Z"/>
  <path class="cls-141" d="M160.9,369.4c13.4,15.9-51.3,74.2-37.9,99.3-17.2,19.4-8.8,19.7-9.3,43.3,12.6-4.3.9-18.7,4-28,4.2,1,7.6,7.4,12.7,2.5,0-3.6-4.1-1.2-5.2-4,2.7-6.8,9.1-39.1,14.2-40.3,6.7,7.8-5,15-.4,23.3,6.9-10.2,13.6-34.2,26.9-38.1-19.6,34-37.6,67.8-49.8,105.2-11.3,34.8-12.1,71.9-27.7,103.4-20.2-16,7.4-114.2,13.5-135.6,6.3-22.2,14-44.3,23.3-65.4,5.5-12.5,22.9-59.1,35.7-65.5Z"/>
  <path class="cls-122" d="M223.7,824.2c10.4,9.9,15.6,43.6,21.6,56.6,8.5,18.3,19.1,34.8,29.5,52.1,1.1,1.8,2.2,3.6,3.3,5.4-21.3-11.7-42.3-29.4-57.4-48.4-12.5-15.8-14.7-41.9-26.8-55.4,1.3-15-8.5-31.2-4.7-46.1,5.3,2.3,3.3,9.1,8.1,11,4.6,15.5,13.8,27.9,26.8,39.9.9-6.3-3.1-10.8-.5-15.2Z"/>
  <path class="cls-244" d="M390.6,232.8c-.2-7.4,20.1-9.5,26.8-10.8h-54.4c0,0,.9-28.1.4-27.6,4.5-4.6,14,.6,20.1-1,2.6,2.1,1.6,4.7,2,6.9-4.1-.4-7.4.6-9.1,4.7-17.5,8.5,24.4,8.7,27.9,8.7,27.5,1.7,55.4,10.8,83.1,7.1h.8c0-.1.7.2.7.2,2,12.5,50.4,10.7,49.5,24.9-1,1.9-3.5-1.4-4.2,1.3,5.1,5.4,8.4-3.9,13.1-1.3l-.3,6.4c-3.9,1.9-8.2,2.6-12.3,3.7l-14.8-2.1c-13.9-8.3-29.3-12.2-44.7-15.5-27.9-5.9-56.2-6.6-84.6-5.5Z"/>
  <path class="cls-211" d="M137.7,597.2c2.8-7.6,5.7-15.1,8.5-22.7,14.5-4.4,41.3-75.6,45.9-91.3,1.3-2.3,2.5-4.5,3.8-6.8,5.2,5.3-2.4,7.3-1.3,12.6,1.6,8.3,9.2,10.5,8.4,21.5-1.2,16.9-25.4,48.9-17.1,67.5,2.5,0,3.8-1.6,4.7-3.5,1.2.1,2.4.2,3.6.3-.5,3.8-50.6,21-56.4,22.4Z"/>
  <path class="cls-120" d="M58.7,764.1c-8.3,8.4-9.6,19.8-12.9,30.4-2.2,3.5-2.1,7.8-3.5,11.4-2,5.4.1,12.5-6.2,16.2-1.8-2.1-2.2-4.6-2-7.3,4.8-56,23.4-106.4,60.7-149.2,6.7-2.9,13.8-1.1,21.4-3.3-1.3,4.4-5.1,5.3-4.9,8.6-12.5,13.8-21.4,30.1-32.1,45.1-4.4,6.1-6.1,11.6-2.6,18.4-1,1.6.5,4.2-2.4,5-12.2,3.7-12.4,15.1-15.6,24.6Z"/>
  <path class="cls-77" d="M53.2,837.9c1.2-24.7,54.8-52.2,73.7-61.7,8.7-4.4,90.4-47.7,91.6-46.9-11.1,27.4-32.9,41.2-60.2,49.4-32.3,9.6-62.5,23.8-88.2,46.5-5.6,4.9-8.8,12.5-16.8,14.6,0-.6,0-1.2-.2-1.8Z"/>
  <path class="cls-22" d="M230.5,600.9c-.8-5.6-3.1-10.2-9.2-11.6-3.4-6.1-9.1-8.9-15.5-10.9-2.9-.9-5.5-2.7-8.3-4,7.9-20.3,12.9-41.1,10.4-63.1,2.6-10.9,4.2-22,10.5-31.7-.6,11-8.2,26.2,1.9,34.5-5.1,9.4-8.1,15-8.3,25.1-.1,9.7,11.4,17,4.3,27.2,2.6.6,12.2.2,12.3,4.6.3,6.9-9.4.2-9.9,7-.2,2.8,26.2,17.9,12.4,23l-.6-.3Z"/>
  <path class="cls-252" d="M374.8,82.9c-4.3-19.3-4.7-51.9,7.2-15,11,34.1,2.9,78.8-.3,113.3-7.1,4.1-7.2-.2-6.6-5.5,3.5-29.9,4.1-59.8,1-89.7-.1-1.1-.9-2.1-1.4-3.1Z"/>
  <path class="cls-86" d="M282.9,282.8c-11.3,10-21.3,21.2-31,32.6-11.3-7,35-46.3,39.8-49.5,26.4-18.3,57.6-29.9,89.7-32.1,2.4.2,4.8.4,7.7.7-2.2,1.1-3.8,2-5.5,2.9-11.4,2.4-23.1,3.7-33.9,8.7-18.7,4.3-35.4,13.1-51.5,23.2-5.8,3.6-12.6,6.4-15.3,13.5Z"/>
  <path class="cls-110" d="M278.3,869.7c-18.4-15.7-18.3-47.5-27.4-68.3-3.3-7.5-12.8-19.5-13.9-26.6-2.1-13.1,7.8-24.5,6-38.8,0-2.8.1-5.6.2-8.4,3.5-4.2-.2-10.1,3.3-14.3-.9,36.5,4.7,72.1,14.4,107.2,1.6,5,3.4,9.9,4.6,15,2.9,11.9,11.3,21.8,12.9,34.2Z"/>
  <path class="cls-168" d="M223.7,824.2c-2.6,4.4,1.5,9,.5,15.2-13-12.1-22.2-24.4-26.8-39.9,4.6,2.3,8.2,5.3,6.3,12.2,9-3.5,11.5-27.9,16.1-37.1,3.7-.8,3.5,3,5.6,3.8-8.6,15-4.3,30.4-1.7,45.8Z"/>
  <path class="cls-182" d="M207.9,511.3c2.5,22-2.5,42.8-10.4,63.1-1.1.1-2.3.3-3.4.4-1.2-.1-2.4-.2-3.6-.3.3-13.3,3.8-25.9,8.5-38.1,3.2-8.3,3.9-17.5,9-25.1Z"/>
  <path class="cls-158" d="M383.5,237.4c1.6-.9,3.3-1.7,5.5-2.9-2.9-.3-5.3-.5-7.7-.7,2.8-2,6.3-.8,9.3-1.9,28.4-1.1,56.7-.4,84.6,5.5,11.9,2.5,23.8,5.4,35,10.5-2.4.5-5.2-.7-7.2,1.6-13.7-3.8-27.2-8.1-41.3-10.5-26-4.4-52.1-3.9-78.2-1.8Z"/>
  <path class="cls-16" d="M376.4,204.1c1.7-4.1,5-5.1,9.1-4.7,1.7-.8,3.4-1.5,5-2.3,3.6.7,7.1,1.4,10.7,2.2,1.5,2.9,4,3.3,6.9,3.1,16.8,3.7,33.8.2,49.1,10.4-16.3-.6-32.7-1.2-49-1.8,3.6-2.8,8.1-2.7,14-4.4-14.9-5-32.1,4.3-45.8-2.4Z"/>
  <path class="cls-152" d="M53.2,837.9c0,.6.1,1.2.2,1.8-4.9,7-9.8,14-14.9,21.4-3.2-13.2-3-26.1-2.4-39,6.3-3.7,4.1-10.8,6.2-16.2,1.4-3.7,1.3-7.9,3.5-11.4,2.3,15.7-2.8,33.4-1.7,49.6,2.2-3.8,4.3-7.2,9.1-6.2Z"/>
  <path class="cls-109" d="M246.4,713.3c-3.4,4.2.2,10.1-3.3,14.3-.4-10.8.7-21.7-1.8-33.9-4.4,13.1-6.5,26-19.7,31.8,3.1-8.1,9.4-14.6,12-23,3.2-5.8,5-12.2,7.3-18.4,1.2-3.2.6-7.7,5.3-9-.8,4.6-1.2,9.2.4,13.7,0,8.2-.2,16.3-.3,24.5Z"/>
  <path class="cls-129" d="M247.8,339.9c-9.9,4.4.5,17.6-10.4,20.6-6.7-8-10.2-17.3-7.1-30.2,5.3,6,10.7,9,17.4,9.6Z"/>
  <path class="cls-195" d="M126.9,635.4c-3.5,6.2-17.9,16.3-16.6,22.6,4-1.1,9.7-5.8,10.1,3.2.4,5.4-4.5,7.2-7.2,10.4-.6-.2-1.2-.3-1.8-.5-.3-3.3,3.5-4.2,4.9-8.6-7.6,2.2-14.7.4-21.4,3.3,9.1-11.8,20-21.8,32.1-30.4Z"/>
  <path class="cls-249" d="M401.2,199.2c-3.6-.7-7.1-1.4-10.7-2.2.8-2.5,2.7-4.8,1.1-7.5,5.1-3.9,12.8,2.9,16.5-4.7,3.1.3,6.3-.8,9.2.9,1.1,2.8-2.8,2.8-2.5,5.2,1.9,1.5,4.9,1.7,5.7,4.7-5.9,4.3-13.5-1.3-19.3,3.6Z"/>
  <path class="cls-15" d="M45.2,560.7c0,27.5,0,55,0,82.5-13-12.5,9.4-48.9-3.5-61.5-.3-10.9.6-21.7,3.2-32.3.1,3.7.2,7.5.3,11.2Z"/>
  <path class="cls-107" d="M198,764.5c7.4,1.3,14-4.2,16.7,4,2.1,6.5-3.3,9-8.3,9.4-11.2.8-3.1-8.6-8.4-13.4Z"/>
  <path class="cls-136" d="M555.6,184.9c-14.8-1.8-41.5.4-49.1-11.5-7.2-11.4,4.4-52.2,5.3-66.9,1-16.6,7.4-45.4-2.8-59.9-5.3-7.6-29.7-9.4-30.8-14.4,12.4,0,24.9.1,37.3.2,8.2,4.2,17.7,2.3,26.1,5.3,5.9,4.5,14.2,4.6,19.5,10.3,30,33.8-8.9,98.3-5.5,137Z"/>
  <path class="cls-101" d="M578.7,39c-2.6.4-4.8,1.5-5.7,4.2-10.5-1.9-21-3.7-31.4-5.6-8.4-3-17.9-1.1-26.1-5.3,21.4-1.1,42.5,1.9,63.3,6.8Z"/>
  <path class="cls-169" d="M766.4,867.9c-3.2,7.9,5.8,52.1,15.7,52.2-4.2,2.8-6.6,4.4-8.5,5.7,1.3,4.2,3.4,0,4.4,2.2,0,9.4-3.4,3.1.7,6.8.1,50.7-35.3,86.7-80.8,103.9-23.3,8.8-48.4,11.5-73.2,10.4-13.9-.7-28.1-6-41.7-6.2-13.3-.2-26.6,6-39.7,4.3-2.7-3.6-8.4.2-11.9-4.4,13.5-3,46.9,1.4,56.9-11.1-15.6-.5-29.9-1.4-36.2-17.9,2.2-7.5,21.1,5.1,28.2,1.9-4.1-2.3-7.9-3.8-7.2-8.6,16.5,8.8,35,9.9,52.7,14-.4,2.1-.8,4.1-1.1,6.2-1.1-1.8,37.8,4.2,38,4.2,13.2-1.8,20.1-16.8,35.9-14.6-1.3-10,9.1-4.2,11.8-9.2-.1-1.8-1.5-2.3-2.8-2.9,3.5-3.2,8.4-4.4,11.4-8.3,14.8-10.5,27.2-22.5,28.8-42,7.7-6.6,5.4-82.4-7.6-81.1-.1-1.7-.3-3.4-.4-5.2-2.3-9.9-6.6-19-10.2-28.4-1.8-14.3-9.2-26.5-15.2-39.1-5-10.5-7-10.2-14.7-2.4v-.3c-.7-.5-1.2-.9-1.8-1.4,0-3.6-2.5-3.9-5.2-3.9-4.9-3.4-10.8-4.5-16.2-6.7-5.4-10.1-8.5-62.6-20.8-62.8,1.3-2.1,2.6-4.2,4-6.3,4.1-5.6,8.2-11.2,12.3-16.8-5.6,0-10.2,3.9-12.8-3,4-7.3,8-14.7,12-22,13-2.1-13.3-6.7-12.6-6.4.8-2.2,1.6-4.2,2.3-6.2,1.2-.9,2.5-1.8,3.7-2.7.7,2.1,1.8,2.8,3.5.9,2.2-2.5,3.8-5.7,7.1-7.2,2.2,2.6,3.7,7.4,8.2,5.3,3.2-1.5,6.5-1,9.5-2.5,5.5,1.4,7.8-4.7,12.5-5.2-.1,2.5-.6,5.1,2.2,8.6,10.6-5.1,21.4-10.4,31-18,7.6-3.3,15.3-6.5,22.9-9.8,4.6-2,10.1-2.5,13.3-7.2,1.3-.6-21-27.4-31.1-25.1-8.2-3.2-17.3-1.9-25.5-5.4-.5,1.3-1.4,1.6-3.2,1.1-4.3-5.4-28.5-19.6-27.4-24.2,16.8,8.5,33.3,18.7,51,7.4,9.1-.1,22.2-2,30.7,3.1,6.9,4.2,7.6,14.2,14.6,17.9,26.4,26,12.5,40-18.1,56.4,9.2,13,13.4,53.5,12.8,69.9-7.2,7.6,6.7,29.7,4.3,40.9-3.4,15.7-20.1,23.8-19.5,39.6.2,4.7,19.7,30.1,7.7,36.2-5.7,2.9-17.6-14.8-22.6-16.7,6,15.6,15.8,27.4,18.1,42.2ZM745.7,726c7.6-2.5,10-8.7,10-15.6,0-6-1-12.3-8.4-14.4-9.9-4.1.9-7.2.7-11.6-4,3.2-7.2-1-11-.3.7-6.1,6.2-13.3-3.9-16.8,0-4.6-2.2-10.1,5.2-10.5-6.1-11.4-30.9,3.9-28,16-7,4.5-16.6,4.4-21.7,12.3-5.1,6.2-3.7,10.2,3.2,12.8,6.8,2.5,13.5,1.2,20.3,1.7,3.4,3.7,9.3-.9,12.6,3.6-1.1,1.9-4.3,2.2-3.8,5.2-8.2,3.3-16.4,6.5-24.5,10.1-2.2,1-6.2.8-5.4,5.2-3.6,8-7.5,12.7,8.3,12.8,11.5,8,23.3,3.6,34.9.5,5.4-1.4,11.5-3.3,11.5-11ZM691.9,763c13.3,8.5,61.3,19.6,63.8-5.2,1.9-19-55.5-2.6-63.8,5.2Z"/>
  <path class="cls-107" d="M552.1,1013.7c6.3,16.4,20.7,17.4,36.2,17.9-10,12.6-43.4,8.1-56.9,11.1,3.5,4.5,9.2.7,11.9,4.4-16.7,3.4-33.6,2.7-50.4,2.6-29.2-.3-58.2-1.8-86.6-9.3,0-.7,0-1.4.1-2,14.9,2.6,27.3-4.8,42.3-3.2-6.8-5.8-16.7-3.3-24.2-9.5-1.4-10.3,14.3.5,18-1.1,20.3-9,1.8.1,11.1-23.5-6.6-20.9-11.9-42.1-14-64.1,1-4.4,3.4-4.7,6.9-2.3-11,56.4,19.5,16.8,16.8,13.5-2.8-1.1-2.9,3.8-6.2,2.5-10.7-11.3-10.7-38.1-11.3-52.6-.4-10.9,7.9-38.7.5-48.1,19.6,3.9,22.2-23.1,26.8-36.5,2.2-4.1,4.6-8,7.2-11.8,10.1-15.1,24.1-26.4,36.7-39.1,2.2-3.7,4.9-6.9,8.8-8.8,4.5-2.3,7.2-7.2,12.3-8.8,4.1,20.1-36.2,24.2-31.9,49.1,2.8,2.7,4.4-2.4,6.7.2,1.9,4.3-4.1,6.3-2.9,10.3-2.5,2.8-1.8,7.3-5.3,9.5-2.9-1.7-6.4.7-5.9,2.1,2.7,8.1-5.2,11.9-6.4,18.2-16.4,23.6-17.9,49.8-14,77.1-13.2,12.9,35.1,75.1,51.3,73.8,4.5,1.3,7.6,4.1,8.7,8.8,0,3.2-.5,6.4-.1,9.4.5,3.5-2.5,8.4,3.4,10.1,3.5,0,7,0,10.5,0Z"/>
  <path class="cls-106" d="M406.4,1038.3c0,.7,0,1.4-.1,2-28.8-5-56.3-14.2-83.1-25.5-10.3-4.4-21.7-6.4-30.9-13.4-9.6-7.5-21-12-31.4-18.2-3.6-2.7-7.2-5.4-10.8-8.2,13.8-2.7,53.1,22.6,67,29.3,29.1,14,59.1,22.3,89.3,33.9Z"/>
  <path class="cls-265" d="M260.9,983.2c10.4,6.2,21.7,10.7,31.4,18.2-12.6,3.7-26.7-1.9-31.4-18.2Z"/>
  <path class="cls-24" d="M783.7,599.4c-7-3.7-7.6-13.7-14.6-17.9-8.5-5.2-21.6-3.2-30.7-3.1-11,.7-20.9-2.3-30.6-8,2-1.5,3.2-2.5,4.4-3.4-4.3-5.6-12-.4-15.9-5.9.4-1.8,1.7-2.9,3.2-3.9,15.4-16.2,14.9-34.3,5.5-53.4,38.3-12.7,83.1-34,88-80.2,7-66.3-62.5-43.6-100.4-43.8h0c-1.4-11.8-3.1-23.6-10.6-33.5-1-2.9-2.1-5.9-3.4-9.5,21.5-2.8,42.9-4.4,59.5-20.1,3.9-1.7,5.6-5.8,9.4-8.7,13.1,11.5,22,26.8,34.4,38.9,24.5,29.4,43,66.9,57.5,102,15.5,37.6,17.1,78.1,30.5,115.4,2.5,22.8,1.6,45.7,1.8,68.5-2.4,18.1-4.8,36.2-7.3,54.3-1-1.1-1.9-2.3-2.9-3.4,2-10.1,3.8-20.2-5.4-28.2-3.9-5.1-9.8-7.2-15.4-6.3-16.8,2.7-32.3,8.3-39.7,25.8-1.9-2.1-3.8-4.2-5.5-6.1.8-3.4,6.2-5.1,2.2-9.4-5.7,1.1-7.3,8.1-13.9,9.3-.5-10.6,8.7-14.9,11.6-22.9,1.1,3.7,3.5,5.6,7.2,5.7,8-4.3,6.1-57.3-19-51.9ZM855.7,525.6c-8.2-40.4-68.9-25.1-64.1,15.1,3.6,30.6,56.1,60.9,69.4,19.9,2.2-12.3-1.3-23.7-5.3-35ZM754.3,534.6c-8.4,4-12.1,22.1.3,24.2,16.7,2.8,5.9-20.3-.3-24.2Z"/>
  <path class="cls-212" d="M861.6,683.6c1,1.1,1.9,2.3,2.9,3.4-12.1,73.2-44.8,136.4-93.1,192.7-2.6-4.2-2.1-8.8-5-11.8-2.3-14.8-12.1-26.6-18.1-42.2,4.9,1.9,16.9,19.6,22.6,16.7,11.9-6.1-7.6-31.5-7.7-36.2-.6-15.7,16.1-23.8,19.5-39.6,2.4-11.2-11.5-33.3-4.3-40.9,4.6-14.9,11.6-29.2,9.5-46.2,5.1,2,1.9,4.8,3.9,6,1-.6,1.9-1.2,2.9-1.8-8.4,35,26.9,57.9,51.1,24.7,8.3-6.3,12.1-15.6,15.8-24.8Z"/>
  <path class="cls-102" d="M871.8,632.7c-.2-22.8.7-45.7-1.8-68.5,12.1,14.7,5.3,53.1,5.3,70.9-1.7-1.2-2.6-1.8-3.5-2.4Z"/>
  <path class="cls-145" d="M692.7,378.8c37.9.2,107.4-22.5,100.4,43.8-4.9,46.2-49.7,67.5-88,80.2,9.5,19.2,9.9,37.2-5.5,53.4.2-3.1,13.9-52.2-.6-45.1-7.7,10.6,5.1,17.4.8,28.6-2.7-9.1-7.2,1.8-10.4-3.4,1.4-3,1.9-6.3.7-10.3-.9,2.7-1.8,5-2.6,7.3,0-4.9,1.5-10.4-3.9-13.9-5.1,4.1-9,9.6-15.8,10.3-6.6-7.2-40.7,10.1-40.4-8.3,17.9,7.3,1.5-15.7-1.8-19.4.2-8.1-20.7-19.9-26.6-17.3-1-5.9-52.7-15.6-54.1-9.3-5.5.2-4.5,7-8.7,8.6-10.8-7-19.6-16.2-28.6-25.2-9.3-9.3-19.7-13.9-32.8-11.4-1.9-1.1-4.5,1.2-6.4-1.4,12.1-9.7,25.8-8.4,40.3-5.6,14.9,5.1,29.5,10.1,44.3,15.1,16.6,8.2,34,14.2,51.8,18.8,28.5,7.3,57.4,8.8,86.4,3,17.4-1.8,33.3-7.7,48-17,3.6-2.3,6.9-5,8.1-9.4,7.4-5.3,12.6-12.2,15.8-20.8,6.6-5.4,4.2-13,5-19.9-4.9-21.8-26.3-14.1-42-12.4-8.9,1-52.9-3.6-58.8,3.7l-6.3-1.7c-.9-4,3.2-4.2,5-5.9,2.8-2.7,3.2-5,1.3-8.3.8-2.2,1.1-3.2,1.9-5.4,3.7-1.2,6.9-3.5,9.5-7-7.8-8.3,2.1-18.9,3.4-28.2,7.5,9.9,9.2,21.7,10.6,33.5-1.7,0-3.5,0-4.4,0-.6,8.8,15.4,23.8,21.2,10.7-5.7-5.5-14.3-5-16.8-10.8Z"/>
  <path class="cls-175" d="M340,320c-.6-5.5,5.7-6.3,7-10.5,91.3-65.1,194.9,11.7,287.7,23.1.6,9.1-129.2-26.1-142.3-28.2-33.7-.2-67.4-1.7-101.4,5.3.2-23-40.9,8.6-51,10.4Z"/>
  <path class="cls-188" d="M383.5,237.4c26.1-2.1,52.2-2.5,78.2,1.8,14.1,2.4,27.6,6.7,41.3,10.5,6.2,2.4,12.4,4.9,18.7,7.3,21.4,8.2,41.9,18.9,63.8,26.1,2.8,2.7,6.6,3.4,10.1,4.7,13.6,4.9,27.2,9.8,40.9,14.7,2.6,7.7-40.6-7-46.4-9.1-26.7-9.8-52.4-22.4-79-32.6-50.6-19.4-102.4-22.3-155.4-10.6-1.2-2.5-2.8-4.5-6-3.9,10.8-5,22.5-6.3,33.9-8.7Z"/>
  <path class="cls-251" d="M492.4,304.3c13.1,2.1,142.9,37.3,142.3,28.2,1.3,0,2.5-.1,3.8-.2,0,.6.2,1.3.2,1.9,2.4,4.9.6,6.4-4.5,6.8-7,.6-14.2-1.7-21,1.5-10.2-.6-19.5-5.4-29.6-6.5-22.2-7.2-44.4-14.3-66.6-21.5-8.9-3.7-18.2-5.4-27.9-5.2-.2-.5-.4-1-.5-1.4,2.2-.2,3.6-1.3,3.8-3.6Z"/>
  <path class="cls-274" d="M532.6,255.8c6-2,12.7-2.3,18-6.6-1.3-1.5-2.6-2.9-3.8-4.4.7-.1,1.4-.2,2.1-.4,4,1.2,8,2.4,12,3.6.8,1.6,2.3,2.4,3.8,3.4,12.5,8.1,27.2,11.4,40.5,17.5-5.3.7-10.1-.5-15-2.4-8.2-3.1-16.2.3-24.1,2.7-11.2-4.5-22.3-9-33.5-13.4Z"/>
  <path class="cls-203" d="M605.2,269c-13.4-6.2-28-9.4-40.5-17.5-1.5-1-3-1.7-3.8-3.4,4.1,0,8.2,0,12.3.1,1.8.5,3.6.9,5.4,1.4,17,8.3,35.5,12.2,53.2,18.5.6.2,1.6-.5,2.4-.8,1.7,3,3.9,4.5,7.3,2.7.5,1.6.9,3.2,1.6,5.4-13.9,2.8-25.3-5.7-37.9-6.4Z"/>
  <path class="cls-263" d="M349.7,246.1c3.2-.5,4.8,1.4,6,3.9-9.8,4.7-64.3,35.4-72.8,32.8,2.8-7.1,9.6-9.9,15.3-13.5,16-10.1,32.8-18.9,51.5-23.2Z"/>
  <path class="cls-160" d="M532.6,255.8c11.2,4.5,22.3,9,33.5,13.4,7.9,3.4,15.8,6.8,23.6,10.3-1.7.8-5.9-1.3-4.2,3.5-21.9-7.2-42.3-17.8-63.8-26.1-6.2-2.4-12.4-4.9-18.7-7.3,2-2.3,4.8-1.1,7.2-1.6,7.5,2.6,14.9,5.2,22.4,7.8Z"/>
  <path class="cls-277" d="M638.7,334.3c0-.6-.2-1.3-.2-1.9,7-1,11.5,3.1,15.1,8.2,8.6,12.3,14.1,25.8,15,41-.3,1.9-.6,3.7-.8,5.6-7-8.8-8.1-20.3-13.8-29.7-4.8-7.9-7.2-17.3-15.2-23.1Z"/>
  <path class="cls-269" d="M724.4,278c-2.1.3-37.4-15.5-39.4-17.2,7.2-.5,47,.3,39.3,17.3,0,0,.2-.1.2-.1Z"/>
  <path class="cls-75" d="M46.4,560.7c-.1-3.7-.2-7.5-.3-11.2,1.9-33.4,12.2-64.8,22.6-96.3,3.4-10.5,7.4-20.8,11.2-31.2.4-.2.9-.3,1.4-.3,6.6,13.1-13.9,47.2-17.9,60.3-8.1,26.1-10.3,52.5-16.8,78.7Z"/>
  <path class="cls-41" d="M622.5,58.3c2.2.2,4.4.3,6.7.5-.7,1.7-3.5.7-3.8,3.3,7.6,5.1,16.7,6.9,25.1,10.3,7,10.2-8.3,45.1-11.5,57-6.5,23.9-14.2,46.4-16.6,71.3-21.9-6.7-44.1-12.1-66.7-16-3.4-38.7,35.5-103.2,5.5-137,15.4-.8,30.2,3.5,44.6,7.8,5.7,1.7,11.1,2.7,16.8,2.7Z"/>
  <path class="cls-60" d="M622.3,200.9c2.4-24.9,10.1-47.4,16.6-71.3,3.2-11.9,18.5-46.8,11.5-57,4.9-1.3,8.7,5.2,13.8,1.9,3.9,2.4,7.8,4.7,12.2,7.3-.8,2.3-1.6,4.6-2.5,6.8-29.5,23.2-23.1,84.9-39.4,115.8-4.3-.3-8.4-1.5-12.2-3.5Z"/>
  <path class="cls-275" d="M573.2,248.2c-4.1,0-8.2,0-12.3-.1-4-1.2-8-2.4-12-3.6-19-10.6-38.5-19.9-60-24.3l-.7-.4s-.8.1-.8.1c-7.1-4.3-15.8-3.4-23.2-6.7-2.8-7.7,5.5-3.2,6.7-5.9-11.7-8.8-49.1-11.7-62.7-4.9-2.9.2-5.4-.2-6.9-3.1,5.7-4.9,13.4.7,19.3-3.6,7.5-.1,15.1-.2,22.6-.3,3,3.5,7,3.4,11.1,3.6,17.4.8,35.1-1.9,52.3,3.6-8.4,18.9,62.2,33.2,66.8,45.7Z"/>
  <path class="cls-194" d="M634.5,204.4c16.3-30.9,9.9-92.6,39.4-115.8-13.7,35.7-25.7,71.9-34.7,109-.7,2.8-.8,5.7-1.2,8.6-1.5.2-2.6-.7-3.4-1.8Z"/>
  <path class="cls-229" d="M506.5,201.8c-17.1-5.5-34.8-2.8-52.3-3.6-4.1-.2-8.2,0-11.1-3.6,3.4-7.5,72.7-.5,79.8,1.6-4.8,0-9.5,0-15.6,0,4.7,4,11.1-1,13.2,5.4-1.2.2-2.4.3-3.6.5-3.5-.1-7-.2-10.5-.3Z"/>
  <path class="cls-171" d="M420.2,996.3c2.9-7.2-2-13.2-3.4-19.7-3.7-18.2-8-36.2-12-54.3-2.7-64.7,2-120.8,13.7-184.3,13-45.3,33.9-89.9,67.5-124,17.3-17.5,35.8-30.8,57.7-41.6,8.2-4,24.2-5,24.6-16.9.2-6.7-11.8-10.3-11.3-17.8,1.7.2,3.5,0,5.1.6,17.3,5.8,34.9,10.2,53.1,11.8-3.2,3.5-8.3,0-12.7,3.4,19.1-.9,32.7-3.7,38.8,8.5-10.9-.8-51.3,5.2-57.9-3.1.6,4-6.7,18.2-1.7,19.1-3.2,4.7,0,10.8-3.4,15.5-2.3-7.4-48.1,21.6-53.3,25.6-21.8,16.9-36.5,38.2-51.8,60.9-11.4-2.1-11.2,27.8-25.8,22.3-2.1,6.2,5,6.4,5.6,11.1-8.4,2.4-31.2,95.8-17.2,94.7,0,8-9.2,75.1.2,79.3-.2,16.6-.4,33.1,3.4,49.4,2.1,21.9,7.5,43.1,14,64.1-11.5.7-22.4-2-33.4-4.7Z"/>
  <path class="cls-209" d="M341.1,897.7c2.4,10.4,6.5,20.2,10.4,30.1,6.4,16.1,12.8,32.1,21.5,47.1,1.5,3.5,3.1,7,4.6,10.4-4.5-1.2-9-2.3-13.4-3.5-1.7-2.2-1-6.3-4.8-6.7-9.5-1-16.6-7.5-25-10.8.3-3.4-.6-6.1-3.3-8.5-9.5-8.7-14.1-20.5-19.6-31.7-2.7-8.5-6-16.9-8.1-25.6-2.8-12.1-9.9-23.1-9.7-36,6.9-.9,4.7,5.2,5.9,8.7,2-1.2.7-4,3.7-4,2.7,3.5-1.4,6.9-.6,10.4,9.3,6.9,13.1-5.4,15.9-10.1,1.8,5.2,2.6,10,8.4,9.1,2.9,2.2,3.4,5.9,5.4,8.7,2.9,4,2.7,10.3,8.5,12.3Z"/>
  <path class="cls-66" d="M334.4,964.5c8.5,3.3,15.5,9.8,25,10.8,3.8.4,3.1,4.5,4.8,6.7-27.2-9.3-53.1-21.4-76.9-37.6-3-2.1-7.5-2.1-9.2-6.1-1.1-1.8-2.2-3.6-3.3-5.4,19.3,5.4,40.2,30.7,59.6,31.7Z"/>
  <path class="cls-11" d="M58.7,764.1c3.2-9.5,3.4-20.9,15.6-24.6,2.8-.9,1.4-3.4,2.4-5,1.6-.6,2.6-1.7,3.1-3.3,6.2-.1,8.9-5.1,11.6-9.3,10.5-16.2,23.2-30.5,37.2-43.8,6.7,8.3-15.7,9-5.7,19.7,2.1-7.1,9.1-8.5,12.6-13.4,2.8,0,1.9,4.2,6,3.1-2.1-12.3,7.9-16.7,16.3-22.6,11.6,4.3,3.2,20.1,11.7,22.1-.3,5.2-7.5,8.5-3.9,15.5,4.6-4,6.9,2.7,11,2.1-15.9,13-36.9,20.5-55.2,29.3-15.9,7.7-45.5,32.1-62.5,30.1Z"/>
  <path class="cls-224" d="M176.4,704.7c-4.1.6-6.4-6.1-11-2.1-3.6-6.9,3.6-10.2,3.9-15.5,7.5-3.3,14.2-10.5,25.2-1.7-3.4-12.6,10.4-16.5,7.2-27.1-16.4-15.9,9.4-11.7,8.5-7.6-1.7,2.4-5.7-.2-6.5,3.9,6,2.2,10-.8,14.7-4.2-4.9-8.2,8.8-32.8,17.6-33.6,4.7,4.8-1.6,10.9,1.9,15.8.5,4.3-.9,8.3-1.7,12.4-.4,4.3-4.1,7.6-3.7,12.2-11.4,13.8-23.2,27.1-38.4,37-5.7,3.7-10.7,8.7-17.6,10.4Z"/>
  <path class="cls-174" d="M232.4,657.2c-.4-4.6,3.3-7.9,3.7-12.2,6,.9,7.9,5.5,8.6,10.5.9,6.5,1.1,13.1,1.6,19.7-4.7,1.2-4.1,5.7-5.3,9-2.2,6.2-4,12.6-7.3,18.4-1.9-10.9-.9-38,3.4-48.5-2.8,1.9-3.7,2.5-4.7,3.2Z"/>
  <path class="cls-202" d="M293.8,862.7c-.2,12.9,6.8,23.9,9.7,36,2,8.7,5.3,17.1,8.1,25.6-4.1,0-5-3.3-6.5-6.1-8.9-16.2-17.9-32.3-26.8-48.5-1.7-12.4-10-22.2-12.9-34.2-1.2-5.1-3.1-10-4.6-15,8.4,9.9,12.9,40.4,25.3,45.4-2.4-17.9-9-33.8-7.9-50.8,2.2,2.8,2.9,6.2,3.4,9.6,1.5,9.4,3.4,18.6,7,27.4.7,4,2.5,7.5,5.2,10.5Z"/>
  <path class="cls-87" d="M207.9,511.3c-5.1,7.6-5.8,16.8-9,25.1-4.7,12.3-8.2,24.9-8.5,38.1-.9,1.9-2.2,3.5-4.7,3.5-8.3-18.7,15.9-50.7,17.1-67.5.8-11-6.7-13.2-8.4-21.5-1-5.3,6.5-7.3,1.3-12.6,6.2-12.6,14.8-23.6,22.1-35.4,3.8-6.2,10.3-11.1,10.9-19.2,2-2.8,3.9-5.6,5.9-8.3,7.1-2.6,11-8.9,16.1-13.7,8.4-7.9,15.5-17.2,25.2-23.7-1.2,5.5-1.1,11.3-4.9,16-21.3,2.8-39.1,35.4-35.1,52.7,0,.6.1,1.2.2,1.8-.1,1.6-.3,3.3-.4,4.9-3.5,0-5.5,1.9-7.4,4.8-4.8,7.3-7.2,15.4-10,23.4-6.3,9.6-7.9,20.8-10.5,31.7Z"/>
  <path class="cls-9" d="M492.4,304.3c-.2,2.3-1.6,3.4-3.8,3.6-18.1,0-36.2-1.9-54.2,0-21.8,2.3-43.1,6.6-63.3,15.6-17.5,5.6-34.7,11.9-50.7,21.3-1.3-.6-2.5-1.3-3.8-1.9,1.8-2.6,4.4-4.9,3.8-8.6,6.5-4.7,13-9.5,19.5-14.2,10.1-1.8,51.2-33.4,51-10.4,34-7,67.7-5.5,101.4-5.3Z"/>
  <path class="cls-53" d="M192.1,483.2c-4.6,15.7-31.4,87-45.9,91.3,7.7-25.1,18.1-49.1,30.9-72.1,3.1-5.5,5.6-11.4,8.4-17.1,2.2-.7,4.4-1.4,6.7-2.1Z"/>
  <path class="cls-253" d="M320.5,334.3c.6,3.7-2,6-3.8,8.6-3.8.3-5.9,3.4-8.6,5.5-10.7,8.6-21.2,17.5-31.8,26.3-2.4-3-4.8.2-7.2-.2,2.1-14,39-40,51.4-40.3Z"/>
  <path class="cls-184" d="M192.1,483.2c-2.2.7-4.4,1.4-6.7,2.1-1.7-6,34.3-63.7,43.4-63.6-.6,8.1-7,13-10.9,19.2-7.3,11.8-15.9,22.9-22.1,35.4-1.3,2.3-2.5,4.6-3.8,6.8Z"/>
  <path class="cls-206" d="M269.2,374.5c2.4.3,4.9-2.9,7.2.1-.2.4-.3.9-.4,1.4-9.7,6.6-16.7,15.9-25.2,23.7-5.1,4.8-9.1,11.1-16.1,13.7-.4-6.3,5.3-8.7,8.6-12.3,8.3-9.2,15.2-19.8,25.9-26.6Z"/>
  <path class="cls-5" d="M464.2,213.1c7.4,3.4,16.1,2.4,23.2,6.7-27.8,3.8-55.6-5.3-83.1-7.1,1.3-.6,2.6-1.3,3.9-1.9,16.3.6,32.7,1.2,49,1.8,2.3.1,4.6.3,6.9.4Z"/>
  <path class="cls-260" d="M408.2,210.9c-1.3.6-2.6,1.3-3.9,1.9-3.5,0-45.4-.2-27.9-8.7,13.7,6.6,30.9-2.6,45.8,2.4-5.9,1.8-10.4,1.7-14,4.4Z"/>
  <path class="cls-7" d="M488.9,220.1c21.5,4.4,41,13.7,60,24.3-.7.1-1.4.2-2.1.4-4.4-1.6-7.7,6.8-12.6,1.5.7-2.7,3.2.6,4.2-1.3.8-14.2-47.5-12.3-49.5-24.9Z"/>
  <path class="cls-240" d="M79.8,731.2c-.5,1.6-1.5,2.8-3.1,3.3-3.5-6.8-1.7-12.3,2.6-18.4,10.7-15,19.6-31.3,32.1-45.1.6.2,1.2.3,1.8.5.4,1.7-2.7,4.6,1.7,5-8,10.8-16.3,21.5-24,32.5-4.7,6.8-10.2,13.4-11,22.2Z"/>
  <path class="cls-79" d="M235.9,616.9c-8.8.8-22.6,25.3-17.6,33.6-4.6,3.3-8.7,6.4-14.7,4.2.9-4,4.8-1.5,6.5-3.9.9-4.1-24.9-8.3-8.5,7.6,3.3,10.6-10.6,14.5-7.2,27.1-11.1-8.8-17.8-1.6-25.2,1.7-8.5-2,0-17.9-11.7-22.1-8.4,5.8-18.4,10.2-16.3,22.6-4.1,1.1-3.2-3.1-6-3.1-3.5,4.9-10.5,6.2-12.6,13.4-10-10.6,12.5-11.3,5.7-19.7,15.8-18.4,35.1-32.3,55.9-44.4,3.2-1.9,8.2-2.6,7.9-8.1,5.2-2.2,9.8-4.5,16.1-4.4,11.6,0,17.8-7.7,15.3-16.2,2.3-1.4,4.5-2.7,6.8-4.1,0,0,.6.3.6.3,3.2,4.8,2.7,10.6,4.8,15.7Z"/>
  <path class="cls-156" d="M223.7,604.9c2.4,8.5-3.8,16.2-15.3,16.2-6.3,0-10.9,2.3-16.1,4.4-4.7-.4-8.8,1-13.1,3-4.8,2.2-9.1,5.8-14.7,6.1-1.6-.9-2.1-2.3-2.3-4,19-12.1,39-22,61.5-25.8Z"/>
  <path class="cls-97" d="M162.2,630.7c.2,1.7.7,3.1,2.3,4-1.7,3.3-5,4.8-7.8,6.7-15.3,10.1-28.5,22.7-41.8,35.1-4.3-.4-1.3-3.3-1.7-5,2.8-3.2,7.6-5,7.2-10.4,3.4-.1,4.9-2.9,6.9-4.9,10.3-10.4,21.8-19.1,35-25.5Z"/>
  <path class="cls-159" d="M235.9,616.9c-2.1-5.1-1.7-10.9-4.8-15.7,13.8-5.1-12.6-20.2-12.4-23,.5-6.8,10.2,0,9.9-7-.2-4.4-9.7-4-12.3-4.6,7.1-10.3-4.4-17.6-4.3-27.2.1-10.1,3.1-15.7,8.3-25.1-10-8.4-2.5-23.6-1.9-34.5,2.8-8,5.3-16.2,10-23.5,1.9-2.9,3.9-4.8,7.4-4.8,1.6,7.1-5.4,10.8-4.5,16.9.9,6.2,8.4,7.4,9.4,13.6-26.3,9.7,13.9,93.1,12.1,110.8-1.2.8-3.3,2.4-5.3,3.7,6.3,14.8-5.2,25.3,7.5,35.1,5.7,4.4,36.8,6.9,41.6.3,24.8,12.8,6.2,61.7,13.3,83.3-1.3,16.6,6,32.5,3.5,49.2-2.6,13.9,5,27,3.5,40.8-1.2,10.6,2.9,20,7,29.4-.4,4.3,1,8.9-1.4,13.9-2.6-3.1-2.5-7.9-7.3-6.8.8-8.1-6.9-13.3-7.3-21,.7-3.9-1.1-7.3-2.7-10.5-2.8-5.6-5.9-11-6-17.5-.5-10-18.2-110.4-28-112.6,0-1.7,0-3.5,0-5.2,7.3-11.5,1.6-15.9-4.7-22.5,4.1,4.3-33.6-19.7-28.6-19.7-3.5-4.9,2.8-11-1.9-15.8Z"/>
  <path class="cls-140" d="M271.2,674.8c0,1.7,0,3.5,0,5.2,0,1.8,0,3.6,0,5.4-1.7-.4-.8-3.5-3.4-3.2.3,14-8.2,71.9,3.5,82.1.1,3.8.4,7.5,1,11.3,2.3,13.1,4.1,26.4,6.1,39.5-1.2,17,5.5,32.8,7.9,50.8-12.5-5-16.9-35.5-25.3-45.4-9.6-35.1-15.3-70.7-14.4-107.2,0-8.2.2-16.3.3-24.5,9.2,5,3.4,40.3,3.4,48.2,5.6-5.4,1.3-11.3,5.6-14.5,8.1.9,2.4,9.7,8,13.6,1.4-23.7-1.6-46.3,3-68.9,3.7,1.7,1.6,5.9,4.4,7.5Z"/>
  <path class="cls-92" d="M464.2,213.1c-2.3-.1-4.6-.3-6.9-.4-15.4-10.2-32.3-6.7-49.1-10.4,13.6-6.9,51.1-3.9,62.7,4.9-1.2,2.7-9.4-1.7-6.7,5.9Z"/>
  <path class="cls-266" d="M271.2,674.8c-2.8-1.6-.7-5.8-4.4-7.5-4.6,22.6-1.7,45.2-3,68.9-5.6-3.9,0-12.8-8-13.6-4.4,3.2,0,9.1-5.6,14.5,0-8,5.8-43.3-3.4-48.2-1.6-4.5-1.2-9.1-.4-13.7-.5-6.6-.7-13.2-1.6-19.7-.7-5-2.5-9.6-8.6-10.5.9-4.1,2.3-8.1,1.7-12.4-5,0,32.7,23.9,28.6,19.7,6.3,6.5,12,11,4.7,22.5Z"/>
  <path class="cls-221" d="M622.5,58.3c-5.8,0-11.1-.9-16.8-2.7-14.4-4.3-29.1-8.6-44.6-7.8-5.3-5.7-13.6-5.8-19.5-10.3,10.5,1.9,21,3.7,31.4,5.6,14.4,3.8,29.1,6.2,43.1,11.4,2.4.9,5.3.7,6.3,3.8Z"/>
  <path class="cls-30" d="M664.2,74.4c-5.1,3.3-9-3.2-13.8-1.9-8.4-3.5-17.5-5.2-25.1-10.3.3-2.6,3.1-1.7,3.8-3.3,11.9,4.8,24.4,8.2,35.1,15.6Z"/>
  <path class="cls-128" d="M437.3,887.6c-9.3-4.3-.2-71.4-.2-79.3-.3-9,3.6-17.3,4.1-26.2,8.3-3.4,13.8-44.3,17.5-54.3,7-18.7,15.6-37.1,26.3-54,24.2-38.2,55.9-58.8,94.5-80.1,3.4-4.7.2-10.8,3.4-15.5,15.3-28.9,78.9,5.6,96.3-31.8,6.6-1.3,5.9-8.4,9.6-12.1.8-2.3,1.6-4.6,2.6-7.3,1.2,3.9.6,7.3-.7,10.3,3.2,5.2,7.6-5.8,10.4,3.4,4.3-11.2-8.6-18-.8-28.6,14.5-7.1.8,42,.6,45.1-1.5.9-2.8,2-3.2,3.9-4.3,2.2-5.6,6.9-8.9,10-1.1,4.6,23.1,18.8,27.4,24.2,1.8.5,2.7.2,3.2-1.1,8.1,3.5,17.3,2.1,25.5,5.4-34.4,11.2-52.3-7.9-85.6-.6l-11.3-1.4c-10-4.8-20.2-5-30.9-2.8,1.4,6.3,12.7,34.5,18.7,33.2,1.6,8,4.5,15.8,4.2,24.2-.6,3.2.4,5.7,3.1,7.5,0,3,3.2,2.7,4.4,4.5-.9,2-1.9,4-2.8,5.9-3.9.4-8-1.7-11.5,1.2v18.8c6.6.6,12.7,2.3,18.6,4.4-2.9,3.4,3.9,3,2.3,6-3,1.5-6.2.5-9.3.9-4.8-.3-2.3,8.1-7.3,6.6-5.8-1.7-7.5,2.4-10.2,5.5-2.3,0-4.3.4-6.5,1.7-17.4,10.7-32.8,23.8-46.9,38.5-2.8-.2-2.6,4.7-5.9,3.6-4.9.5-8.2,3.1-10.6,7.3l-.6,3.2c-10.8,3.8-17.6,12.4-24.8,20.6-1.8,0-3,1.3-4.5,2-6.8,3.3-8.8,11.9-16.1,14.4-1.2-4,4.9-6,2.9-10.3-2.2-2.6-3.9,2.5-6.7-.2-4.4-24.9,36-29,31.9-49.1,3.5-2.9,7.1-5.8,10.6-8.7,11.5-9.5,25.3-15.4,38.5-22.1-1.3-3.1-3-3-4.8-2.7,0-2-.5-3.7-2.2-4.9,0-15.5-46-74-52.9-44.5-2.3,2.4-4.1,4.2-6.3,6.6-6.2,2.1-3.2,9.1-8.4,12-4.4,2.5-4.8,6.9-4.1,11.5-2.9,5.3-2.7,10.6-.2,16-.6,0-1.2,0-1.7,0-2.1,0-5.7-5.4-7.9-5.8-4.1-.7-5.8,7.4-11.3,4.1,4.9-6.3,20.4-35.7,13.3-43.1-22.1,20.6-44.8,68.1-46.8,99.2-7.1,1.8-11.8,36.8-13.2,44-5.3,26.4-3.4,54.3-4.5,81ZM580.3,622.1c-7,4.1-14.1,8.2-21.1,12.3-3.7.3-6,2.8-8.9,5.7,9.5,7.6,18.6,14.9,28.9,23.2-.2-3.9-1.6-7.5,2.8-7.8,15.2,24.1,47.2,70.3,31.9,11.1,3.3-11.8-16.9-55.2-33.5-44.6Z"/>
  <path class="cls-208" d="M538.3,994.1c-1.1-4.7-4.2-7.5-8.7-8.8-25.2-21.2-33.9-47.3-51.3-73.8-4-27.3-2.4-53.5,14-77.1,4.8,6.6,5.5,14.5,7.1,22.1,1.9,9,3.5,18.1,5.3,27.2.2,6.3-.7,13,5.2,17.6,5.6,23,20.8,39.5,38.2,53.9,15.5,12.9,33.8,21.1,53.2,26.8,14.8,8.5,35.4,12.3,54.3,14.7,5.3,7.2,1.5,12.9-1.6,18.4,2.3,2.7,4.7,3.6,7.3,4-11.6,3.6-23.6.6-35.3,1.8-17.7-4.1-36.2-5.2-52.7-14-2.2-.1-4.5-.2-6.7-.4-8.2-6.9-17.6-11.1-28.2-12.5Z"/>
  <path class="cls-45" d="M676.5,785.8c5.4,2.2,11.3,3.3,16.2,6.7,5.7,8.6,9,18.3,12.2,27.9q5.1,11.3,12.2,2.4c6.2,4,1.5,18.1,12.5,16.8,3.6,9.4,7.9,18.5,10.2,28.4-3.2,1.9-5.4-1.6-8.2-2-1.3,6.9,1.2,13.8-2.8,20.7,1.4-23.7-17.8-17.4-29-21-1.5-3.7,2.4-8.5-3.6-10-2.5-3.8-7-4.7-10.5-7.1.2-2-8.2-21.6-8.5-22-7.6-12.8-5.1-11.5-23-18.2-8.4-2.9-8.1,19.6-8.2,20.2-26.6,4.5-32.4,8.2-40.1,25.1-5.7-15.5,16.7-14.5,11.4-26.1-8.5,10.9-14.2,2-20.5,18-18.5-2.4,8.2-19.6,3.2-24-5.2-4.5-20.2,18.4-29.3.1,1-1.9,4.2-.5,5-3.7-4.2-1-7.1-3.3-6-8.3,2.5-9.8,12.6-13.2,17.7-20.8,4.4-.8,1.9,5.1,5.2,5.3,9.4,3.4,33.7-20.8,33.4-30,4.5,1.8,6.8-2.4,10.1-3.8,11,3.7-9,18.7-9.5,19.3,8.7,7.2,12.1-8,19.5-2.5,4.9-11.2,11.8-31.4,2.9-41.2-.1-2.3-.2-4.5-.3-6.8,1.2-.2,2.3-.3,3.5-.5,14.5,8.9,4.5,53.5,24.5,56.8Z"/>
  <path class="cls-98" d="M696.2,855.7c6,1.5,2.1,6.2,3.6,10,11.3,3.7,30.5-2.7,29,21,3.9-6.8,1.4-13.8,2.8-20.7,2.8.4,5,3.8,8.2,2,.1,1.7.3,3.4.4,5.2-.6,8.4-.3,16.7,1.4,25-.6,2.2-1.2,4.4-1.8,6.6-9-10.6-5.8-7.9-21.2-10.1-8.7-1.2-28-1.6-29.5,10.2-1.7,1.7-3.4,3.5-5,5.2,1.6-9.4-5.6-15.4-9.1-22.7.9-3.6-1.4-6.5-2.5-9.5,9.7-9.2,23.4-5,23.7-22.2Z"/>
  <path class="cls-179" d="M794.7,683.7c-1,.6-1.9,1.2-2.9,1.8-2.1-1.2,1.2-4-3.9-6,2,17-4.9,31.3-9.5,46.2.7-16.4-3.5-56.8-12.8-69.9,30.6-16.4,44.5-30.4,18.1-56.4,25.1-5.4,27,47.6,19,52-3.7,0-6.1-2-7.2-5.7-2.9,8.1-12.1,12.3-11.6,22.9,6.6-1.2,8.2-8.2,13.9-9.3,3.9,4.3-1.4,6.1-2.2,9.4,1.7,1.9,3.6,4,5.5,6.1-2.1,3-4.3,5.9-6.4,8.9Z"/>
  <path class="cls-99" d="M691.9,763c8.3-7.9,65.7-24.2,63.8-5.2-2.5,24.8-50.4,13.8-63.8,5.2Z"/>
  <path class="cls-100" d="M657.2,599c33.8-7.8,51.7,11.7,86.4.4,10.1-2.3,32.4,24.5,31.1,25.1-4.2-1.6-9,.6-13-2.3-1.7-4.3-6.6-3.9-9.6-6.7-10-9.3-11.3-9.2-24.4-2.5-15,.6-30.3,3.5-43-8.2-.4-.4-1.7,0-2.5,0-4.4-1.6-8.8-3.6-13.4-1.5-5.6,2.5-8.8,0-11.5-4.4Z"/>
  <path class="cls-267" d="M651.5,694.3c-5.9-2.1-12-3.8-18.6-4.4v-18.8c3.5-3,7.7-.8,11.5-1.2.8,4.6,4.3,4.9,7.8,4.6,6.7-.5,13.4-.6,20.1.4-4,7.3-8,14.7-12,22-2.6-2-5.5-2.9-8.8-2.6Z"/>
  <path class="cls-76" d="M692.8,656.1c-3,1.5-6.3,1-9.5,2.5-4.5,2.1-5.9-2.7-8.2-5.3,1.3-2.1,1.8-4.3,1.7-6.8,5-4.2,5.7-10.1,4.7-15.6-1.5-7.7-1.1-15.3-1.1-23,6.7,8.2,11.1,17.6,13.5,29.6,2.3-6.4,4.3-11.8,10.9-14.5-3.6,6.8-7.1,9.6-1.6,9.5-2,8.5-7.8,15.2-10.3,23.4Z"/>
  <path class="cls-230" d="M625.9,1020.9c11.8-1.2,23.7,1.8,35.3-1.8,10.5.7,18.3-6.9,27.8-9,6.9.6,12.3-4,18.6-5.6,1.3.6,2.7,1.1,2.8,2.9-2.7,5-13.1-.8-11.8,9.2-15.8-2.1-22.7,12.8-35.9,14.6-.2,0-39.1-6.1-38-4.2.4-2.1.8-4.1,1.1-6.2Z"/>
  <path class="cls-31" d="M712,699.7c-6.8-.6-13.5.8-20.3-1.7-6.9-2.6-8.3-6.6-3.2-12.8,12.5,1.3,24.7-1.6,36.9-3.7,3.9-.6,7-1.5,7.5,3.7-1.8,2.7-2.3,8-5.6,7.9-6.5-.1-9.8,5.5-15.3,6.5Z"/>
  <path class="cls-65" d="M641.7,659.4c-2.7-1.8-3.7-4.3-3.1-7.5,9.9-4.9,7.8-15.2,9.4-25.9,2.9,6,4.4,9.6,7.4,12.3,7.7-4.1-1.8-12.3,5.5-16.2,1.2,5.3,2.4,10.5,3.6,15.8,0,7.2,0,14.4,0,21.6-1.2.9-2.5,1.8-3.7,2.7-4.1-.6-5.6-4.4-8.8-7.1-2.6,3.8-6.3,4.5-10.4,4.2Z"/>
  <path class="cls-205" d="M652,729c-1.2.2-2.3.3-3.5.5,0,0,.4-.5.4-.5,4-4.5-3.2-5.5-3-8.9-.7,1.2-1.3,2.3-2,3.5-1.3-1.7,1.7-5.1-2.4-5.6-3.1,2.2-3.8,5.9-5.3,9-6.1.6-8.3,5.9-11.8,9.7-3.7-3.1-1.5-6.2-.1-9.4,1.2-2.7,3-5.5-1.6-6.8.4-2.6,4-3.7,3.2-6.9,2.7-3.1,4.4-7.2,10.2-5.5,4.9,1.5,2.4-6.9,7.3-6.6,2.9,4.3,9.7,6,7.7,12.8,3.1,1.7,6.4.6,8.6,2.7-1.3,2.1-2.6,4.2-4,6.3-1.2,2-2.4,4-3.6,6Z"/>
  <path class="cls-196" d="M729.6,839.6c-11,1.4-6.3-12.7-12.5-16.8q-7.1,8.9-12.2-2.4c2-8.3-2.5-15.1-5.3-22.4,7.7-7.8,9.7-8.1,14.7,2.4,6,12.6,13.4,24.9,15.2,39.1Z"/>
  <path class="cls-256" d="M692.8,656.1c2.5-8.2,8.3-15,10.3-23.4,4.9-6.5,9.7-13,19.4-12.7,2.9,0,5.9-1.9,8.9-3,2.9.5,6.1-1,8.5,1.6-7.3,5.2-16.9,8.3-17.6,19.5-.5.5-1.1,1.1-1.6,1.6-1.2-1.9-2.3-4.1-5.2-4.3-5.5,3.7-6.6,10.5-10.3,15.5-4.7.5-7,6.6-12.5,5.2Z"/>
  <path class="cls-231" d="M741.7,898.1c-1.8-8.3-2-16.6-1.4-25,13-1.3,15.3,74.5,7.6,81.1-2,0-3.9-.2-5.9-.3,3.9-18.6,6.3-37.3-.3-55.8Z"/>
  <path class="cls-243" d="M699.3,736.5c-15.8,0-11.9-4.8-8.3-12.8,12.1,0,22.1-6.6,33.2-10-1.8,5.2-4.1,10.4,2.9,13.7-5.8,5.4-14.2-3.2-19.6,4,3.3,3.3,6.6,2.9,9.7,3.1-5.7,3.2-12,.5-17.9,2Z"/>
  <path class="cls-38" d="M733,685.3c-.5-5.3-3.6-4.4-7.5-3.7-12.2,2-24.3,4.9-36.9,3.7,5.1-7.9,14.7-7.8,21.7-12.3,8.2.7,15.7-1.8,22.8-5.5,10.1,3.5,4.6,10.8,3.9,16.8-1.3.4-2.6.7-4,1.1Z"/>
  <path class="cls-104" d="M687.5,571c3.3-3.1,4.6-7.8,8.9-10,3.9,5.5,11.6.4,15.9,5.9-1.2.9-2.5,1.9-4.4,3.4,9.7,5.8,19.6,8.7,30.6,8-17.7,11.4-34.2,1.1-51-7.4Z"/>
  <path class="cls-271" d="M733,685.3c1.3-.4,2.6-.7,4-1.1,3.7-.7,6.9,3.5,11,.3.3,4.4-10.6,7.5-.7,11.6-1.8,1.2-3.7,2.5-5.5,3.7-7.1,2.4-13.3,7.1-20.9,8.6-.5-3,2.7-3.3,3.8-5.2-3.3-4.4-9.2.1-12.6-3.6,5.5-1,8.9-6.7,15.3-6.5,3.3,0,3.7-5.1,5.6-7.9Z"/>
  <path class="cls-26" d="M720.8,639.7c.5-.5,1.1-1.1,1.6-1.6,7.2.9,12.4-3.3,17.7-7.1,6.5-4.6,15.4-3.2,21.5-8.8,3.9,2.9,8.8.7,13,2.3-3.2,4.7-8.7,5.2-13.3,7.2-7.6,3.4-15.3,6.6-22.9,9.8-5.8-.8-12.2,3.7-17.6-1.8Z"/>
  <path class="cls-242" d="M720.8,639.7c5.4,5.5,11.7,1,17.6,1.8-9.6,7.5-20.4,12.9-31,18-2.8-3.4-2.3-6-2.2-8.6,3.7-5,4.8-11.8,10.3-15.5,2.9.2,4,2.3,5.2,4.3Z"/>
  <path class="cls-47" d="M733,667.3c-7.1,3.7-14.6,6.2-22.8,5.5-2.9-12.2,21.9-27.4,28-16-7.5.4-5.3,5.9-5.2,10.5Z"/>
  <path class="cls-222" d="M652,729c1.2-2,2.4-4,3.6-6,12.3.2,15.4,52.7,20.8,62.8-20-3.3-10-47.9-24.5-56.8Z"/>
  <path class="cls-121" d="M641.7,659.4c4.1.3,7.9-.4,10.4-4.2,3.1,2.8,4.7,6.5,8.8,7.1-.8,2-1.5,4-2.3,6.2-.6-.3,25.6,4.3,12.6,6.4-6.7-1.1-13.3-.9-20.1-.4-3.5.3-7,0-7.8-4.6.9-2,1.8-3.9,2.8-5.9-1.1-1.8-4.5-1.5-4.4-4.5Z"/>
  <path class="cls-239" d="M720.8,708.4c7.5-1.5,13.7-6.2,20.9-8.6,1.5,3.3,4.8,5.9,3.4,10.1-1.8-1.3-3.6-2.7-5.6-4.1-3.5,6.1-10.8,4.1-15.4,7.9-11,3.4-21.1,10-33.2,10-.9-4.4,3.2-4.2,5.4-5.2,8.1-3.6,16.3-6.8,24.5-10.1Z"/>
  <path class="cls-39" d="M659.7,716.7c-2.2-2.2-5.5-1-8.6-2.7,2-6.8-4.8-8.5-7.7-12.8,3.1-.4,6.3.6,9.3-.9,1.6-3-5.2-2.6-2.3-6,3.3-.4,6.2.6,8.8,2.6,2.6,7,7.2,3.1,12.8,3-4.1,5.6-8.2,11.2-12.3,16.8Z"/>
  <path class="cls-163" d="M664.5,659.6c0-7.2,0-14.4,0-21.6,5.4-8.8,2.1-19,4.9-28.3,1.6.4,3.6-.5,4.6,1.5-6.8,4.8-5.1,26.9,2.8,35.4.1,2.4-.3,4.7-1.7,6.8-3.2,1.5-4.8,4.6-7.1,7.2-1.7,1.9-2.8,1.2-3.5-.9Z"/>
  <path class="cls-248" d="M745.1,709.9c1.4-4.2-1.9-6.9-3.4-10.1,1.8-1.2,3.7-2.5,5.5-3.7,7.4,2.1,8.4,8.4,8.4,14.4,0,6.9-2.4,13.1-10,15.6,0-.5-.3-.7-.8-.7,1.7-5.1,3.8-10.2.3-15.4Z"/>
  <path class="cls-112" d="M724.3,982.6c2.1,3.8-1.3,5.4-3,7.8-1.1,1.7-5.4,2.5-2.2,5.9-3,3.9-7.9,5.2-11.4,8.3-6.3,1.6-11.7,6.2-18.6,5.6.4-4.4,5.9-3.5,7.1-7,10.9-4.8,18.7-13.7,28.1-20.6Z"/>
  <path class="cls-132" d="M699.3,736.5c5.9-1.5,12.2,1.2,17.9-2,10.6,1,19.1-4.1,27.7-9.2.5,0,.7.2.8.7,0,7.7-6.1,9.5-11.5,11-11.6,3.1-23.4,7.5-34.9-.5Z"/>
  <path class="cls-61" d="M566.5,1006.6c2.2.1,4.5.2,6.7.4-.8,4.8,3,6.3,7.2,8.6-7.1,3.3-26-9.4-28.2-1.9-3.5,0-7,0-10.5,0,6.5-8.8,16-6.6,24.9-7.1Z"/>
  <path class="cls-216" d="M699.7,798.1c2.7,7.2,7.2,14,5.3,22.4-3.2-9.7-6.5-19.3-12.2-28,2.7,0,5.1.3,5.2,3.9.5.5,1.1.9,1.6,1.4v.3Z"/>
  <path class="cls-232" d="M699.5,797.7c-.5-.5-1.1-.9-1.6-1.4.5.5,1.1.9,1.6,1.4Z"/>
  <path class="cls-27" d="M436.1,887.6c1-26.8-.8-54.7,4.5-81,1.4-7.2,6.2-42.2,13.2-44-7.3,14.3,13.2,10.5,20.8,9.8-1.5-14.9,9.8-6.4,14.8-8.6,2.2-12.3-10.5-6.2-13.8-11.7,5-5.2,26.9-6.2,29.2-2.3,7.1-10.7,5.7-19.2-5.6-25.7,5.8-4.7,8.4-9.6,7.2-16,.6,0,1.2,0,1.7,0,2.3,5.6,2.3,11.8,4,17.6,3.1,10.2,10,18.2,13.6,28-3.9,1.9-6.6,5.1-8.8,8.8-1.6-6.9-8.1-6.9-13.6-10.7,1.5,7-30.2,52.9-37,56.4,1.6,3.3,1.8,7.5,6.7,5.2-4.6,13.4-7.2,40.4-26.8,36.5,7.4,9.4-.9,37.2-.5,48.1.6,14.5.6,41.3,11.3,52.6,3.3,1.3,3.3-3.6,6.2-2.5,2.6,3.2-27.8,42.8-16.8-13.5-3.5-2.4-5.8-2.1-6.9,2.3-3.9-16.3-3.7-32.8-3.4-49.4Z"/>
  <path class="cls-197" d="M525.8,753.8c-3.6-9.8-10.5-17.8-13.6-28-1.8-5.9-1.8-12-4-17.6-2.4-5.4-2.6-10.7.2-16,2.9,15.6,13.5,26.1,24.5,36,4.3,3.9,8.6,9.1,15.7,8.1-3.5,2.9-7.1,5.8-10.6,8.7-5.1,1.5-7.7,6.4-12.3,8.8Z"/>
  <path class="cls-80" d="M473.1,813.5c-4.9,2.3-5.1-1.9-6.7-5.2,6.8-3.5,38.5-49.4,37-56.4,5.5,3.8,12,3.8,13.6,10.7-12.6,12.6-26.6,24-36.7,39.1-2.6,3.9-5,7.8-7.2,11.8Z"/>
  <path class="cls-187" d="M504.1,883.7c-1.8-9.1-3.4-18.2-5.3-27.2-1.6-7.6-2.3-15.5-7.1-22.1,1.2-6.3,9.2-10.1,6.4-18.2-.5-1.3,3-3.8,5.9-2.1.3,3.3.6,6.6,5.5,5.5,4-.9,3.1,2.3,3.4,4.3-3.4,7.9-6.3,15.9-6.9,24.6-3.8,7.4-1,15.2-1.8,22.8,0,4.1,0,8.2,0,12.3Z"/>
  <path class="cls-72" d="M478.3,911.5c17.4,26.5,26.1,52.5,51.3,73.8-16.2,1.3-64.5-60.9-51.3-73.8Z"/>
  <path class="cls-181" d="M513.5,824c-.3-2.1.6-5.2-3.4-4.3-4.9,1.1-5.1-2.2-5.5-5.5,3.5-2.2,2.9-6.7,5.3-9.5,7.4-2.6,9.3-11.1,16.1-14.4,1.5-.7,2.7-2.1,4.5-2,.7,1.4,1.5,2.9,2.2,4.3-2.3,3.5-4.7,7-7,10.6-6.1,5.8-8.6,13.8-12.3,21Z"/>
  <path class="cls-169" d="M566.5,1006.6c-8.8.5-18.4-1.7-24.9,7.1-5.9-1.7-3-6.6-3.4-10.1-.4-3.1,0-6.3.1-9.4,10.6,1.4,20,5.6,28.2,12.5Z"/>
  <path class="cls-268" d="M861,560.6c-13.4,41-65.8,10.7-69.4-19.9-4.8-40.3,56-55.5,64.1-15.1-4.1.3-7.3-4.7-11.7-1.8-.7-1.8-2.3-1.8-3.8-2.2-7.5-9.4-21.1-9.5-27.9,0,1.1.8,2.2,1.6,3.3,2.4-14-.5-16.6,2.6-12,15.8,2.1,5.9,5.6,11.3,8.5,16.9,6,7.2,0,9.5,9.7,15.2,6.6,3.9,23,6.4,25.1-4.4h0c6.7,1.8,9.4-4.6,14.1-6.8Z"/>
  <path class="cls-71" d="M794.7,683.7c2.1-3,4.3-5.9,6.4-8.9,7.5-17.5,22.9-23.1,39.7-25.8,5.6-.9,11.5,1.3,15.4,6.3-6.2-1.7-12.8.9-18.5-2.8-1.7,2.8-.1,4.5.6,6.3-7,3.3-14.9,4.9-21,10.1-3.4,4.4-6.9,8.9-10.3,13.3-2.3,1.1-2.2,3-1.8,5,0,2.2-.2,4.4-.3,6.6-10.1,9.5,1.8,15.8,8.5,18.2,9.6,3.4,19-7.3,26.8-10.7-.5,4.2.5,7.2,5.6,7-24.2,33.2-59.5,10.3-51.1-24.7Z"/>
  <path class="cls-125" d="M838.4,658.8c-.7-1.8-2.3-3.4-.6-6.3,5.7,3.7,12.3,1.1,18.5,2.8,9.1,8,7.4,18.1,5.4,28.2-3.7,9.3-7.5,18.5-15.8,24.8-5,.2-6.1-2.8-5.6-7,5.2-4.1,7.8-9.3,7.2-16,2-1,1-3.2,1.8-4.6,6.7-11.9,3.1-19.5-10.8-22Z"/>
  <path class="cls-257" d="M754.3,534.6c6.2,3.9,16.9,27,.3,24.2-12.4-2.1-8.7-20.2-.3-24.2Z"/>
  <path class="cls-84" d="M844,523.7c4.5-2.9,7.7,2.2,11.7,1.9,4,11.4,7.5,22.8,5.3,35-4.7,2.2-7.4,8.6-14.1,6.7.8-1.5,1.6-3.1,2.5-4.6,1.2-1.7,2.4-3.4,3.6-5.1,1.9-.7,2.8-1.9,2.6-4,.4-4.7,2.4-9.5-1.4-13.8-2.1-.3-4-.8-3.3-3.6,1.1-4-1.4-6.4-3.7-8.9.6-2.6-3.5-1.2-3.2-3.6Z"/>
  <path class="cls-94" d="M661.2,400.9c2.1.6,4.2,1.2,6.3,1.7,2.7,7.1,10,4.4,14.8,6.8-17-1.8-33.8,9.4-50.7-1.1-.8,10.6,4.9,12,11.9,11.9.6,6,7.5,1.4,9.7,6.1-12.2,2.6-24.6-.8-37,2.1,9.1,13.8,81.4-8.7,85.8,8.4-5.9,2.7-12.8-.6-19.7,2.5,3.9,3,7.6,1.5,10.8,2.3-25.4,7.1-51.3,6.4-77,3.9-15.5-1.5-30.9-5-46.3-7.5-17.6-5.3-35.2-11.9-53.4-15.2-19.7-3.6-37.8,1.8-56.8-.5-3.6-2.9-7.9-1.5-12.3-1-.2-2.5-.4-4.4-.5-6.2,5.3-.4,10,2,16.1,2.9-2-5,5-4,5-8.2,5.1.4,10,1,15,2.5,6.3,1.9,13.6,2.8,20.1-.8,3.4-1.4,6.5-3.8,10.5-3.4,1.3-.5,8.9,4.5,13.1,4,13.4-1.8,10.8-13.3,19.1-19.8,9.8,10.1,9-9.9,11.3-12.9,16.3,15.4,39.1,16.9,48,3,5.3,3.4,9.2,2.9,10.4-4.1,15.2,12.7,5.4,23.2,28,21.1,5.8,2.1,11.8,1.9,17.8,1.7Z"/>
  <path class="cls-183" d="M585.5,462.4c35.8,5.1,73.1,7,108.8-.1,11.9-2.4,68.3-31.7,69-31.1-3.2,8.5-8.5,15.4-15.8,20.8-7.2,3-17.8-.3-20.2,10.7-10.8,1.4-21.6,1.7-29.8,11.4-1.7.2-4-2.3-6.5-.7-.6,1.2,3,1.4.7,2.9-2.7-.4-5.1-.8-8.9-1.3,3.3,3.1,6,3,8.6,3.4-29,5.7-57.9,4.3-86.4-3-13.2-3.4-26.2-7.6-38.8-12.8,2.1-2.8,4.1-.5,6.1.2,4.5,1.6,8.9,2.5,13.2-.3Z"/>
  <path class="cls-34" d="M595.1,521.8c-6.1-3-12.1-6-18.2-9.1-13.8-8.8-28.6-16.2-40.6-27.7,4.1-1.6,3.2-8.3,8.7-8.6,1.8,3.9,6.1,3.5,9.2,5.1,2.7,2.9,5.3,5.8,8,8.7,5.8,11,33.5,30.5,48.1,26.6,3,2.7,7.3,1,10.4,3.2l6.9,2.3c-.4,18.4,33.7,1.1,40.4,8.3-11.9,4.6-23.9,2.6-35.9.8-12-1.8-23.5-6.3-35.8-6.1-.4-1.2-.8-2.4-1.2-3.7Z"/>
  <path class="cls-148" d="M768.3,410.9c-2.8,1.7-5.8,2.1-9,1.8-1.2-8.9-8.2-8.8-14.2-7.9-10.4,1.6-20.6,5.1-31.4,4.4-9.4,0-18.8,0-28.2,0l-4.7-.8c-4.7-1.4-10.8.1-13.3-6.2,5.9-7.3,49.9-2.7,58.8-3.7,15.7-1.7,37.1-9.4,42,12.4Z"/>
  <path class="cls-19" d="M661.2,400.9c-6,.2-12,.3-17.8-1.7,2.5-5.1,6.3-28.8,5.7-33.4-2.7-20-9-23-30.3-22.8l-5.5-.4c6.8-3.3,14-.9,21-1.5,5.1-.4,6.9-1.9,4.5-6.8,8,5.8,10.4,15.2,15.2,23.2,5.7,9.4,6.8,20.9,13.8,29.7,1.6,3,1.1,5.3-1.6,7.8-1.8,1.7-5.9,1.9-5,5.9Z"/>
  <path class="cls-1" d="M446.7,431.2c1.3,7.7,7.4,4.2,11.5,3.6,13.8-2,27.5-2.7,41.2.6,1.5,2.6,6.8.5,7.1,4.6-13.6-2.2-26.6-2.9-38,5.5,2,2.3,4.5.3,6.4,1.3-5.5,2.6-11.6,2.7-17.6,3.1-7-1.4-14.2,4.3-21.2-.4,2-3.4,3.3-7,3.7-10.9.4-3.9,2.2-6.8,7-7.5Z"/>
  <path class="cls-8" d="M554.2,481.5c-3.1-1.6-7.3-1.3-9.2-5.1,1.5-6.3,53.1,3.4,54.1,9.3,5.9-2.6,26.8,9.2,26.6,17.3-4.9-2.5-9.6-5.3-14.7-7.3-4.7-1.8-9.7-6.1-14.7-.4-9.7-8-21.5-11.6-33.3-15-2.7-.8-6.3-1.8-8.8,1.2Z"/>
  <path class="cls-105" d="M596.3,495.3c5-5.7,10-1.4,14.7.4,5.1,2,9.8,4.8,14.7,7.3,3.3,3.7,19.8,26.7,1.8,19.4-2.3-.8-4.6-1.6-6.9-2.3.5-4.1-.7-7.2-4.4-9.6-6.3-4.1-12.4-8.6-18.5-12.9-.5-.8-1-1.5-1.5-2.3Z"/>
  <path class="cls-210" d="M691.4,478.4c-2.6-.4-5.3-.3-8.6-3.4,3.7.6,6.2.9,8.9,1.3,2.3-1.5-1.3-1.7-.7-2.9,2.5-1.7,4.8.9,6.5.7,8.2-9.8,19-10.1,29.8-11.4,2.3-11.1,13-7.7,20.2-10.7-1.2,4.4-4.4,7.1-8.1,9.4-14.7,9.3-30.7,15.2-48,17Z"/>
  <path class="cls-150" d="M506.5,441c-.3-4.5-5.5-2.3-7.1-5.1,13.4.4,25.2,6.4,37.1,11.7,15.8,7,32.5,10.4,49,14.8-4.4,2.8-8.8,1.9-13.2.3-2-.7-4-3-6.1-.2-19.9-7.2-39.7-14.3-59.6-21.5Z"/>
  <path class="cls-129" d="M692.7,378.8c2.6,5.7,11.2,5.3,16.8,10.8-5.8,13.1-21.8-1.9-21.2-10.7.9,0,2.7,0,4.4,0,0,0,0,0,0,0Z"/>
  <path class="cls-170" d="M517,202.8c1.2-.2,2.4-.3,3.6-.5,38.9,7.2,75.3,16,111,33.1-6.3,7.1-12.7-1.5-19.5,2.5,7.2,7.8,18.6,6.5,25,14.4-4.2,3.8-1.9,9.7-2.9,14.9-.8.3-1.8,1-2.4.8-17.7-6.3-36.2-10.2-53.2-18.5,5.2-2.1,12.9-6,13.7-11.9,2.6-18.9-17.4-4.9-24.9-8.1,1.4-4.3-9.1-15.3-11.5-16.7-7.7,1-38.8.3-38.9-10Z"/>
  <path class="cls-177" d="M613.3,342.6c1.8.1,3.7.2,5.5.4-2.6,3.3-3.7,7-3.5,11.4.3,7.9,0,15.8,0,23.7-1.2,7-5.2,7.5-10.4,4.1-8.9,13.9-31.7,12.5-48-3-2.3,3-1.5,23-11.3,12.9-8.2,6.5-5.7,18-19.1,19.8-4.2.6-11.9-4.4-13.1-4,1.7-1.4,34-16.1,20.6-24.8,5.2-13.8,3.5-27.1-3.4-39.9,7.6-3,14.2-10.3,24.3-5.9-2.4,3.9-4.5,7.6.4,13.9-1.5-8,8.8-7.5,4.9-14.8q17.5,3.2,23.4-.3c10.1,1.1,19.4,5.9,29.6,6.5Z"/>
  <path class="cls-172" d="M583.6,336.1q-5.9,3.5-23.4.3c3.9,7.2-6.3,6.7-4.9,14.8-4.9-6.3-2.7-10-.4-13.9-10.2-4.4-16.7,2.9-24.3,5.9-8.3-7.5-14.1-18.1-26.2-20.7,2.6-2.3-1.8-4.8.2-6.8,4-3.6,8.5,2.3,12.5-1.1,22.2,7.2,44.4,14.3,66.6,21.5Z"/>
  <path class="cls-185" d="M371.2,323.5c20.2-9,41.5-13.3,63.3-15.6,18-1.9,36.1,0,54.2,0,.2.5.4,1,.5,1.4-2.4.2-4.7.3-7.1.5,1.9,1.4,3.1,2.7,3.3,4.9-15.4-1.2-30.4,3-45.6,3.6-15.4.2-30.4,3.7-45.7,5.3-4.7.6-9.4,1.2-14,1.7-3.1.2-6.2-.1-8.9-1.9Z"/>
  <path class="cls-28" d="M485.4,314.8c-.2-2.2-1.4-3.5-3.3-4.9,2.4-.2,4.7-.3,7.1-.5,9.7-.2,18.9,1.6,27.9,5.2-3.9,3.4-8.5-2.5-12.5,1.1-2,2,2.5,4.5-.2,6.8-6.2-1.2-12.5-2.4-18.9-2,0-1.9-.1-3.8-.2-5.7Z"/>
  <path class="cls-82" d="M517,202.8c.1,10.3,31.3,11.1,38.9,10,2.4,1.4,12.9,12.4,11.5,16.7,7.5,3.2,27.5-10.8,24.9,8.1-.8,5.9-8.5,9.8-13.7,11.9-1.8-.5-3.6-.9-5.4-1.4-4.5-12.5-75.2-26.9-66.8-45.7,3.5.1,7,.2,10.5.3Z"/>
  <path class="cls-223" d="M385.5,497.8c-20.7,25.2-31.6,54.2-44.1,83.8-2.6-1.4-2.7.9-3.4,2.3-2,4.2-2.5,9.2-7.1,11.8-6.6-3.4-3.1-9-2.7-13.7.6-7.4,4.9-15.1-2.6-21.5-3.9-9.8,7.1-19.2,2.2-32.4q12.2-9.7,6.6-20.3c-.5-9.7,22-21.7,30.4-18.8,4.7-4.5-11.7-9.3,1.2-12.8,5.8,3.5,8.5,21.2,8.1,27.2,3.7-5.3,10-7.3,12.4-15.1,1.5,5.1-.8,7.1-1.1,9.4Z"/>
  <path class="cls-207" d="M385.5,497.8c.3-2.4,2.6-4.4,1.1-9.4-2.4,7.8-8.7,9.8-12.4,15.1.3-6-2.3-23.7-8.1-27.2.2-4.1-4.8-2.6-6-5.3,1.4-2.5,2.7-5,4.7-8.5,5.9,15.1,18.3-1.2,4.8-3.8,5.3-9.7,16.6-13.7,21.4-24.3,4.7-10.3,18-12.1,24.3-21.4,3,12.7,13.6,23.8,6.7,39.3-1.1.9-6.2-.1-5.8,4.9,1.3,1.8,3.2,1.2,4.8,1.5-2,3.9-5.3,6.7-8.2,9.9-7.5,8.2-17.1,14.6-22,25.1-1.7,1.3-3.4,2.6-5.2,3.9Z"/>
  <path class="cls-6" d="M330.9,595.8c4.7-2.5,5.2-7.6,7.1-11.8.7-1.4.8-3.7,3.4-2.3-2.2,6.3-4.1,12.6-3.5,19.3-1.4,2.2-3.3,3.9-4,6.7-7.5,29.4-14,59-13.8,89.5-3.3,18.7-2.4,37.6-3.2,56.5-3.7,2.7-.1,7.9-3.7,10.7,2.5-16.7-4.8-32.6-3.5-49.2-1.4-4.8,3.5-7.7,3.5-12.1.2-17.1-1.6-34.3,3.5-51.1,8.9-6.8.5-14.2.3-21.5,12.8-2.9,14.8-23.7,13.7-34.6Z"/>
  <path class="cls-135" d="M320.2,697.2c-.1-30.6,6.4-60.1,13.8-89.5.7-2.7,2.6-4.5,4-6.7,1,.3-12.4,117.8-17.4,117.8-.1-7.2-.3-14.4-.4-21.6Z"/>
  <path class="cls-130" d="M418.5,738c-11.7,63.5-16.3,119.6-13.7,184.3-7.1-.8-3.7-24-3.7-22.7-1.9.3-2.8,1.6-2.9,3.9-4.5-22.8,2.3-51,3.4-74.6,1.5-30.2-1.9-64.5,16.9-90.8Z"/>
  <path class="cls-134" d="M320.2,697.2c.1,7.2.3,14.4.4,21.6-.1,24.9,1.8,48.4,3.1,72.9.5,10.7,14.2,59.9,7.2,65.9-3.6-7.2-2.9-15.5-5.5-23-2.8-27-5.5-53.9-8.3-80.9.8-18.8-.1-37.8,3.2-56.5Z"/>
  <path class="cls-62" d="M390.7,493.9c4.9-10.5,14.5-16.9,22-25.1,2.9-3.2,6.2-6,8.2-9.9,5.5-1.6,8.3-8.8,15.2-7.4,7,5.1,14.2-1.2,21.2.4-4.2,3.9-9.7,7.1-5.4,14.3-9.5,3.9-15-2.1-20.3-6.7-8.3,5.3-31.6,35.6-41,34.4Z"/>
  <path class="cls-35" d="M325.3,835.4c2.6,6.7,1.8,15,5.5,22.2,1.2,14,6.9,26.8,10.3,40.2-5.8-2-5.6-8.3-8.5-12.3-2-2.8-2.5-6.5-5.4-8.7-4.1-11.7-8.1-23.4-12.2-35.1,4.9-1.1,4.8,3.7,7.3,6.8,2.4-5,1-9.6,1.4-15.4l.8,2.3h.8Z"/>
  <path class="cls-273" d="M373.1,975c-8.7-15-15.1-31.1-21.5-47.1.7-.2,25.4,32.5,27.3,35.2-2.6,3.4-5.1-.5-8.7-1.5,2.3,4.9,3.3,9.1,2.9,13.4Z"/>
  <path class="cls-180" d="M578.4,593.7c-38.6,21.3-70.3,41.9-94.5,80.1-10.7,16.9-19.3,35.2-26.3,54-3.8,10-9.3,50.9-17.5,54.3-3.4-3.3-.1-6.6.5-9.6,6.5-32.3,18-62.9,32.9-92.3,15.3-22.6,29.9-44,51.8-60.9,5.2-4,51-33,53.3-25.6Z"/>
  <path class="cls-138" d="M615.3,550.2c21.1.7,42-.2,62.8-3.9-17.5,37.4-81,2.9-96.3,31.8-5-.9,2.3-15.1,1.7-19.1,6.6,8.2,47,2.3,57.9,3.1-6.1-12.2-19.8-9.4-38.8-8.5,4.5-3.4,9.5.1,12.7-3.4Z"/>
  <path class="cls-237" d="M473.3,680.1c-14.9,29.4-26.3,60-32.9,92.3-.6,3-3.9,6.3-.5,9.6-.5,8.9-4.4,17.2-4.1,26.2-14,1.1,8.8-92.4,17.2-94.7-.5-4.7-7.7-4.9-5.6-11.1,14.6,5.5,14.4-24.4,25.8-22.3Z"/>
  <path class="cls-218" d="M315.1,841.6c4.1,11.7,8.1,23.4,12.2,35.1-5.8.8-6.7-4-8.4-9.1-2.8,4.7-6.5,17-15.9,10.1-.9-3.5,3.2-6.9.6-10.4-3.1,0-1.7,2.9-3.7,4-1.2-3.4,1-9.6-5.9-8.7-2.7-3-4.5-6.5-5.2-10.5,14.3-11.9-23.3-84.2-3.5-87.9-2.8,10.9,12.5,50.9,22.6,56.3.4,7.7,8.1,12.9,7.3,21Z"/>
  <path class="cls-55" d="M114.8,676.5c13.3-12.4,26.5-25.1,41.8-35.1,2.9-1.9,6.1-3.4,7.8-6.7,5.6-.4,9.9-3.9,14.7-6.1,4.2-2,8.4-3.4,13.1-3,.4,5.6-4.7,6.2-7.9,8.1-20.8,12.1-40.1,26-55.9,44.4-14,13.3-26.7,27.5-37.2,43.8-2.7,4.3-5.4,9.2-11.6,9.3.8-8.8,6.3-15.4,11-22.2,7.7-11,16-21.7,24-32.5Z"/>
  <path class="cls-199" d="M285.2,764.4c-19.8,3.7,17.8,76,3.5,87.9-3.7-8.8-5.6-18.1-7-27.4-.5-3.4-1.2-6.8-3.4-9.6-2-13.2-3.8-26.4-6.1-39.5-.7-3.8-.9-7.5-1-11.3,0-6.1-3.1-47.9,5.3-45.7-.3,8.1,5.4,14.7,5.4,22.7-2.3,8.2,3.2,15.2,3.4,23Z"/>
  <path class="cls-200" d="M316.8,652c-5.1,16.8-3.3,34-3.5,51.1,0,4.4-4.9,7.3-3.5,12.1-7.1-21.6,11.5-70.6-13.3-83.3-4.7,6.6-35.9,4-41.6-.3-12.7-9.8-1.1-20.3-7.5-35.1,1.9-1.4,4.1-2.9,5.3-3.7,1.8-17.6-38.4-101-12.1-110.8-1-6.2-8.5-7.5-9.4-13.6-.9-6.1,6.1-9.8,4.5-16.9.1-1.6.3-3.3.4-4.9.5,0,1,0,1.5-.1,0,0,.4,0,.4,0,1,1.8,2.1,3.5,3.1,5.3l.9,2.2c.3-.7.6-1.4.9-2.2,2.3,1.3,4.7,2.6,7,3.9,5.3,4,2.8,10.4-6.7,16,11.9,22.7,6.9,49.3,11.8,74,2.2,11,3,28.1,10.7,37.4,14.2,17.1,7.5,8,19.8,2.3,3.7,8.1,13.9,2.3,19.9,8.3-13,9.7,10.7,43.5,11.2,58.3Z"/>
  <path class="cls-68" d="M236,444.7c-4-17.3,13.8-49.9,35.1-52.7,0,.6,0,1.2,0,1.8-3.1,4-6.9,7.5-8.8,12.4-5,4-7.3,9.3-7.5,15.6-5.9,5.7-9.4,13.1-13.9,19.8,0,1,0,2,0,3-.9.6-1.9,1.2-2.8,1.9,0,0-.4,0-.4,0-.6-.5-1.1-1.1-1.7-1.6Z"/>
  <path class="cls-137" d="M271.2,393.8c0-.6,0-1.2,0-1.8,3.7-4.7,3.7-10.5,4.9-16,0-.5.2-.9.4-1.4,10.6-8.8,21.1-17.7,31.8-26.3,2.6-2.1,4.7-5.2,8.6-5.5,1.3.6,2.5,1.3,3.8,1.9-3.3,3.3-8.5,4-10.9,8.5-10.4,4.7-13.1,14.8-17.3,23.9-1.6,3.9-7.4,1.8-8.6,6.2-6.7.4-6.9,8.8-12.6,10.4Z"/>
  <path class="cls-226" d="M236,444.7c.6.5,1.1,1.1,1.7,1.6-.5,0-1,.1-1.5.1,0-.6-.1-1.2-.2-1.8Z"/>
  <path class="cls-233" d="M309.6,353.2c2.3-4.5,7.6-5.2,10.9-8.5,15.9-9.4,33.1-15.8,50.7-21.3,2.7,1.8,5.7,2,8.9,1.9-19.5,9.2.2,5.8-2.9,16.6-8.1.7-11.6,8.4-18.8,11.7,10.7,12.6-15.5,19.6,2.6,34.4-6,2.4-12.8,3.1-14.2,11.2-5.8-4.4-.8-16.9-12.5-14.2-.9-3.5-3.8-7,0-10.4-3.7-2.4-2.6-7.4-5-10.1-7.3-2-14.9,1.5-21.6-3,2-2.7,2.5-5.4,2-8.4Z"/>
  <path class="cls-54" d="M281.8,741.4c0-8-5.7-14.6-5.4-22.7-.5-11.3-5.2-21.9-5.3-33.3,0-1.8,0-3.6,0-5.4,9.8,2.3,27.4,102.7,28,112.6-4.2-5.1-5-11.6-6.8-17.6-3.5-11.2-5.9-22.8-10.5-33.7Z"/>
  <path class="cls-48" d="M325.3,833l-.8,2.3h-.8c-4.1-10.2-8.2-19.6-7-30.2,1.5-13.8-6-26.9-3.5-40.8,3.5-2.8,0-8,3.7-10.7,2.8,27,5.5,53.9,8.3,79.3Z"/>
  <path class="cls-235" d="M281.8,741.4c4.6,10.9,7.1,22.4,10.5,33.7,1.8,6,2.7,12.4,6.8,17.6,0,6.5,3.2,11.9,6,17.5,1.6,3.2,3.4,6.6,2.7,10.5-10.1-5.4-25.4-45.4-22.6-56.3-.2-7.8-5.7-14.8-3.4-23Z"/>
  <path class="cls-59" d="M271.1,685.4c.1,11.4,4.8,22,5.3,33.3-8.4-2.3-5.3,39.5-5.3,45.7-11.7-10.3-3.1-68.2-3.5-82.1,2.6-.3,1.8,2.7,3.4,3.2Z"/>
  <path class="cls-107" d="M506.5,708.2c1.2,6.4-1.4,11.3-7.2,16,11.3,6.5,12.7,15,5.6,25.7-2.3-3.9-24.2-3-29.2,2.3,3.3,5.5,16-.6,13.8,11.7-5.1,2.1-16.3-6.3-14.8,8.6-7.6.7-28.1,4.5-20.8-9.8,2-31.1,24.7-78.5,46.8-99.2,7.1,7.4-8.4,36.7-13.3,43.1,5.5,3.3,7.2-4.7,11.3-4.1,2.2.4,5.8,5.8,7.9,5.8Z"/>
  <path class="cls-49" d="M548.7,736.4c-7.1,1-11.4-4.2-15.7-8.1-11-9.9-21.6-20.5-24.5-36-.7-4.6-.3-9.1,4.1-11.5,4.5-2.5,2.9-8.1,6.4-10.9-2.4,15.9,58.9,57,63.5,41.7,1.8-.3,3.4-.4,4.8,2.7-13.2,6.7-27,12.6-38.5,22.1Z"/>
  <path class="cls-241" d="M582.4,711.5c-4.6,15.2-65.8-25.8-63.5-41.7,2.8-2.5,5.5-4.9,8.3-7.4,2.2,6.6,44.4,43.9,53,44.3,1.7,1.2,2.2,2.9,2.2,4.9Z"/>
  <path class="cls-115" d="M660.8,622.2c-7.3,3.9,2.3,12.1-5.5,16.2-2.9-2.8-4.5-6.4-7.4-12.3-1.6,10.7.5,21-9.4,25.9.3-8.3-2.6-16.1-4.2-24.2,0-7.7-3.3-14.9-3-22.7.1-2.9-2-5.7,3-5.6,12.7,3,23.3,8.5,26.5,22.7Z"/>
  <path class="cls-10" d="M613.8,666.7c15.3,59.1-16.7,12.9-31.8-11.2,0-.6,0-1.2,0-1.8,5.9,3.5,8.5-5,13.9-3.5,2.5.7,1.6,5.5,5.5,5.2,3.6,4.4,5.1,11.1,12.4,11.3Z"/>
  <path class="cls-198" d="M625.9,713.3c.8,3.2-2.8,4.3-3.2,6.9-.5.7-1,1.3-1.4,2-3.7-1.1-6.1,1.3-8.2,3.6-4.7,5.1-9,10.5-13.5,15.7-5.9,6-11.7,12-16.2,19.2-8.5,6.3-13.5,15.6-19.9,23.6-3.1,3.9-6.4,6.5-11.5,6.6.6-3,1.2-6,1.8-9,8.7-7.8,13.5-18.9,23.3-26.6-2.4-.6-3.9-.2-4.6-1.8,14.1-14.7,29.5-27.8,46.9-38.5,2.2-1.3,4.2-1.7,6.5-1.7Z"/>
  <path class="cls-247" d="M601.3,655.4c-4,.3-3-4.4-5.5-5.2-5.4-1.5-8,7-13.9,3.5-6-4.6-11.9-9.5-19.2-12-3.8-1.3-5.3-3.4-3.6-7.3,7-4.1,14.1-8.2,21.1-12.3.4,3.7,3.1,6.1,5.3,8.8,6.1,7.6,12.3,15.2,15.8,24.5Z"/>
  <path class="cls-17" d="M601.3,655.4c-3.5-9.3-9.7-16.9-15.8-24.5-2.2-2.7-4.8-5-5.3-8.8,16.6-10.6,36.8,32.7,33.5,44.6-7.4-.2-8.8-6.9-12.4-11.3Z"/>
  <path class="cls-111" d="M660.8,622.2c-3.1-14.2-13.7-19.7-26.5-22.7,3.1-.7,7.2,1,8.8-3.6,4.7,1,9.3,2,14,3.1,2.7,4.4,5.9,6.9,11.5,4.4,4.6-2.1,9.1,0,13.4,1.5-.6.5-1.2,1.1-1.9,1.6-4.3-1.2-8.7-3.1-10.8,3.1-2.8,9.2.5,19.5-4.9,28.3-1.2-5.3-2.4-10.5-3.6-15.8Z"/>
  <path class="cls-193" d="M643.2,595.9c-1.6,4.5-5.7,2.9-8.8,3.6-5-.2-2.8,2.7-3,5.6-.3,7.8,3,15,3,22.7-6,1.3-17.3-27-18.7-33.2,9.5-1.9,18.6-2,27.5,1.4Z"/>
  <path class="cls-131" d="M559.2,634.4c-1.7,3.8-.2,6,3.6,7.3,7.3,2.6,13.2,7.4,19.2,12,0,.6,0,1.2,0,1.8-4.4.2-3,3.8-2.8,7.8-10.3-8.3-19.4-15.5-28.9-23.2,2.9-2.9,5.2-5.4,8.9-5.7Z"/>
  <path class="cls-164" d="M532.9,792.5c-.7-1.4-1.5-2.9-2.2-4.3,7.2-8.1,13.9-16.8,24.8-20.6,0,0,.5.5.5.5-4.4,8.3-12.6,13.3-17.7,20.9-1.8,1.1-3.5,2.3-5.3,3.4Z"/>
  <path class="cls-278" d="M572.5,753.6c.6,1.6,2.2,1.2,4.6,1.8-9.8,7.7-14.6,18.7-23.3,26.6-.6,0-1.2,0-1.7,0,1.8-6.9,8.2-11.1,10.5-17.7,1.3-2.3,2.6-4.7,4-7,3.4,1.2,3.1-3.7,5.9-3.6Z"/>
  <path class="cls-91" d="M566.6,757.1c-1.3,2.3-2.6,4.7-4,7-1.1.1-2.3.2-3.4.3-1.1,0-2.1,0-3.2,0,2.3-4.2,5.7-6.8,10.6-7.3Z"/>
  <path class="cls-164" d="M556,764.4c1.1,0,2.1,0,3.2,0-1.1,1.2-2.2,2.4-3.4,3.6l-.5-.5c.2-1.1.4-2.1.6-3.2Z"/>
  <path class="cls-155" d="M601.3,982.1c-19.4-5.7-37.6-13.9-53.2-26.8-17.4-14.5-32.6-30.9-38.2-53.9,8.5,5.8,11,17.8,21.1,21.8,2.1-1.4-.3-4,2.8-4.9,1.1,2.2,1.5,5.5,4.7,6.3q-.2-4.4,3-5.7c7.6,9.5,16.8,17.2,26.4,24.6,9.6,7.6,19.1,15.1,31.6,17.6,6.4,4.1,13.5,6.1,21,7,20.5,7.7,30,10.6,51,10.6-8.8,4.3-18.4,4.6-27.8,5.1-14.2.7-28.4.5-42.5-1.6Z"/>
  <path class="cls-238" d="M601.3,982.1c14.1,2.2,28.3,2.4,42.5,1.6,9.4-.5,19-.8,27.8-5.1,6.6-2.4,13.3-4.7,19.1-8.9,3-1.7,6-3.4,8.9-5.1,3.8,4.8,11.5-1.7,12.9,9-.4-2.9-15.7,18.6-15.3,18.3,2,1.1,4.7,1,4.8,3.9-1.9,2.4-3.8,4.9-5.8,7.4-1.2,3.5-6.8,2.6-7.1,7-9.6,2.1-17.3,9.7-27.8,9-2.6-.4-5-1.3-7.3-4,3.2-5.4,6.9-11.2,1.6-18.4-18.9-2.4-39.5-6.2-54.3-14.7Z"/>
  <path class="cls-74" d="M541,918.9q-3.2,1.3-3,5.7c-3.2-.8-3.6-4.1-4.7-6.3-3.1.9-.7,3.4-2.8,4.9-10.2-4-12.6-16-21.1-21.8-6-4.6-5.1-11.2-5.2-17.6,0-4.1,0-8.2,0-12.3,3.5-.9,7.4-4,9.8,1.3.9-3.2,1.9-17.7,9.5-15.3.6,4.1-1.3,8.5,1.6,12.3-.3,7.3,1.9,14.1,3.8,21,.7,5.1,2.8,9.6,5.2,14.1.7,5.5,6.2,8.6,7,14Z"/>
  <path class="cls-36" d="M605.9,853.7c7.7-17,13.5-20.6,40.1-25.1.1-.6-.2-23.1,8.2-20.2,2.3,5.6,15.4,11.1,19.1,16.7-4.6,5.3-4.7,10.6-.5,15.6,4.4,2.5,8.2,5.7,11.5,9.5,1.2,5.6,9.3,5.7,9.7,12.3-7,2.5-13.6,6-20.5,10.3-5.2-6.3-11.2-11-19.3-12.3-4.5-3.1-9.4-.9-14.2-1.1-5.5,2-4.3,5.3-2.2,9.3,3.5,6.6,11.4,5.7,16.1,10-2.8,15.1-11.7-1.6-16.5,7,3,2.3,7.9,2.5,8.3,7.5-2.7,1-5.4,2-8.1,3-6.8-1.6-13.4-4.9-20.7-3.8-1.2-5.1-4.1-9.2-6.9-13.5-4.9-7.6-10.6-15.5-4.2-25.2Z"/>
  <path class="cls-157" d="M605.9,853.7c-6.4,9.7-.7,17.6,4.2,25.2,2.8,4.3,5.7,8.5,6.9,13.5-.6.6-1.2,1.3-1.8,1.9-3.5.3-6.9-1.7-10.4-.3-3.7-2.6-8.1-4.6-7.1-10.5.3-2-1.4-3-3.3-3.3.3-7.4,8-19-2-23.4-3.4,3.4.4,8.8-4,12.5-6.7-26-57.8-12.2-53.8-55.8,0-.6,0-1.1,0-1.7,4.7-6.5,7.1-15,15.9-18,7,.5,4.8,4.4,2.9,8.3,2.6.9,5,1.7,7.3,2.5-1.8,3.1-6.3,5.2-3.9,10.2,5.5.9,7.3-6.9,12.9-4.9-1.1,4.9,1.9,7.3,6,8.3-.8,3.3-3.9,1.9-5,3.7,9.1,18.3,24.1-4.7,29.3-.1,5,4.4-21.7,21.6-3.2,24,6.3-16,12-7.1,20.5-18,5.3,11.5-17.2,10.6-11.4,26.1Z"/>
  <path class="cls-219" d="M654.2,860.5c8.1,1.3,14.1,6.1,19.3,12.3,6.9-4.3,13.5-7.8,20.5-10.3-.4-6.7-8.5-6.7-9.7-12.3.5-.5.9-1.1,1.4-1.6,3.5,2.3,8,3.3,10.5,7.1-.3,17.2-14.1,13-23.7,22.2,1.1,3,3.5,5.8,2.5,9.5-7-2.9-14-5.8-21.1-8.7-4.7-4.3-12.6-3.4-16.1-10-2.1-4-3.2-7.3,2.2-9.3.1,1.9-.6,4,1.6,6.1,3-4.6,9.1-.9,12.5-5Z"/>
  <path class="cls-149" d="M569.6,809.8c-5.5-1.9-7.4,5.9-12.9,4.9-2.4-4.9,2.1-7.1,3.9-10.2,9.5-7.9,14.9-19.3,23.1-28.3,5.9-3.5,11-7.9,14.9-13.6,9.4,8,3.7,13.5-3.1,18.9-2.9,2.3-5.5,4.9-8.2,7.4-5,7.7-15.2,11-17.7,20.8Z"/>
  <path class="cls-186" d="M648.9,736.2c8.9,9.8,2,30.1-2.9,41.2-7.4-5.6-10.8,9.6-19.5,2.5.5-.6,20.6-15.6,9.5-19.3,4.3-8.1,8.6-16.3,12.8-24.4Z"/>
  <path class="cls-116" d="M587.3,789c2.7-2.5,5.3-5.2,8.2-7.4,6.8-5.4,12.5-10.8,3.1-18.9-.3-.5-.6-1-.8-1.5,9,.2,11.1-9.2,17.5-12.7,1,5.2-3.7,7.3-6.6,10.8,3.7,2.2,1.7,7.9,6.8,8.6-2.2,3.5-5.3,6-8,9-5.1,5.7-11.7,10.1-15,17.4-3.3-.3-.9-6.1-5.2-5.3Z"/>
  <path class="cls-20" d="M592.5,794.3c3.2-7.3,9.9-11.7,15-17.4,2.7-3,5.8-5.6,8-9,3.4-1.5,6-5.1,10.4-3.6.3,9.2-24,33.4-33.4,30Z"/>
  <path class="cls-64" d="M648.9,736.2c-4.3,8.1-8.6,16.3-12.8,24.4-3.3,1.4-5.6,5.6-10.1,3.7-2-9.8,5.5-15.4,9.9-22.4,6.4,1.6,6.4-3.6,7.8-7.2h0c1-.2,1.6-.7,1.5-1.8.7-1.9,1.9-3.3,3.9-3.9,0,0-.4.5-.4.5.1,2.3.2,4.5.3,6.8Z"/>
  <path class="cls-78" d="M685.7,848.6c-.5.5-.9,1.1-1.4,1.6-3.3-3.8-7.1-7-11.5-9.5-4.2-5.1-4.1-10.3.5-15.6-3.8-5.6-16.8-11.1-19.1-16.7,17.9,6.7,15.4,5.4,23,18.2.2.4,8.7,20,8.5,22Z"/>
  <path class="cls-58" d="M653.9,878.7c7,2.9,14,5.8,21.1,8.7,3.5,7.4,10.7,13.3,9.1,22.7,1.1,8.3-2.4,14.9-7.6,20.9-9.2,5.4-17.9,12.1-29.6,11h-3.4c-5.3-1.3-6.5,15.5-8.2,18.8-7.8.4-25.1-3.1-23.7-13.9,2.1-3.3,4-6.7.1-10.1-7,1.1-4.3-4.3-5-7.4-4.2-4.7-8.3-9.3-12.5-14-4.9-7.3-5-13.1,4.8-16.3,2.2-.7,3.8-3.3,5.7-5.1,3.5-1.3,6.9.6,10.4.3,10.5,27.4,58,22.6,22.6,1.9,2.7-1,5.3-2,8.1-3-.5-5-5.3-5.2-8.3-7.5,4.8-8.6,13.7,8,16.5-7Z"/>
  <path class="cls-191" d="M696.2,1003.1c2-2.5,3.9-5,5.8-7.4-.1-2.9-2.7-2.8-4.8-3.9-.4.3,14.9-21.2,15.3-18.3-1.4-10.7-9-4.1-12.9-9,2.3-1.8,4.7-3.6,7-5.4,3-1.7,5.3-4,7.2-6.8,7.9-7.3,15.7-14.8,17.5-26.2,6.7-5.6,8.4-13.2,8.6-21.4.6-2.2,1.2-4.4,1.8-6.6,6.6,18.6,4.2,37.2.3,55.8-4.2,10.6-10.2,20.1-17.7,28.6-9.3,6.9-17.2,15.8-28.1,20.6Z"/>
  <path class="cls-176" d="M731.2,926.2c-1.8,11.4-9.6,18.9-17.5,26.2-1.5-1.2-2.5-28.5-16-5.8-11.8-7.1-2.8-15-21.3-15.6,5-5.8,8.4-12.1,7.7-19.9l4.6-6.2c12-1.8,3,10.7,10.6,13.7,7.6,3,29-3.4,31.8-11.5v19.1Z"/>
  <path class="cls-93" d="M731.2,926.2v-19.1c-2.9,8.1-24.2,14.5-31.8,11.5-7.6-3,1.3-15.3-10.4-13.8,1.5-11.8,20.8-11.4,29.5-10.2,15.5,2.2,12.3-.6,21.2,10.1-.2,8.2-1.9,15.8-8.6,21.4Z"/>
  <path class="cls-178" d="M680.2,606.6c.6-.5,1.2-1.1,1.9-1.6.9,0,2.1-.5,2.5,0,12.7,11.7,28.1,8.8,43,8.2.2,2.4,1.4,3.7,3.8,3.9-3,1.1-6,3.1-8.9,3-9.7-.3-14.4,6.2-19.4,12.7-5.5,0-2-2.7,1.6-9.5-6.6,2.7-8.6,8.1-10.9,14.5-2.4-12-6.8-21.4-13.5-29.6,0-.5-.1-1-.2-1.5Z"/>
  <path class="cls-23" d="M731.4,616.9c-2.4-.2-3.6-1.6-3.8-3.9,13.1-6.7,14.4-6.8,24.4,2.5,3,2.7,7.9,2.4,9.6,6.7-6.1,5.6-15,4.2-21.5,8.8-3.6-5.8,6-3.7,5-6.9-.5-4.1-4-3.4-5.1-5.5-2.5-2.6-5.7-1.2-8.5-1.6Z"/>
  <path class="cls-123" d="M680.2,606.6c0,.5.1,1,.2,1.5,0,7.7-.4,15.3,1.1,23,1.1,5.5.3,11.4-4.7,15.6-7.9-8.4-9.6-30.5-2.8-35.4-1-2-3.1-1.1-4.6-1.5,2.1-6.2,6.6-4.3,10.8-3.1Z"/>
  <path class="cls-262" d="M635.8,741.9c-4.4,7-11.9,12.6-9.9,22.4-4.4-1.6-7,2.1-10.4,3.6-5.1-.7-3.1-6.4-6.8-8.6,2.9-3.4,7.6-5.6,6.6-10.8,3-4,6.1-8,9.1-12,3.5-3.7,5.7-9.1,11.8-9.7.6,3.2-2.7,6.5.5,9.5-.3,1.9-.6,3.7-.9,5.6Z"/>
  <path class="cls-14" d="M624.5,736.5c-3,4-6.1,8-9.1,12-6.3,3.5-8.4,12.9-17.5,12.7,0-.7,0-1.4,0-2.1,10.6-6.6,12.8-19.4,20.4-28.2,2.3-2.7,2.7-5.6,3-8.7.5-.7,1-1.3,1.4-2,4.5,1.4,2.8,4.1,1.6,6.8-1.4,3.1-3.6,6.3.1,9.4Z"/>
  <path class="cls-96" d="M635.8,741.9c.3-1.9.6-3.7.9-5.6,4.1-5.5,4-12.1,4.9-18.5,4.1.5,1.1,4,2.4,5.6.5,3.8-4.2,7.3-.3,11.2-1.5,3.7-1.4,8.9-7.8,7.2Z"/>
  <path class="cls-124" d="M643.6,734.7c-3.9-3.9.8-7.4.3-11.2.7-1.2,1.3-2.3,2-3.5-.2,3.4,7,4.4,3,8.9-2,.6-3.2,2-3.9,3.9-.5.6-1,1.2-1.5,1.9h0Z"/>
  <path class="cls-192" d="M641.6,717.8c-.9,6.4-.7,13-4.9,18.5-3.1-3,.2-6.4-.5-9.5,1.6-3.1,2.2-6.8,5.3-9Z"/>
  <path class="cls-178" d="M740,618.6c1.1,2.1,4.7,1.4,5.1,5.5,1,3.2-8.6,1-5,6.9-5.3,3.8-10.5,8-17.7,7.1.7-11.2,10.3-14.3,17.6-19.5Z"/>
  <path class="cls-264" d="M744.9,725.3c-8.5,5.1-17.1,10.2-27.7,9.2-3.1-.2-6.4.2-9.7-3.1,5.3-7.2,13.8,1.4,19.6-4-7-3.3-4.7-8.5-2.9-13.7,4.5-3.8,11.9-1.8,15.4-7.9,2,1.4,3.8,2.8,5.6,4.1,3.5,5.2,1.4,10.3-.3,15.4Z"/>
  <path class="cls-165" d="M534.6,811.8c0,.6,0,1.1,0,1.7-2.1,1.8-2.8,4.3-3.5,6.9-4.4,15-6.3,30.2-5.1,45.8,0,1.2-.2,2.4-.3,3.7-2.9-3.8-1.1-8.2-1.6-12.3-.7-8.3,3.4-17.9-5.7-23.2-7.9,1.9-5.1,11.6-11.7,14.3.6-8.7,3.5-16.7,6.9-24.6,3.8-7.2,6.2-15.1,12.3-21,3.5,2.4,10.9.7,8.8,8.7Z"/>
  <path class="cls-21" d="M506.6,848.6c6.6-2.8,3.8-12.4,11.7-14.3,9.1,5.3,5,14.9,5.7,23.2-7.6-2.4-8.5,12.1-9.5,15.3-2.4-5.3-6.3-2.2-9.8-1.3.8-7.6-2-15.5,1.8-22.8Z"/>
  <path class="cls-154" d="M534.6,811.8c2.2-8-5.3-6.4-8.8-8.7,2.3-3.5,4.7-7,7-10.6,1.8-1.1,3.5-2.3,5.3-3.4,1.1,5,3.2,2.2,5.3.7,3.3-2.2,4.2-7,8.7-7.9.6,0,1.2,0,1.7,0-.6,3-1.2,6-1.8,9-.5.9-1.1,1.9-1.6,2.8-8.7,3-11.2,11.5-15.9,18Z"/>
  <path class="cls-103" d="M849.4,562.7c-.8,1.5-1.6,3.1-2.5,4.6,0,0,0,.1,0,.1-13.6,2.9-24.5-3-34.7-10.8-2.9-5.6-6.4-11-8.5-16.9-4.6-13.2-2.1-16.3,12-15.8,0,0,0-.2,0-.2-.4.5-.6,1-.5,1.6-2.2,2.1-.8,4.8-1.4,7.2-2.3,3.4-5.3,7.7-1.8,10.9,10.7,9.7,19.2,24.3,37.6,19.3Z"/>
  <path class="cls-127" d="M812.2,556.6c10.2,7.9,21.1,13.7,34.7,10.8-2,10.7-18.4,8.3-25.1,4.4-9.6-5.7-3.6-8.1-9.7-15.2Z"/>
  <path class="cls-250" d="M815.6,523.9c-1.1-.8-2.2-1.6-3.3-2.4,6.8-9.4,20.3-9.3,27.9,0-.8,6.4-5.3,1.3-7.8,2.5-.9-.4-1.9-.8-2.8-1.3-2.5-10.4-6.8-2.2-10.4-1-1.2.6-2.4,1.3-3.6,1.9,0,0,0,.2,0,.2Z"/>
  <path class="cls-119" d="M832.4,524c2.5-1.2,7,4,7.8-2.5,1.5.4,3.1.4,3.8,2.2-.3,2.4,3.7,1,3.2,3.6-4.3.8.4,6.2-3.6,7.1-3.7-3.5-7.5-7-11.2-10.5Z"/>
  <path class="cls-153" d="M847.4,685.4c.7,6.7-2,11.9-7.2,16-7.8,3.5-17.1,14.1-26.8,10.7-6.7-2.3-18.6-8.7-8.5-18.2,1.5,4.3,2.5,9.5,9,5.3,2.6,1.7,5.4,2.6,8.5,1.8,7.3-3.6,13.8-8.2,17.9-15.4.7-.7,1.3-1.4,2-2.1,1.7.6,3.3,1.3,5,1.9Z"/>
  <path class="cls-146" d="M847.4,685.4c-1.7-.6-3.3-1.3-5-1.9.5-3.5,5-6.5,1.3-10.5-2.2-7.2-7.7-2.7-11.7-3.3-6.5-3.9-8.5,3.9-13,5,0-.7.1-1.4.2-2.1-.2-1.4-.3-2.8-1.7-3.6,6.1-5.2,14-6.8,21-10.1,13.9,2.5,17.5,10.1,10.8,22-.8,1.4.2,3.6-1.8,4.6Z"/>
  <path class="cls-70" d="M817.3,669c1.5.8,1.5,2.2,1.7,3.6-.5.3-1.1.5-1.6.8-.6.5-1.1,1.1-1.7,1.6-.2.5-.3,1.1-.3,1.7-1.8.8-2.8,2-2.8,4.4,2.4-1.2,2.8-2.7,2.8-4.5.6-.6,1.3-1.2,1.9-1.8h0c0,.1.8.1.8.1l.8-.3c4.6-1.1,6.6-8.9,13-5-3.1,2.3-6.2,4.6-9.3,6.9-6.6,4.7-9.5,11.4-10.7,19.1-3.2-1.5-3.5-4.3-3.5-7.4,0-1,.1-2.1.2-3.1.3-.2.5-.5.8-.7-.5,0-.7.3-.7.8-1.4-.6-1.3-1.9-1.5-3.1,3.4-4.4,6.9-8.9,10.3-13.3Z"/>
  <path class="cls-272" d="M808.3,688.4c0,3,.3,5.9,3.5,7.4.7,1.1,1.4,2.3,2.1,3.4-6.5,4.2-7.5-1-9-5.3,0-2.2.2-4.4.3-6.6,1.1.4,2.1.8,3.2,1.1Z"/>
  <path class="cls-63" d="M808.3,688.4c-1.1-.4-2.1-.8-3.2-1.1-.4-2-.5-4,1.8-5,.2,1.2,0,2.5,1.5,3.1h0c0,1-.1,2-.2,3.1Z"/>
  <path class="cls-69" d="M849.4,562.7c-18.3,5-26.9-9.6-37.6-19.3-3.5-3.2-.5-7.5,1.8-10.9,2.8,9.7,8.5,17,17.9,21.1,3.4,0,6.9,0,10.3-.1,2.9.5,3.4-2.4,5.1-3.6.6.6,1.2,1.3,1.9,1.9h0c.1,2.8,1.6,4.6,4.1,5.7-1.2,1.7-2.4,3.4-3.6,5.1Z"/>
  <path class="cls-32" d="M848.9,551.9c-.6-.6-1.2-1.3-1.9-1.9.6-5.1.3-10-3.3-14.1,0-.5-.1-.9-.1-1.4,4-1-.7-6.3,3.6-7.1,2.3,2.5,4.8,4.9,3.7,8.9-.8,2.8,1.1,3.3,3.3,3.6.6,4.6-1.4,9.4,1.4,13.8.3,2-.7,3.3-2.6,4-2.5-1.1-4-2.9-4.1-5.7.1-.2.2-.4.4-.6-.1.2-.2.4-.3.6Z"/>
  <path class="cls-220" d="M855.6,553.6c-2.9-4.3-.8-9.2-1.4-13.8,3.9,4.2,1.9,9.1,1.4,13.8Z"/>
  <path class="cls-67" d="M436.1,451.5c-7-1.4-9.7,5.8-15.2,7.4-1.6-.3-3.5.3-4.8-1.5-.4-5,4.7-4,5.8-4.9,6.9-15.6-3.7-26.7-6.7-39.3-5.2-21.1,2.1-16.9-13.6-20.8-.4-4.6-1.2-9.1.5-13.4,3.6-.6,5.8,2.7,9.6,1.4,2.7-11,5.7-10.7,4.6-21-.4-3.5-5.7-7.1-2.8-11.2,3,1.3.3,6.5,4.5,7.2,2.1-3.9-1.1-8.5,2.6-11.8,29.1,10.2,6.8,28.2,22.8,41.5,0,1.9-.1,4,1.8,5.3,2.3,6,1.4,13.4,8.6,17.3-3.1,2.4-6,4-6.8,7.3.2,1.9.3,3.8.5,6.2,4.4-.5,8.6-1.9,12.3,1-2.1,6.1-9.6,4.5-12.8,9-4.7.8-6.6,4-7,8.3-.4,4.3-1.7,8.2-3.7,12Z"/>
  <path class="cls-2" d="M713.7,409.6c10.8.7,20.9-2.8,31.4-4.4,6-.9,13-1,14.2,7.9-17.1,15.2-37.4,23.7-59.5,28.5-2.2,0-4.5-.1-6.7-.2-3.2-.8-6.8.7-10.8-2.3,6.9-3.1,13.8.2,19.7-2.5-4.5-17-76.7,5.4-85.8-8.4,12.3-2.9,24.7.6,37-2.1-2.2-4.7-9.1,0-9.7-6.1,18.3-.2,36.4,7.5,56.3,1.7-7.3-3.5-14.4.5-20.1-4.4,5.6,2.5,32.4-4.1,34.1-7.8Z"/>
  <path class="cls-279" d="M615.3,378c0-7.9.2-15.8,0-23.7-.2-4.3.9-8,3.5-11.4,21.3-.2,27.6,2.8,30.3,22.8.6,4.6-3.2,28.3-5.7,33.4-22.5,2.1-12.8-8.4-28-21.1Z"/>
  <path class="cls-204" d="M445,390.4c-1.9-1.3-1.7-3.4-1.8-5.3.4-4.3-.8-8.7.8-12.7,2.5-2.1,5.3-1,7.8-1.5,3.9,2.8,7.1,7.3,8.6,10.7,4.8,11.3,13.6,17.3,23.7,22.4-2.8,5.7,2.4,4.8,4.8,5.4,4.5,1.2,9.6-1.4,14,1.8-6.6,3.6-13.8,2.7-20.1.8-5.1-1.5-10-2-15-2.5-8.2-1-16.7-9-17.6-17.1-.5-4.5-2.6-3.5-5.2-2.2Z"/>
  <path class="cls-89" d="M693,441.5c2.2,0,4.5.1,6.7.2-20.4,14.9-111,16.3-130-3.8,15.4,2.6,30.7,6.1,46.3,7.5,25.8,2.4,51.7,3.2,77-3.9Z"/>
  <path class="cls-2" d="M682.3,409.4c1.1,0,2.2.1,3.3.2-2.7,13.5-39.4-.9-42.1,10.5-7,.1-12.7-1.3-11.9-11.9,16.9,10.6,33.8-.7,50.7,1.1Z"/>
  <path class="cls-25" d="M503,411.3c-4.3-3.2-9.4-.6-14-1.8-2.4-.6-7.7.3-4.8-5.4,22.9,5.4,37.2-.7,49.9-21,13.4,8.7-18.9,23.5-20.6,24.8-4-.3-7.1,2-10.5,3.4Z"/>
  <path class="cls-88" d="M445,390.4c2.6-1.3,4.7-2.2,5.2,2.2.9,8.1,9.4,16.1,17.6,17.1,0,4.2-7,3.2-5,8.2-6.1-.9-10.8-3.3-16.1-2.9.8-3.3,3.7-4.9,6.8-7.3-7.1-3.9-6.2-11.3-8.6-17.3Z"/>
  <path class="cls-254" d="M610.3,516.9c-14.6,3.9-42.3-15.6-48.1-26.6,7.5-1.4,13.4,2.8,19.7,5.5,1.1,2.3,3.5,2.9,5.3,4.3,7.4,6,17.1,8.9,23.1,16.8Z"/>
  <path class="cls-44" d="M581.9,495.8c-6.4-2.6-12.3-6.8-19.7-5.5-2.7-2.9-5.3-5.8-8-8.8,2.6-3,6.2-2,8.8-1.2,11.8,3.3,23.5,7,33.3,15,.5.8,1,1.5,1.5,2.3-.3,1.4-1.2,3.4-2.5,2.1-3.9-3.5-8.8-3-13.4-4Z"/>
  <path class="cls-166" d="M581.9,495.8c4.5,1.1,9.4.5,13.4,4,1.3,1.2,2.2-.7,2.5-2.1,6.2,4.3,12.2,8.8,18.5,12.9,3.7,2.4,4.9,5.5,4.4,9.6-3.1-2.1-7.4-.4-10.4-3.2-6-7.9-15.7-10.8-23.1-16.8-1.8-1.4-4.2-2-5.3-4.3Z"/>
  <path class="cls-94" d="M643.4,419.8c2.7-11.4,39.4,3,42.1-10.5,9.4,0,18.7,0,28.1,0-1.6,3.7-28.4,10.2-34.1,7.8,5.7,4.9,12.8,1,20.1,4.4-20,5.8-38.1-1.9-56.3-1.7Z"/>
  <path class="cls-145" d="M534,383c-12.7,20.4-27,26.4-49.9,21-10.1-5.1-18.9-11.1-23.7-22.4-1.5-3.5-4.7-8-8.6-10.7-2.7-5.2-5.2-10.9-2.8-16.5,3.2-7.6,5.8-15.7,11.6-22.1,7.9-5,15.7-10,25-11.9,6.4-.4,12.6.8,18.9,2,12.1,2.6,18,13.2,26.2,20.7,6.9,12.8,8.6,26.1,3.4,39.9ZM491.1,374.8c20-.2,17.3-30.9-1.4-30-19.8.9-18.1,30.1,1.4,30ZM510.4,332.5c-15.3,3-6,13.6,2.2,18.1,9.6,5.2,8.3-13.5-2.2-18.1Z"/>
  <path class="cls-162" d="M413.4,348.2c-2.8,4,2.4,7.7,2.8,11.2,1.1,10.3-1.9,10-4.6,21-3.8,1.4-6-2-9.6-1.4-1.7,4.3-1,8.8-.5,13.4,15.8,3.9,8.4-.4,13.6,20.8-6.3,9.3-19.6,11.1-24.3,21.4-4.8,10.6-16.1,14.6-21.4,24.3-13.5-3.7-10.5-14-17.1-22.6.6.7-19.9-18.9-19.6-19-3.1,1.8,2.8,4-.7,6-3.9-2.6-8.8-2.9-13.9-3.7,2.8-3.6,2.2-7.1,2-10.6,6.9-6.6,11.5-14.7,14.1-23.9,11.7-2.7,6.8,9.8,12.5,14.2,1.4-8,8.2-8.8,14.2-11.2-18.1-14.8,8.1-21.8-2.6-34.4,7.3-3.3,10.7-11,18.8-11.7,3.1-10.8-16.6-7.5,2.9-16.6,4.7-.6,9.4-1.2,14-1.7-.7,1.9-3.9,1.7-3.6,4.5,2.9,2,7-.6,9.8,2.2,4.2,8.8-6.3,16.3,4.4,23.5,0-18.5,7.5-38.3,8.8-5.6Z"/>
  <path class="cls-88" d="M413.4,348.2c-1.3-32.7-8.8-12.9-8.8,5.6-10.7-7.2-.2-14.7-4.4-23.5-2.8-2.8-6.8-.2-9.8-2.2-.2-2.8,2.9-2.6,3.6-4.5,15.2-1.6,30.3-5.1,45.7-5.3.2,1.6,17.8,10.7,20.8,14-5.7,6.4-8.3,14.5-11.6,22.1-2.4,5.6.1,11.3,2.8,16.5-2.5.5-5.3-.6-7.8,1.5-1.7,4-.5,8.4-.8,12.7-15.9-13.3,6.3-31.3-22.8-41.5-3.7,3.3-.5,7.9-2.6,11.8-4.2-.7-1.5-5.9-4.5-7.2Z"/>
  <path class="cls-258" d="M460.6,332.4c-3-3.3-20.6-12.4-20.8-14,15.3-.6,30.2-4.7,45.6-3.6,0,1.9.1,3.8.2,5.7-9.3,1.9-17.2,6.9-25,11.9Z"/>
  <path class="cls-83" d="M254.9,421.8c.2-6.3,2.4-11.6,7.5-15.6,5.9.5,8.5-7,14.6-6.2,6.8,6.6.6,15,2.2,22.6,3.8-1.5,1.7-5.7,5.7-6.5,3.4.6,6,5.6,10.9,4.2.7,2.1,1.3,4.3,2,6.4-3.4,1.6-7.4-.7-10.3,2.6,0,3.6-1.5,7.5,1.1,11.2,3-1.7,1.2-5.6,5.3-7.1,8.4,10.9,20,28.1,20.3,42.6.2,10.6-11,9-6.6,21.6,4.1,11.7,17.2,10.4,26.9,10.4q5.6,10.5-6.6,20.3c4.9,13.2-6.2,22.6-2.2,32.4-4.4-1.8-34-3.5-23.5,8.4-9.6,3-16.1-9.2-19-16.2-4.8-11.4,1.4-9.3.1-19.9-1-8.1-2.9-22.5-5-30.6-4.7-18.5-2.2-9.4-12.7-20.3.4-5.2,9.3,1.1,8.8-6-.4-5.3-10.2-1.6-10.2-5.1,0-4.6,2.3-15.3,1.7-19.2,9-12.3,9-19.6-.7-25.6-3-1.9-6.2-4.2-10.1-4.3Z"/>
  <path class="cls-226" d="M265.7,451.7c.7,3.9-1.8,14.6-1.7,19.2,0,3.4,9.9-.2,10.2,5.1.5,7.2-8.4.9-8.8,6,10.5,10.9,8,1.8,12.7,20.3,2.1,8.1,4,22.5,5,30.6,1.3,10.6-5,8.5-.1,19.9,2.9,7,9.5,19.2,19,16.2-10.5-11.8,19.1-10.1,23.5-8.4,7.5,6.4,3.2,14.1,2.6,21.5-.4,4.7-3.9,10.2,2.7,13.7,1.1,11-.9,31.7-13.7,34.6.2,7.3,8.5,14.8-.3,21.5-.5-14.8-24.2-48.6-11.2-58.3-6-6-16.1-.1-19.9-8.3-12.3,5.7-5.6,14.8-19.8-2.3-7.7-9.3-8.5-26.4-10.7-37.4-4.9-24.7,0-51.3-11.8-74,9.4-5.6,12-12,6.7-16,5.6.4,10.7-1.7,15.6-3.9Z"/>
  <path class="cls-18" d="M334.4,508c-9.7,0-22.8,1.3-26.9-10.4-4.4-12.6,6.9-10.9,6.6-21.6-.3-14.5-11.9-31.7-20.3-42.6-4.1,1.5-2.3,5.4-5.3,7.1-2.6-3.7-1.2-7.7-1.1-11.2,3-3.3,7-1,10.3-2.6-.6-2.1-1.3-4.2-2-6.4,6.8.1,13.5-.2,17.6-6.9,2.2-1.4,4.5-2.9,6.7-4.3.2,3.5.8,7-2,10.6,5.1.7,10,1.1,13.9,3.7,3.6-2-2.4-4.1.7-6-.3,0,20.2,19.7,19.6,19,6.6,8.6,3.7,18.9,17.1,22.6,13.5,2.6,1.1,18.8-4.8,3.8-2,3.6-3.3,6-4.7,8.5,1.3,2.7,6.2,1.1,6,5.3-12.9,3.5,3.5,8.3-1.2,12.8-8.4-2.9-30.9,9.1-30.4,18.8Z"/>
  <path class="cls-226" d="M241.3,451.7c.6,0,1.2,0,1.8,0-.3.7-.6,1.4-.9,2.2-.3-.7-.6-1.5-.9-2.2Z"/>
  <path class="cls-90" d="M313.4,413.3c-4.1,6.7-10.8,7.1-17.6,6.9-4.9,1.5-7.5-3.6-10.9-4.2-4,.9-1.9,5.1-5.7,6.5-1.5-7.6,4.6-16-2.2-22.6-6-.8-8.6,6.6-14.6,6.2,1.9-4.8,5.7-8.3,8.8-12.4,5.7-1.7,5.8-10,12.6-10.4,2.6,9.8-5.8,20.4,4.1,28.6,10.5,8.7,15-.3,25.5,1.3Z"/>
  <path class="cls-226" d="M241,441.6c2.3.3,1.7,2.1,1.7,3.5-.5-.2-1.1-.4-1.6-.6,0-1,0-2,0-3Z"/>
  <path class="cls-245" d="M334.3,374.7c-14.7-10.8-28.5-6.9-42,2.5,4.1-9.1,6.9-19.3,17.3-23.9.5,3,0,5.7-2,8.4,6.7,4.5,14.3,1,21.6,3,2.4,2.7,1.3,7.7,5,10.1Z"/>
  <path class="cls-43" d="M550.4,793.8c.5-.9,1.1-1.9,1.6-2.8,5,0,8.4-2.6,11.5-6.6,6.4-8.1,11.4-17.3,19.9-23.6,1.4.3,3.7.7,2.8,2.3-2.4,4.2-1.1,8.9-2.3,13.2-8.2,9-13.6,20.3-23.1,28.3-2.4-.8-4.8-1.6-7.3-2.5,1.9-3.9,4.1-7.8-2.9-8.3Z"/>
  <path class="cls-281" d="M621.3,722.3c-.3,3.1-.7,6-3,8.7-7.6,8.8-9.8,21.5-20.4,28.2-1-1-1.9-2-2.8-3,4-4.1,7.4-8.4,4.6-14.5,4.5-5.3,8.9-10.6,13.5-15.7,2.1-2.3,4.5-4.7,8.2-3.6Z"/>
  <path class="cls-234" d="M599.6,741.6c2.8,6.2-.6,10.4-4.6,14.5.9,1,1.9,2,2.8,3,0,.7,0,1.4,0,2.1.2.5.4,1,.8,1.5-3.9,5.7-8.9,10.2-14.9,13.6,1.2-4.3,0-9,2.3-13.2.9-1.6-1.4-2-2.8-2.3,4.4-7.2,10.3-13.2,16.2-19.2Z"/>
  <path class="cls-126" d="M552.1,781.9c-4.5.9-5.4,5.7-8.7,7.9-2.1,1.4-4.2,4.3-5.3-.7,5.2-7.6,13.4-12.6,17.7-20.9,1.1-1.2,2.2-2.4,3.4-3.6,1.1-.1,2.3-.2,3.4-.3-2.4,6.6-8.8,10.8-10.5,17.7Z"/>
  <path class="cls-113" d="M606.7,929.4c.8,3.1-2,8.5,5,7.4-1.2,1-2.3,2.1-3.4,3.1-.2-.1-.4-.2-.6-.4.2.1.4.2.6.4-3.2,3.5-6,8.6-11.6,6.4-4.4-1.7-1.7-6.6-2.4-9.9,2.4,1.4,4.9,2.8,7.3,4.1-2.6-3.9,3-4.7,2.9-8.5-3.7,1.7-8.5-1.3-10.2,4.4-2.6,0-4.9,1-7.3,1.7-6.4,1.7-12.2,5.2-19,5.3-9.6-7.4-18.8-15.1-26.4-24.6-.8-5.5-6.3-8.5-7-14,23.2,11.6,49.8,8.8,72.1,24.5Z"/>
  <path class="cls-190" d="M690.7,969.8c-5.8,4.2-12.5,6.4-19.1,8.9-21,0-30.5-2.9-51-10.6,3.5,0,6.9,0,10.3-1.4,13.1-5.1,26.7-7,40.7-5.7,0,3.5-.2,6.9,4.9,7.1,4.8.2,9.5,1.1,14.2,1.7Z"/>
  <path class="cls-228" d="M671.5,961c-14-1.3-27.6.6-40.7,5.7-3.4,1.3-6.8,1.3-10.3,1.4-7.5-1-14.6-3-21-7,4.5-4.6,10-8.4,9.2-16.5,1.5,1.2,2.2,1.8,2.9,2.3-1.4,10.8,15.9,14.4,23.7,13.9,1.7-3.3,2.9-20.1,8.2-18.8-.8,4.4.6,8.1,4.2,10.3-.9,2.1-4.1,1.6-2.5,5.2,4.5,0,25-3.7,26.3,3.5Z"/>
  <path class="cls-51" d="M611.6,946.9c-.7-.5-1.4-1.1-2.9-2.3.9,8.1-4.7,11.9-9.2,16.5-12.4-2.5-22-10.1-31.6-17.6,6.8-.1,12.6-3.7,19-5.3,2.4-.6,4.7-1.6,7.3-1.7h0c.7,3.4-2,8.3,2.4,9.9,5.6,2.1,8.5-2.9,11.6-6.4h0c1.2-1,2.3-2.1,3.5-3.1,3.9,3.4,2,6.7-.1,10.1Z"/>
  <path class="cls-13" d="M671.5,961c-1.3-7.2-21.8-3.5-26.3-3.5-1.6-3.6,1.6-3.1,2.5-5.2-3.6-2.2-5-5.9-4.2-10.3,1.1,0,2.3,0,3.4,0,7.2,10,29,11.2,34.4-1.6,3.6,1.3,0,4.1,2.2,5.6,9.8.4,16.6,6.6,23.1,13.3-2.3,1.8-4.7,3.6-7,5.4-3,1.7-5.9,3.4-8.9,5.1-4.7-.6-9.5-1.5-14.2-1.7-5.2-.2-4.9-3.6-4.9-7.1Z"/>
  <path class="cls-161" d="M525.6,869.8c0-1.2.2-2.4.3-3.7,6-5.7,54.1,8.3,65.2,9.1.5.3-1,5,3.2,4.9,1.9.3,3.6,1.3,3.3,3.3-1,5.9,3.4,7.9,7.1,10.5-1.9,1.7-3.5,4.3-5.7,5.1-9.8,3.3-9.6,9-4.8,16.3-10.2-3.5-3.4-12.1-9.8-17.2-14.7-11.7-39.6-1.5-55-7.4-2-6.9-4.1-13.7-3.8-21Z"/>
  <path class="cls-227" d="M529.4,890.7c15.4,5.9,40.3-4.3,55,7.4,6.5,5.1-.4,13.7,9.8,17.2,4.2,4.7,8.3,9.3,12.5,14-22.3-15.7-48.9-12.9-72.1-24.5-2.3-4.5-4.4-9-5.2-14.1Z"/>
  <path class="cls-50" d="M637.7,896.3c35.5,20.7-12,25.5-22.6-1.9.6-.6,1.2-1.3,1.8-1.9,7.3-1.1,13.9,2.2,20.7,3.8Z"/>
  <path class="cls-246" d="M654.2,860.5c-3.4,4.1-9.6.4-12.5,5-2.2-2.1-1.5-4.2-1.6-6.1,4.7.2,9.6-2,14.2,1.1Z"/>
  <path class="cls-114" d="M594.3,880.2c-4.2,0-2.8-4.7-3.2-4.9-11.1-.8-59.2-14.8-65.2-9.1-1.2-15.6.7-30.8,5.1-45.8.8-2.6,1.4-5.1,3.5-6.9-4,43.6,47.1,29.8,53.8,55.8,4.4-3.7.6-9,4-12.5,9.9,4.4,2.2,16,2,23.4Z"/>
  <path class="cls-96" d="M643.5,734.7c.5-.6,1-1.3,1.5-1.9.2,1.1-.5,1.6-1.5,1.9Z"/>
  <path class="cls-280" d="M706.6,959.2c-6.5-6.7-13.3-12.8-23.1-13.3-2.2-1.5,1.4-4.2-2.2-5.6-5.4,12.8-27.2,11.6-34.4,1.6,11.6,1.2,20.4-5.5,29.6-11,18.5.6,9.5,8.5,21.3,15.6,13.6-22.6,14.5,4.6,16,5.8-1.9,2.8-4.2,5.1-7.2,6.8Z"/>
  <path class="cls-261" d="M843.6,534.5c0,.5,0,.9.1,1.4-.2,1.5-.3,3-1.9,3.8-3.9-2.4-5.5-7.6-10.4-8.8,0,0-.2-.3-.2-.3l-1.3-1.1c-1.2-.7-2.5-1.5-3.7-2.2-3-2.9-6.1-2.4-9.2-.1-.6-.6-1.3-1.2-1.9-1.8,0-.6.1-1.2.5-1.6,1.2-.6,2.4-1.3,3.6-1.9,3.5.3,6.9.7,10.4,1,.9.4,1.9.8,2.8,1.3,3.7,3.5,7.5,7,11.2,10.5Z"/>
  <path class="cls-33" d="M815.4,525.3c.6.6,1.3,1.2,1.9,1.8.4,1.9.2,4,2,5.5.5,2.7,1.3,5.2,3.6,7,0,2.6,1.5,4.1,3.5,5.2h0c0,1.4.3,2.7,1.5,3.6.7.6,1.3,1.1,2,1.7.6.5,1.2,1,1.8,1.5h.2c0,.7,0,1.4,0,2.1-9.4-4.2-15.1-11.4-17.9-21.1.6-2.4-.8-5.1,1.4-7.2Z"/>
  <path class="cls-52" d="M829.5,522.7c-3.5-.3-6.9-.7-10.4-1,3.6-1.2,7.9-9.4,10.4,1Z"/>
  <path class="cls-85" d="M840.4,685.6c-4.1,7.3-10.6,11.8-17.9,15.4-.8-3-7.4-1.6-5.2-6.9,2.7-.3,3.4,2.3,5.1,3.4,1.6.2,2.9-.4,3.8-1.7.5-.5,1-1.1,1.5-1.6.3-.3.5-.6.8-.9-.3.3-.6.6-.8.9-2.6-2.5-1.4-5.7-1.7-8.7.6-1.2,1.1-2.5,1.7-3.7.8,1.3,2.1,1.8,3.6,1.8,2.1,2.2-.7,4.9.7,7.4,2.2-1.5,4.3-2.8,4.6-5.7h0c1.1,0,2.3,0,3.4-.1l.4.4Z"/>
  <path class="cls-214" d="M817.3,694.1c-2.2,5.3,4.4,3.9,5.2,6.9-3.1.9-5.9,0-8.5-1.8-.7-1.1-1.4-2.3-2.1-3.4,1.2-7.7,4.1-14.5,10.7-19.1,1.8,2.8,3.5.3,5.2-.1,0,1.2,0,2.3,0,3.5,0,.6,0,1.2,0,1.7-.6,1.2-1.1,2.5-1.7,3.7-.6,0-1.2,0-1.7,0-1.2-2.3-2.6-4-4.7-.9-1.4,2-2.5,4.2-3.8,6.3-.1,1.4.2,2.6,1.5,3.3Z"/>
  <path class="cls-259" d="M843.6,673c3.7,4-.8,7-1.3,10.5-.7.7-1.3,1.4-2,2.1,0,0-.4-.4-.4-.4.7-2.9,1.3-5.8,2-8.7.6-1.2,1.1-2.3,1.7-3.5Z"/>
  <path class="cls-225" d="M843.6,673c-.6,1.2-1.1,2.3-1.7,3.5,0,0,0,0,0,0-4.8-10.8-9.4-1-14.1,0-1.7.4-3.4,2.9-5.2.1,3.1-2.3,6.2-4.6,9.3-6.9,4.1.6,9.5-3.9,11.7,3.3Z"/>
  <path class="cls-56" d="M818.9,674.7l-.8.3s-.8,0-.8,0c0-.5.1-1.1.2-1.6.5-.3,1.1-.5,1.6-.8,0,.7-.1,1.4-.2,2.1Z"/>
  <path class="cls-63" d="M815.4,676.6c0,1.8-.4,3.3-2.8,4.5,0-2.4,1-3.7,2.8-4.4,0,0,0,0,0,0Z"/>
  <path class="cls-63" d="M808.5,685.3c0-.5.3-.8.7-.8-.3.2-.5.5-.8.7,0,0,0,0,0,0Z"/>
  <path class="cls-146" d="M817.4,673.3c0,.5,0,1.1-.2,1.6,0,0,0-.1,0-.1-.5,0-1.1,0-1.6.2.6-.5,1.1-1.1,1.7-1.6Z"/>
  <path class="cls-56" d="M815.8,675c.5,0,1.1-.1,1.6-.2-.6.6-1.3,1.2-1.9,1.8,0,0,0,0,0,0,0-.6,0-1.1.3-1.7Z"/>
  <path class="cls-151" d="M831.9,553.7l-.4-1.7c4.1-2.2,3.6-5.3,2.1-8.6,0,0-.3-.5-.3-.5,1-4-.9-7-3.2-9.8l1.2-2.2c5.3,1,6.8,6.4,10.9,8.9,2.4,4.6,4.1,9.2,0,13.9-3.4,0-6.9,0-10.3.1Z"/>
  <path class="cls-40" d="M841.9,553.6c4.1-4.6,2.3-9.3,0-13.9,1.6-.8,1.7-2.3,1.9-3.8,3.7,4.1,3.9,9,3.3,14.1-1.8,1.1-2.3,4-5.1,3.6Z"/>
  <path class="cls-69" d="M848.9,551.9c.1-.2.2-.4.3-.6-.1.2-.2.4-.4.6,0,0,0,0,0,0Z"/>
  <path class="cls-42" d="M510.4,332.5c10.5,4.6,11.9,23.3,2.2,18.1-8.2-4.5-17.5-15.1-2.2-18.1Z"/>
  <path class="cls-51" d="M594.3,936.4c1.7-5.7,6.5-2.7,10.2-4.4.1,3.8-5.6,4.7-2.9,8.5-2.4-1.4-4.9-2.8-7.3-4.1h0Z"/>
  <path class="cls-147" d="M608.3,939.9c-.2-.1-.4-.2-.6-.4.2.1.4.2.6.4,0,0,0,0,0,0Z"/>
  <path class="cls-151" d="M819,532.6c-1.7-1.4-1.6-3.5-2-5.5,3.1-2.3,6.2-2.7,9.2.1.6,1.7,1.1,3.4,1.7,5.1-1.8.5-3.8-1.7-5.5.4h-3.4Z"/>
  <path class="cls-95" d="M827.9,532.4c-.6-1.7-1.1-3.4-1.7-5.1,1.2.7,2.5,1.5,3.7,2.2.4.4.9.7,1.3,1.1,0,0,.2.3.2.3-.6.6-1.3,1.2-1.9,1.9-.6-.1-1.1-.3-1.6-.4Z"/>
  <path class="cls-151" d="M831.2,530.6c-.5-.4-.9-.7-1.3-1.1.5.4.9.7,1.3,1.1Z"/>
  <path class="cls-151" d="M826.1,544.9c-2.1-1.2-3.6-2.7-3.5-5.2,0-1.8.2-3.6.2-5.4,4.1,2,8.1,4.1,10.1,8.6,0,0,.3.5.3.5-1.9,1.7-3.8,3.4-5.6,5.1-1.3-.9-1.6-2.2-1.5-3.6.1-.2.2-.4.4-.7-.1.2-.2.5-.3.7Z"/>
  <path class="cls-276" d="M827.6,548.5c1.9-1.7,3.8-3.4,5.6-5.1,1.4,3.2,2,6.2-1.7,8.4,0,0-.2,0-.2,0-.6-.5-1.2-1-1.8-1.5-.7-.6-1.3-1.1-2-1.7Z"/>
  <path class="cls-118" d="M822.8,534.2c0,1.8-.2,3.6-.2,5.4-2.2-1.8-3.1-4.3-3.6-7,1.1,0,2.3,0,3.4.1.1.5.3,1,.4,1.5Z"/>
  <path class="cls-151" d="M829.5,550.2c.6.5,1.2,1,1.8,1.5-.6-.5-1.2-1-1.8-1.5Z"/>
  <path class="cls-143" d="M827.7,681.7c0-.6,0-1.2,0-1.7,3.2-4.5,7.9-3.5,12.3-3.4-3.6,1.9-1.4,6.2-3.6,8.7,0,0,0,0,0,0-1.8-.6-3.5-1.1-5.3-1.7-1.5,0-2.7-.5-3.6-1.8Z"/>
  <path class="cls-4" d="M817.3,694.1c-1.3-.7-1.6-1.9-1.5-3.3,5.3,2,5.6-3.7,8.5-5.5.6,0,1.2,0,1.7,0,.2,3-.9,6.2,1.7,8.7h0c-.5.6-1,1.1-1.5,1.7-1.5,0-3,.2-3.8,1.7-1.7-1.1-2.5-3.7-5.1-3.4Z"/>
  <path class="cls-139" d="M831.3,683.6c1.8.6,3.5,1.1,5.3,1.7-.3,2.9-2.4,4.2-4.6,5.7-1.4-2.5,1.4-5.2-.7-7.4Z"/>
  <path class="cls-139" d="M836.6,685.3c2.2-2.5,0-6.8,3.6-8.7.6,0,1.2-.1,1.8-.2,0,0,0,0,0,0-.6,2.9-1.3,5.8-2,8.7-1.1,0-2.3,0-3.4.1Z"/>
  <path class="cls-37" d="M822.4,697.6c.8-1.6,2.3-1.7,3.8-1.7-.9,1.4-2.2,1.9-3.8,1.7Z"/>
  <path class="cls-270" d="M827.7,694.1c.3-.3.6-.6.8-.9-.3.3-.5.6-.8.9,0,0,0,0,0,0Z"/>
  <path class="cls-142" d="M841.9,676.4c-.6,0-1.2.1-1.8.2-4.4-.1-9.1-1.1-12.3,3.4,0-1.2,0-2.3,0-3.5,4.7-1.1,9.3-10.8,14.1,0Z"/>
  <path class="cls-85" d="M824.3,685.4c-2.9,1.7-3.2,7.4-8.5,5.5,1.3-2.1,2.4-4.3,3.8-6.3,2.1-3.1,3.5-1.4,4.7.9Z"/>
  <path class="cls-189" d="M822.8,534.2c-.1-.5-.2-1-.4-1.5,1.7-2.1,3.7.1,5.5-.4.5.2,1.1.3,1.6.4,2.4,2.9,4.5,5.9,3.4,10-2-4.5-6.1-6.6-10.1-8.6Z"/>
  <path class="cls-33" d="M826.1,544.9c.1-.2.2-.5.3-.7-.1.2-.2.4-.4.7,0,0,0,0,0,0Z"/>
</svg>