<?xml version="1.0" encoding="UTF-8"?>
<svg id="Layer_1" data-name="Layer 1" xmlns="http://www.w3.org/2000/svg" version="1.1" viewBox="0 0 3940.7 799">
  <defs>
    <style>
      .cls-1 {
        fill: #a7c5d1;
      }

      .cls-1, .cls-2, .cls-3, .cls-4, .cls-5, .cls-6, .cls-7, .cls-8, .cls-9, .cls-10, .cls-11, .cls-12, .cls-13, .cls-14, .cls-15, .cls-16, .cls-17, .cls-18, .cls-19, .cls-20, .cls-21, .cls-22, .cls-23, .cls-24, .cls-25, .cls-26, .cls-27, .cls-28, .cls-29, .cls-30, .cls-31, .cls-32, .cls-33, .cls-34, .cls-35, .cls-36, .cls-37, .cls-38, .cls-39, .cls-40, .cls-41, .cls-42, .cls-43, .cls-44, .cls-45, .cls-46, .cls-47, .cls-48, .cls-49, .cls-50, .cls-51, .cls-52, .cls-53, .cls-54, .cls-55, .cls-56, .cls-57, .cls-58, .cls-59, .cls-60, .cls-61, .cls-62, .cls-63, .cls-64, .cls-65, .cls-66, .cls-67, .cls-68, .cls-69, .cls-70, .cls-71, .cls-72, .cls-73, .cls-74, .cls-75, .cls-76, .cls-77, .cls-78, .cls-79, .cls-80, .cls-81, .cls-82, .cls-83, .cls-84, .cls-85, .cls-86, .cls-87, .cls-88, .cls-89, .cls-90, .cls-91, .cls-92, .cls-93, .cls-94, .cls-95, .cls-96, .cls-97, .cls-98, .cls-99, .cls-100, .cls-101, .cls-102, .cls-103, .cls-104, .cls-105, .cls-106, .cls-107, .cls-108, .cls-109, .cls-110, .cls-111, .cls-112, .cls-113, .cls-114, .cls-115, .cls-116, .cls-117, .cls-118, .cls-119, .cls-120, .cls-121, .cls-122, .cls-123, .cls-124, .cls-125, .cls-126, .cls-127, .cls-128, .cls-129, .cls-130, .cls-131, .cls-132, .cls-133, .cls-134, .cls-135, .cls-136, .cls-137, .cls-138, .cls-139, .cls-140, .cls-141, .cls-142, .cls-143, .cls-144, .cls-145, .cls-146, .cls-147, .cls-148, .cls-149, .cls-150, .cls-151, .cls-152, .cls-153, .cls-154, .cls-155, .cls-156, .cls-157, .cls-158, .cls-159, .cls-160, .cls-161, .cls-162, .cls-163, .cls-164, .cls-165, .cls-166, .cls-167, .cls-168, .cls-169, .cls-170, .cls-171, .cls-172, .cls-173, .cls-174, .cls-175, .cls-176, .cls-177, .cls-178, .cls-179, .cls-180, .cls-181, .cls-182, .cls-183, .cls-184, .cls-185, .cls-186, .cls-187, .cls-188, .cls-189, .cls-190, .cls-191, .cls-192, .cls-193, .cls-194, .cls-195, .cls-196, .cls-197, .cls-198, .cls-199, .cls-200, .cls-201, .cls-202, .cls-203, .cls-204, .cls-205, .cls-206, .cls-207, .cls-208, .cls-209, .cls-210, .cls-211, .cls-212, .cls-213, .cls-214, .cls-215, .cls-216, .cls-217, .cls-218, .cls-219, .cls-220, .cls-221, .cls-222, .cls-223, .cls-224, .cls-225, .cls-226, .cls-227, .cls-228, .cls-229, .cls-230, .cls-231, .cls-232, .cls-233, .cls-234, .cls-235, .cls-236, .cls-237, .cls-238, .cls-239, .cls-240, .cls-241, .cls-242, .cls-243, .cls-244, .cls-245, .cls-246, .cls-247, .cls-248, .cls-249, .cls-250, .cls-251, .cls-252, .cls-253, .cls-254, .cls-255, .cls-256, .cls-257, .cls-258, .cls-259, .cls-260, .cls-261, .cls-262, .cls-263, .cls-264, .cls-265, .cls-266, .cls-267, .cls-268, .cls-269, .cls-270, .cls-271, .cls-272, .cls-273, .cls-274, .cls-275, .cls-276, .cls-277, .cls-278, .cls-279, .cls-280, .cls-281 {
        stroke-width: 0px;
      }

      .cls-2 {
        fill: #09d4f5;
      }

      .cls-3 {
        fill: #012039;
      }

      .cls-4 {
        fill: #de8610;
      }

      .cls-5 {
        fill: #0d1b1a;
      }

      .cls-6 {
        fill: #0eb3d8;
      }

      .cls-7 {
        fill: #111a1e;
      }

      .cls-8 {
        fill: #15112c;
      }

      .cls-9 {
        fill: #08688e;
      }

      .cls-10 {
        fill: #085072;
      }

      .cls-11 {
        fill: #07b5d6;
      }

      .cls-12 {
        fill: #031b34;
      }

      .cls-13 {
        fill: #f3a20d;
      }

      .cls-14 {
        fill: #3c1e0d;
      }

      .cls-15 {
        fill: #0d2031;
      }

      .cls-16 {
        fill: #c56e09;
      }

      .cls-17 {
        fill: #0f90b4;
      }

      .cls-18 {
        fill: #03c6eb;
      }

      .cls-19 {
        fill: #2dcfec;
      }

      .cls-20 {
        fill: #fbedbe;
      }

      .cls-21 {
        fill: #de8d07;
      }

      .cls-22 {
        fill: #0aa8c9;
      }

      .cls-23 {
        fill: #e7af28;
      }

      .cls-24 {
        fill: #1c6b82;
      }

      .cls-25 {
        fill: #2ae9f9;
      }

      .cls-26 {
        fill: #be5e0b;
      }

      .cls-27 {
        fill: #031f39;
      }

      .cls-28 {
        fill: #12cbe4;
      }

      .cls-29 {
        fill: #081c2c;
      }

      .cls-30 {
        fill: #678aa2;
      }

      .cls-31 {
        fill: #0ec5ea;
      }

      .cls-32 {
        fill: #f9e870;
      }

      .cls-33 {
        fill: #894c0b;
      }

      .cls-34 {
        fill: #0b1225;
      }

      .cls-35 {
        fill: #12a2bd;
      }

      .cls-36 {
        fill: #061d2f;
      }

      .cls-37 {
        fill: #feb957;
      }

      .cls-282 {
        font-family: Montserrat-Light, Montserrat;
        font-weight: 300;
      }

      .cls-282, .cls-140 {
        fill: #059ebf;
      }

      .cls-282, .cls-283 {
        font-size: 500px;
        isolation: isolate;
      }

      .cls-38 {
        fill: #19e0f6;
      }

      .cls-39 {
        fill: #10171d;
      }

      .cls-40 {
        fill: #99630c;
      }

      .cls-41, .cls-283 {
        fill: #3a6a8e;
      }

      .cls-42 {
        fill: #ecf1f3;
      }

      .cls-43 {
        fill: #eeb12e;
      }

      .cls-44 {
        fill: #e3849a;
      }

      .cls-45 {
        fill: #fcd24e;
      }

      .cls-46 {
        fill: #081a28;
      }

      .cls-47 {
        fill: #092247;
      }

      .cls-48 {
        fill: #16abc5;
      }

      .cls-49 {
        fill: #09627f;
      }

      .cls-50 {
        fill: #eba826;
      }

      .cls-51 {
        fill: #f1ab0e;
      }

      .cls-52 {
        fill: #f8c652;
      }

      .cls-53 {
        fill: #25959d;
      }

      .cls-54 {
        fill: #10a4ca;
      }

      .cls-55 {
        fill: #e1f9f7;
      }

      .cls-56 {
        fill: #b18f00;
      }

      .cls-57 {
        fill: #081d2a;
      }

      .cls-58 {
        fill: #071c39;
      }

      .cls-59 {
        fill: #0678a4;
      }

      .cls-60 {
        fill: #4d7fa2;
      }

      .cls-61 {
        fill: #0d1923;
      }

      .cls-62 {
        fill: #e2f7f6;
      }

      .cls-63 {
        fill: #a09856;
      }

      .cls-64 {
        fill: #f8ecb0;
      }

      .cls-65 {
        fill: #a9530a;
      }

      .cls-66 {
        fill: #115876;
      }

      .cls-67 {
        fill: #14cff6;
      }

      .cls-68 {
        fill: #067f9f;
      }

      .cls-69 {
        fill: #f1d543;
      }

      .cls-70 {
        fill: #f8e16c;
      }

      .cls-71 {
        fill: #072138;
      }

      .cls-72 {
        fill: #5a787e;
      }

      .cls-73 {
        fill: #1b6882;
      }

      .cls-74 {
        fill: #da8402;
      }

      .cls-75 {
        fill: #0c1e2e;
      }

      .cls-76 {
        fill: #cf780b;
      }

      .cls-77 {
        fill: #095373;
      }

      .cls-78 {
        fill: #e5cd77;
      }

      .cls-79 {
        fill: #0db8dd;
      }

      .cls-80 {
        fill: #083146;
      }

      .cls-81 {
        fill: #0488ab;
      }

      .cls-82 {
        fill: #f9ac05;
      }

      .cls-83 {
        fill: #03bfe4;
      }

      .cls-84 {
        fill: #13181a;
      }

      .cls-85 {
        fill: #b9680d;
      }

      .cls-86 {
        fill: #ebf5f6;
      }

      .cls-87 {
        fill: #046f8c;
      }

      .cls-88 {
        fill: #0fd7f8;
      }

      .cls-89 {
        fill: #caf7f9;
      }

      .cls-90 {
        fill: #07bad5;
      }

      .cls-91 {
        fill: #dbb564;
      }

      .cls-92 {
        fill: #e3880a;
      }

      .cls-93 {
        fill: #fcc335;
      }

      .cls-94 {
        fill: #0ecff7;
      }

      .cls-95 {
        fill: #d19c54;
      }

      .cls-96 {
        fill: #b7690b;
      }

      .cls-97 {
        fill: #27c2cd;
      }

      .cls-98 {
        fill: #fcca43;
      }

      .cls-99 {
        fill: #10c0e4;
      }

      .cls-100 {
        fill: #f1f4e7;
      }

      .cls-101 {
        fill: #d7f0f5;
      }

      .cls-102 {
        fill: #002b48;
      }

      .cls-103 {
        fill: #e09b23;
      }

      .cls-104 {
        fill: #1c5c77;
      }

      .cls-105 {
        fill: #c62f43;
      }

      .cls-106 {
        fill: #0b2130;
      }

      .cls-107 {
        fill: #001b35;
      }

      .cls-108 {
        fill: #03263f;
      }

      .cls-109 {
        fill: #032b48;
      }

      .cls-110 {
        fill: #036485;
      }

      .cls-111 {
        fill: #faca43;
      }

      .cls-112 {
        fill: #f5ecd7;
      }

      .cls-113 {
        fill: #f8ad19;
      }

      .cls-114 {
        fill: #fdc63d;
      }

      .cls-115 {
        fill: #c06407;
      }

      .cls-116 {
        fill: #efcb67;
      }

      .cls-117 {
        fill: #091c2b;
      }

      .cls-118 {
        fill: #e38c59;
      }

      .cls-119 {
        fill: #eec545;
      }

      .cls-120 {
        fill: #effbfa;
      }

      .cls-121 {
        fill: #182021;
      }

      .cls-122 {
        fill: #053b56;
      }

      .cls-123 {
        fill: #d4800d;
      }

      .cls-124 {
        fill: #66250b;
      }

      .cls-125 {
        fill: #091b24;
      }

      .cls-126 {
        fill: #f7c53d;
      }

      .cls-127 {
        fill: #1b1d1c;
      }

      .cls-128 {
        fill: #041b32;
      }

      .cls-129 {
        fill: #021a34;
      }

      .cls-130 {
        fill: #effafc;
      }

      .cls-131 {
        fill: #094662;
      }

      .cls-132 {
        fill: #21a6be;
      }

      .cls-133 {
        fill: #041d36;
      }

      .cls-134 {
        fill: #dff9f9;
      }

      .cls-135 {
        fill: #f0fcf8;
      }

      .cls-136 {
        fill: #144161;
      }

      .cls-137 {
        fill: #0c85a4;
      }

      .cls-138 {
        fill: #a9c5ce;
      }

      .cls-139 {
        fill: #e6912a;
      }

      .cls-141 {
        fill: #21687f;
      }

      .cls-142 {
        fill: #b05f30;
      }

      .cls-143 {
        fill: #c88303;
      }

      .cls-283 {
        font-family: Montserrat-Medium, Montserrat;
        font-weight: 500;
      }

      .cls-144 {
        fill: #09202e;
      }

      .cls-145 {
        fill: #041c34;
      }

      .cls-146 {
        fill: #e6c629;
      }

      .cls-147 {
        fill: #eda040;
      }

      .cls-148 {
        fill: #e4f9f7;
      }

      .cls-149 {
        fill: #f9e595;
      }

      .cls-150 {
        fill: #bacfd5;
      }

      .cls-151 {
        fill: #ce8a19;
      }

      .cls-152 {
        fill: #17748f;
      }

      .cls-153 {
        fill: #f0ae1e;
      }

      .cls-154 {
        fill: #f1b422;
      }

      .cls-155 {
        fill: #d27e04;
      }

      .cls-156 {
        fill: #1fcbe9;
      }

      .cls-157 {
        fill: #fdcb47;
      }

      .cls-158 {
        fill: #c4e5f3;
      }

      .cls-159 {
        fill: #04afd3;
      }

      .cls-160 {
        fill: #e3f5f8;
      }

      .cls-161 {
        fill: #fcbf31;
      }

      .cls-162 {
        fill: #0acdf5;
      }

      .cls-163 {
        fill: #d78717;
      }

      .cls-164 {
        fill: #d78911;
      }

      .cls-165 {
        fill: #e79a0c;
      }

      .cls-166 {
        fill: #ea6b76;
      }

      .cls-167 {
        fill: #0c1c2b;
      }

      .cls-168 {
        fill: #03243f;
      }

      .cls-169 {
        fill: #051c35;
      }

      .cls-170 {
        fill: #f9b20d;
      }

      .cls-171 {
        fill: #9cc1d1;
      }

      .cls-172 {
        fill: #06e1f7;
      }

      .cls-173 {
        fill: #022640;
      }

      .cls-174 {
        fill: #0d8cb0;
      }

      .cls-175 {
        fill: #0a5f7f;
      }

      .cls-176 {
        fill: #fcb823;
      }

      .cls-177 {
        fill: #0ed9fa;
      }

      .cls-178 {
        fill: #e9aa19;
      }

      .cls-179 {
        fill: #1c677d;
      }

      .cls-180 {
        fill: #ecf5fa;
      }

      .cls-181 {
        fill: #c1700a;
      }

      .cls-182 {
        fill: #129bbc;
      }

      .cls-183 {
        fill: #a2bfce;
      }

      .cls-184 {
        fill: #8bcbcf;
      }

      .cls-185 {
        fill: #06c0e3;
      }

      .cls-186 {
        fill: #fad25d;
      }

      .cls-187 {
        fill: #bc6104;
      }

      .cls-188 {
        fill: #234961;
      }

      .cls-189 {
        fill: #a06b09;
      }

      .cls-190 {
        fill: #e99609;
      }

      .cls-191 {
        fill: #be6a04;
      }

      .cls-192 {
        fill: #db8f19;
      }

      .cls-193 {
        fill: #efe9e4;
      }

      .cls-194 {
        fill: #597d94;
      }

      .cls-195 {
        fill: #e0f7f7;
      }

      .cls-196 {
        fill: #ecbd65;
      }

      .cls-197 {
        fill: #073552;
      }

      .cls-198 {
        fill: #f4f3ca;
      }

      .cls-199 {
        fill: #0c6a92;
      }

      .cls-200 {
        fill: #01b6d8;
      }

      .cls-201 {
        fill: #0b1e2f;
      }

      .cls-202 {
        fill: #119bbc;
      }

      .cls-203 {
        fill: #a25409;
      }

      .cls-204 {
        fill: #06e8f6;
      }

      .cls-205 {
        fill: #1a1a0a;
      }

      .cls-206 {
        fill: #78c8cb;
      }

      .cls-207 {
        fill: #11caf2;
      }

      .cls-208 {
        fill: #ae5703;
      }

      .cls-209 {
        fill: #066384;
      }

      .cls-210 {
        fill: #aac7d8;
      }

      .cls-211 {
        fill: #0a5e7c;
      }

      .cls-212 {
        fill: #1b6983;
      }

      .cls-213 {
        fill: #02223c;
      }

      .cls-214 {
        fill: #98490a;
      }

      .cls-215 {
        fill: #055d7b;
      }

      .cls-216 {
        fill: #c3a257;
      }

      .cls-217 {
        fill: #001c35;
      }

      .cls-218 {
        fill: #0c6487;
      }

      .cls-219 {
        fill: #f3c653;
      }

      .cls-220 {
        fill: #f1f3c8;
      }

      .cls-221 {
        fill: #456d83;
      }

      .cls-222 {
        fill: #cf8422;
      }

      .cls-223 {
        fill: #0cc0e7;
      }

      .cls-224 {
        fill: #05badb;
      }

      .cls-225 {
        fill: #75290a;
      }

      .cls-226 {
        fill: #02badd;
      }

      .cls-227 {
        fill: #fcb727;
      }

      .cls-228 {
        fill: #e8a11b;
      }

      .cls-229 {
        fill: #efebc5;
      }

      .cls-230 {
        fill: #091b28;
      }

      .cls-231 {
        fill: #f6eed7;
      }

      .cls-232 {
        fill: #cd8f26;
      }

      .cls-233 {
        fill: #08c6ef;
      }

      .cls-234 {
        fill: #dea020;
      }

      .cls-235 {
        fill: #037697;
      }

      .cls-236 {
        fill: #061f39;
      }

      .cls-237 {
        fill: #9fbdc7;
      }

      .cls-238 {
        fill: #b65e03;
      }

      .cls-239 {
        fill: #66e2f1;
      }

      .cls-240 {
        fill: #38c6d7;
      }

      .cls-241 {
        fill: #0abfdf;
      }

      .cls-242 {
        fill: #a75e17;
      }

      .cls-243 {
        fill: #0ec8ea;
      }

      .cls-244 {
        fill: #051c2f;
      }

      .cls-245 {
        fill: #12c3d7;
      }

      .cls-246 {
        fill: #facb3b;
      }

      .cls-247 {
        fill: #0e617b;
      }

      .cls-248 {
        fill: #dbf1f5;
      }

      .cls-249 {
        fill: #051b29;
      }

      .cls-250 {
        fill: #eec625;
      }

      .cls-251 {
        fill: #0f6a92;
      }

      .cls-252 {
        fill: #265978;
      }

      .cls-253 {
        fill: #21b3c4;
      }

      .cls-254 {
        fill: #cf2f48;
      }

      .cls-255 {
        fill: #01223c;
      }

      .cls-256 {
        fill: #bf5e0b;
      }

      .cls-257 {
        fill: #05a7ce;
      }

      .cls-258 {
        fill: #16e3f6;
      }

      .cls-259 {
        fill: #b46d08;
      }

      .cls-260 {
        fill: #bc5604;
      }

      .cls-261 {
        fill: #64360f;
      }

      .cls-262 {
        fill: #f2ce52;
      }

      .cls-263 {
        fill: #21485f;
      }

      .cls-264 {
        fill: #06dcfa;
      }

      .cls-265 {
        fill: #f0f7f8;
      }

      .cls-266 {
        fill: #03accb;
      }

      .cls-267 {
        fill: #c06a0b;
      }

      .cls-268 {
        fill: #08202d;
      }

      .cls-269 {
        fill: #587a97;
      }

      .cls-270 {
        fill: #fec151;
      }

      .cls-271 {
        fill: #0c2e48;
      }

      .cls-272 {
        fill: #f8d83a;
      }

      .cls-273 {
        fill: #e3f8f8;
      }

      .cls-274 {
        fill: #0a1824;
      }

      .cls-275 {
        fill: #f69f0a;
      }

      .cls-276 {
        fill: #f6af34;
      }

      .cls-277 {
        fill: #e7f7f7;
      }

      .cls-278 {
        fill: #e6b733;
      }

      .cls-279 {
        fill: #18d1f3;
      }

      .cls-280 {
        fill: #eea817;
      }

      .cls-281 {
        fill: #cd9415;
      }
    </style>
  </defs>
  <g>
    <path class="cls-236" d="M504.3,132.6c-.8,1.8-1.6,3.5-2.3,5.3-3.3.2-2.3,4.3-5.1,5.5-.2-1.7,1.5-3.7-.9-4.8-7.7,1.8-3.3,12-5.2,17-2.1,2.8-5.3-.8-6,2.9-6.2-6,11.1-44.6,13.2-50.8,2.5-7.4,15.5-30.7,12.7-38.4,3.4-.8,6.5-4.6,6.2-7.7-5,2.6-4.3-4.2-8-4.6,5.4.2,6.6-3.7,8.1-7.1,1.6,2.4,5.1.2,6.6,2.8.9,1.2,1.9,2.5,2.8,3.7,2.8,4.7,2.4,9.2.3,14.3-8.3,20.4-16,40.9-22.3,62h0Z"/>
    <path class="cls-133" d="M261.6,132.2c17.5-10-.5-78.4-.8-95.3l1.8-1.9c5,0,8.4-5.7,13.9-3.9.8,4.5-5.8,22.7-4.9,32.2,1.9-.7,0-3,1.7-3.4,3.1,4.4.7,9.2.7,13.9,2.4-.6,3.5-1.9,3.9-4,.4.8.9,1.5,1,2.3,2.3,22.1,1.9,44.1-.8,66.1-.5,3.9-.4,7,4.8,4.1,6.7-.7,12.9,2.3,19.4,2.7-2.7,5.6-8.4.6-12.2,3.5,1.5,2.4-1,4.5-1,6.8l-3.5.5c-.4-1.6.4-3.5-1.5-5.1-4.5,1.2-11.5-2.6-14.8.8.3-.3-.3,20.3-.3,20.3h40.1c-4.9,1-19.9,2.5-19.7,8-2.2.8-4.7-.1-6.8,1.4-23.7,1.6-46.6,10.2-66.1,23.7-3.5,2.4-37.6,31.3-29.3,36.5-2.6,5-.3,10.4-1.9,15.3,3.4,2.6,8-1,10.7,2.8-1,3.8-5.6.4-6.6,3.9,2.4,1.7,5.7-.4,7.9,3.3,1.4-11.5,13.2-11.4,9.5-3.4-56.1,55.3-97.9,109.4-110.2,190.2,3.2-.6,4.4-3.2,6.5-4.6,4.2-1,41.1-13.7,41.5-16.5.8-.1,1.7-.2,2.5-.3,2,1,4,2.3,6.1,3,4.7,1.5,8.9,3.5,11.4,8-26.3,5-49,17.2-69.5,33.9-8.9,6.4-17,13.7-23.6,22.4-27.5,31.5-41.2,68.6-44.7,109.9-.2,2,0,3.8,1.5,5.3-.5,9.5-.6,19,1.7,28.7,3.8-5.4,7.4-10.6,11-15.8,5.9-1.5,8.3-7.1,12.4-10.8,18.9-16.7,41.1-27.2,64.9-34.3,20.1-6,36.2-16.2,44.3-36.4l2.8-3c9.2-4.4,10.8-13.8,14-23.2,1.9,9.1,1,17.1,1.4,25.2l-2.2,9.4c-4.8,8.8-7.5,18.4-10.9,27.7-1.5-.6-1.3-3.4-4.1-2.8-3.4,6.8-5.3,24.8-11.9,27.3,1.4-5.1-1.3-7.3-4.6-9-3.6-1.4-2.1-6.4-6-8.1-2.8,10.9,4.4,22.8,3.5,33.9-6.7,15.6,7.2,28.6,12.9,41.4-12.1,2.3-5.6-9.2-10.6-13.3-4.2-3.4-8.8-3.2-12.4-6.5,9.9-2,5-50.6-4.3-56.2-14.3-8.7-34.3,10.9-48.7,12.4,2,2.2,4.6.9,5.9,3.2.6,3.4-4,7.5,0,11.3-10.5-15.5-67.4,79.5-67,79.6-1.9-5.9-6-11.1-6-17.7,4.5-12.2-3-27.1-4.2-39.4-1.4-13.9-1.2-29.2,0-43.1,2.7-30.2,20.4-51.7,26.7-79.5-.4-.5-1-1-1.1-1.6-3.1-25.6-5.8-51.2-2.7-77,9.5,9.2-7,36.1,2.6,45.3-.7,9,2,17.5,3.7,27.7,2.5-5.7,21-31.4,27.3-33.1,11.5-23.2,12.1-50.6,20.4-76.2,9-27.6,22.3-52.5,36.7-77.5,10.7-8.4,31.6-34.7,38.3-46.6,7.3-13,2.9-33.6,6.8-50.4,1-1.8,1.5-4.1,3.7-4.9,6.9-2.6,8.5-9.9,13.1-14.5,15.1-11.6,28.5-22.6,46.3-30.6,15.4-6.9,38.4-20.3,28.9-42.8l.5-1.4v.2ZM184.3,258.5c-5-.5-9-2.7-12.9-7.1-2.3,9.5.3,16.3,5.2,22.2,8-2.2.3-11.9,7.6-15.1h0ZM147.5,571.2c3.9,3.5-2,10.5,6.2,9.9,3.7-.3,7.7-2.2,6.1-6.9-2-6.1-6.9-2-12.3-2.9h0Z"/>
    <path class="cls-12" d="M516.9,49.9c-1.6,3.4-2.7,7.3-8.1,7.1,3.7.4,3,7.2,8,4.6.4,3.2-2.7,6.9-6.2,7.7h-1.2c6.1-13.7-71.2-30.8-81.5-32.4-15.3-3.6-30.8-5.8-46.6-5-9.2,0-18.3,0-27.5-.1-13.2-.4-26.4.1-40.9,3.5,2.7-3.2,5.7-1.1,6.7-4-2.8-1.7-6.2.1-9.1-1.9-.8-2.9.1-7.8-5.7-6.7,13-13.5,61.3-6.2,79.8-4.6,24.8,2.1,49.4,6.6,73.9,10.1-.5,1.9-3,0-3.3,2.1,2.1.8,4.7-.5,6.6,1.2-1.1,3.3-5.4,0-6.1,3.6,7.1,3.3,15.9-8.6,21.9,2.6,10.1-1.7,28,15.3,36.7,9.9,1.2.4,2.6.6,2.4,2.4h.2Z"/>
    <path class="cls-117" d="M514.5,47.5c-8.8,5.4-26.7-11.6-36.7-9.9-6-11.2-14.7.7-21.9-2.6.7-3.7,5-.4,6.1-3.6-2-1.6-4.5-.4-6.6-1.2.3-2,2.8-.1,3.3-2.1-24.5-3.4-49.1-8-73.9-10.1-18.5-1.6-66.8-8.9-79.8,4.6-10.1-.3-18.3,6.5-28.1,7.3-.1,0-.3.3-.4.5-5.6-1.8-9.1,4.2-14.3,3.9.9-23,103.8-21.3,119.3-20.5,46,2.4,91.9,12.5,133,33.7Z"/>
    <path class="cls-29" d="M260.8,36.5c.5,17.2,17.9,83.8,1.3,94.8.7-17.2,2-34.4.8-51.6-.9-12.9-7.8-30.3-4.6-42.9.8,0,1.6-.2,2.5-.3h0Z"/>
    <path class="cls-213" d="M597.3,672c-7.2,8.3-12.9,18-22,24.6-3-2.7-.5,1.9-.5-5-.8-1.6-2.3,1.5-3.3-1.6,1.4-.9,3.1-2.1,6.2-4.2-7.3,0-13.9-32.6-11.6-38.4,2.1,2.3,1.7,5.6,3.7,8.7,35.6-41.5,59.7-88,68.6-142,1.8-13.3,3.6-26.7,5.4-40,.7.4,1.3.9,2.6,1.7,0-13.1,5-41.4-3.9-52.2-9.9-27.5-11-57.3-22.4-85-10.7-25.9-24.3-53.5-42.3-75.2,5.8-5.2,14-23.2-1.7-23-5.8-9.8,19.4-1.7,19.9-1.8,7.9,3,16.7,20.8,20.6,27.4,1.8-.1,2.6-1.3,2.8-2.9,7.5,11.9,14.7,23.8,21,36.4,7.3,14.3,13,29.3,18.9,44.2,4.7,15.1,7.2,30.7,11.7,45.9,1.1,3.8,3.2,7.8,2.5,12.1-5.9,10.7,1.3,31.6,1.7,43.6.7,21.3-1.8,42.6-2.6,63.9h0c-7,4.2-7.2,31.3-10.1,39.6-3.3,9.3-16.9,33.5-12.6,43.1-6.9,17.4-15.7,33.3-26.4,48.6-5.2,7.4-17.4,29.3-26.1,31.7v-.2Z"/>
    <path class="cls-57" d="M672.4,509.2c.8-21.3,3.3-42.5,2.6-63.9-.4-12-7.6-32.9-1.7-43.6,5.2,28.4,5.3,57,2.6,85.6-.7,7.3,0,15-3.6,21.9h.1Z"/>
    <path class="cls-144" d="M649.8,591.8c-4.4-9.6,9.3-33.8,12.6-43.1,2.9-8.2,3-35.3,10.1-39.6,0,15.6-4.6,30.5-9.1,45.2-3.9,12.7-8,25.4-13.5,37.5h0Z"/>
    <path class="cls-129" d="M206.8,262.4c3.6-8-8.1-8.1-9.5,3.4-2.2-3.7-5.5-1.6-7.9-3.3,1-3.5,5.7,0,6.6-3.9-2.6-3.8-7.3-.2-10.7-2.8,1.6-4.8-.7-10.3,1.9-15.3,7.2-8.4,14.5-16.7,22.8-24,6.3,1.9,46.4-20.7,53.6-24.2,39-8.6,77.2-6.4,114.5,7.8,19.6,7.5,38.5,16.8,58.2,24,4.3,1.6,36.1,12.4,34.2,6.7,14.9,2.9,32.6,7.1,47.7,3.2,5.5-1.4,28.2-11,17-21,5.7-12.6-23.6-13.1-28.9-12.8,1.5,1.3,27.5,12.9,29.1,12.7-3.3,33.6-83.1,9.2-99.2,1.1-5.8-2.5-11.6-5-17.4-7.6,5.8-1.7,11.7-4.3,17.7-2,3.7,1.4,7.2,2.3,11.1,1.8,9.3.5,17.7,6.8,27.9,4.7-.5-1.6-.8-2.8-1.1-3.9,4.3-9.6,5.5-19.9,6.4-30.2,0-.4-.8-1-1.2-1.4,1-.6,2.5-.7,2.9-2.3-1.8-1.2-3.7-2.5-5.2-3.5.7-5.2,6-6.7,7.6-11,.7-3.6,3.9,0,6-2.9,1.9-5-2.5-15.2,5.2-17,2.3,1.1.7,3.1.9,4.8,2.9-1.2,1.9-5.3,5.1-5.5-1.5,5.4-3.5,10.8-2.9,16.6-3.2,3.9-3.6,27.1.6,30.6,6.6,5.5,26.4,2.2,35.4,6.8,10.9,5.6,20,15,19.3,28-.5,9.9-8.6,12.9-8.9,21.4-12.2,11.6-28,12.7-43.8,14.8.9,2.6,1.7,4.8,2.5,7-1,6.8-8.2,14.6-2.5,20.8-2,2.7-4.6,4.5-7.5,5.3-.6-11.2-4.7-21.1-11-30.2-2.6-3.8-5.9-6.8-11.1-6-.9,0-1.9,0-2.8.1-68.4-8.4-144.6-64.9-211.9-17-3.1-.9-5.8.2-8.6,1.5-14.8,6.9-28.7,15.4-42,24.8h0Z"/>
    <path class="cls-108" d="M545.5,241.3c.3-8.6,8.4-11.6,8.9-21.4.7-13-8.4-22.4-19.3-28-9-4.6-28.9-1.3-35.4-6.8-4.2-3.5-3.8-26.7-.6-30.6,22.3,10.7,54.8,27,69.5,48.1,7.3,8.2,15.8,15.4,22.2,24.4-1,.6-2.4.8-2.7,2,2,3.9,7,5.1,7.9,9.7-.6,0-25.7-8-19.9,1.8,15.7-.2,7.5,17.8,1.7,23-9.1-8.9-15.7-20.1-25.3-28.6-2.8,2.2-4.1,5.2-6.9,6.4h-.1Z"/>
    <path class="cls-201" d="M590.8,227c1.3,1.3,2.6,2.6,3.9,3.8,8.4,10.6,17.1,21,24.6,32.3-.2,1.7-.9,2.8-2.8,2.9-3.9-6.6-12.6-24.5-20.6-27.4-.9-4.6-5.9-5.7-7.9-9.7.3-1.2,1.7-1.4,2.7-2h0Z"/>
    <path class="cls-46" d="M484.7,158.5c-1.6,4.3-6.9,5.8-7.6,11,1.5,1,3.4,2.3,5.2,3.5-.4,1.6-1.9,1.7-2.9,2.3-4.4-1.5-8.9-2.8-12.9-5.2,3.7-1.9,6.8-4.4,9.1-7.9,5.4.8,4.3-3.8,4.9-6.4,7.1-29.7,16.8-58.5,28.9-86.6h1.2c2.9,7.7-10.2,31-12.7,38.4-2.1,6.2-19.4,44.8-13.2,50.8h0Z"/>
    <path class="cls-167" d="M20.3,542.7c3.4-6.8,6.9-13.5,10.3-20.3,1.5-3,3.2-5.8,6.5-7.2-6.3,27.8-23.9,49.3-26.7,79.5-1.3,13.9-1.4,29.2,0,43.1,1.2,12.2,8.7,27.2,4.2,39.4-15.7-44.9-6-90.5,5.7-134.4h0Z"/>
    <path class="cls-173" d="M202.7,158.5c12.9-7.6,25.1-16.4,39.6-21,2.7-.9,6.1.2,8.3-2.4,4.3,3.2,6.7-2.6,10.4-2.3,9.8,22.6-13.3,36.2-28.8,43.1-17.8,7.9-31.2,19-46.3,30.6-1.5,0-16.9-15.2-14.8-18.8.4-.8,43.9-1,34.1-16.6-.9.1-10.3,11.4-9.5,3.6.4-3.9,6-8.7,10.3-8-.4-1.4-2.7-7.8-3.3-8.1h0Z"/>
    <path class="cls-217" d="M475.8,162.2c-2.3,3.5-5.4,6-9.1,7.9-25.7-7.8-52.5-16.4-79.7-17-5.3-1.5-56.3-6.7-58.8-1.2-5.6,0-11.1.2-16.7.2-.6-2.2-2.8-2.4-4.2-3.4-.2-1.7,2.7-1.7,1.9-3.8-2.1-1.3-4.5-.4-6.8-.7-6.6-.3-12.7-3.4-19.4-2.7,2.3-25.5,8.3-58.4.2-83.5-8.8-27.2-8.5-3.2-5.3,11-.3,2.1-1.5,3.4-3.9,4,0-4.8,2.4-9.5-.7-13.9-1.6.4.2,2.7-1.7,3.4-.9-9.5,5.7-27.7,4.9-32.2.1-.2.3-.5.4-.5,9.8-.8,18-7.6,28.1-7.3,5.8-1.1,4.9,3.8,5.7,6.7,2.9,2,6.2.2,9.1,1.9-1,2.9-4,.9-6.7,4,14.5-3.4,27.7-3.9,40.9-3.5.8,3.7,18.8,5,22.7,10.6,7.5,10.8,2.8,31.9,2.1,44.2-.6,10.8-9.2,40.8-3.9,49.2,5.6,8.8,25.2,7.2,36.2,8.5,16.6,2.9,33,6.8,49.1,11.8,2.8,1.5,5.8,2.4,9,2.6.7.8,1.4,1.4,2.5,1.3,1.4.7,2.7,1.5,4.1,2.2v.2Z"/>
    <path class="cls-255" d="M201.8,158.5c.6.3,2.9,6.7,3.3,8.1-4.3-.8-9.9,4-10.3,8-.8,7.8,8.6-3.5,9.5-3.6,9.8,15.6-33.7,15.8-34.1,16.6-2,3.7,13.3,18.9,14.8,18.8-4.6,4.6-6.2,11.9-13.1,14.5-2.2.8-2.7,3.1-3.7,4.9-2.8,0-4.8,1.6-6.6,3.5-15.4,15.9-29.6,32.7-42.3,50.9-9.4,4.6-22.2,39-26.3,48.2-6.8,15.5-12.5,31.9-17.2,48.2-4.5,15.8-24.8,88.1-9.9,99.9-6.3,1.6-24.8,27.4-27.3,33.1-1.7-10.2-4.4-18.7-3.7-27.7v-60.8c4.8-19.3,6.4-38.8,12.4-58s18.1-34.7,13.2-44.4c3.1-8.7,8.4-16.4,11.3-25.1,4.6-13.5,15.6-22.8,21.4-35.4,4.6-6.1,9.1-12.2,13.7-18.3.3-.4.5-.8.8-1.1,5.9-6.9,12.4-13.3,17.6-20.8,1.6-9.9,28.8-26.6,36.3-32.5,12.5-9.9,25.6-20.2,40.1-27h0Z"/>
    <path class="cls-3" d="M185.9,726.4c-19.6-12.4-36.7-27.7-51.8-45.2,6-6.5,1.3-11.7-4-14.6,9.4,3,29.2,7.8,15.1,18.4,7.4,0,28-4.2,25.6,9.3-1.4,2.4-6.9-1.1-6,4.6,28.2,5.3-3.6-19.4-5.4-21.7,1.9-4.7,3.1-9.3-2.1-12.8-5.7-12.9-19.6-25.9-12.9-41.4,8.9,9.9,10.5,29.2,19.7,40.8,11.1,14,26.6,27,42.3,35.7,1.3,3,4.5,2.9,6.8,4.5,17.5,11.9,36.6,20.8,56.7,27.7,3.3.9,6.6,1.7,9.9,2.6,10.2,3.8,20.7,6.1,31.3,8,8.1,2,16.2,4,24.6,3.5-6.8,17.4,6.8,10.6-8.2,17.3-2.7,1.2-14.3-6.8-13.2.8,5.5,4.6,12.8,2.7,17.8,7-11.1-1.2-20.2,4.3-31.2,2.4-22.3-8.6-44.4-14.7-65.8-25-10.2-4.9-39.2-23.6-49.3-21.6v-.3Z"/>
    <path class="cls-81" d="M165,542.6c-.8.9-1.5,1.8-2.3,2.8-.9-.5-61,31.3-67.5,34.6-13.9,7-53.4,27.3-54.3,45.5-3.6-.7-5.1,1.8-6.7,4.6-.8-12,2.9-25,1.2-36.5,2.4-7.8,3.4-16.2,9.5-22.4,12.6,1.5,34.3-16.5,46.1-22.2,13.5-6.5,29-12,40.7-21.6,5.1-1.3,8.7-4.9,13-7.7,11.2-7.3,19.9-17.1,28.3-27.3.7-.5,1.4-.9,3.4-2.3-3.1,7.8-3.9,27.7-2.5,35.8-1.9,6.2-6.6,10.9-8.9,16.9v-.2Z"/>
    <path class="cls-107" d="M157.5,664.3c5.2,3.5,4,8.1,2.1,12.8,1.7,2.3,33.6,27,5.4,21.7-.9-5.7,4.5-2.1,6-4.6,2.4-13.5-18.2-9.3-25.6-9.3,14.1-10.6-5.7-15.5-15.1-18.4,5.3,2.9,9.9,8.1,4,14.6-18.8-19.6-34.6-41.4-46.5-65.9-4.1-3.8.5-7.9,0-11.3-1.4-2.4-3.9-1-5.9-3.2,14.4-1.5,34.5-21.1,48.7-12.4,9.2,5.6,14.1,54.2,4.3,56.2,3.6,3.3,8.2,3.1,12.4,6.5,5,4.1-1.5,15.6,10.6,13.3h-.3Z"/>
    <path class="cls-215" d="M167.8,581.4c3.8-10.6,6.8-21.5,12.9-31.1,1.3,10.5-6,18.9-4.4,28.5.9,5.2,7.8,14.1,10.3,19.6,6.7,15.3,6.6,38.7,20.2,50.3,6.6,11.9,13.2,23.8,19.7,35.7,1.1,2,1.8,4.5,4.8,4.5,4,8.2,7.4,16.9,14.4,23.3,1.9,1.8,2.6,3.8,2.4,6.3-14.3-.7-29.7-19.3-43.9-23.3-7.7-12.7-15.5-24.9-21.7-38.4-4.4-9.6-8.3-34.4-15.9-41.7-1.9-11.3-5-22.7,1.3-33.8h0Z"/>
    <path class="cls-73" d="M120.2,280.2c12.6-18.2,26.9-35,42.3-50.9,1.8-1.9,3.8-3.4,6.6-3.5-3.9,16.9.5,37.4-6.8,50.4-6.7,11.9-27.6,38.2-38.3,46.6-9.8,2.9-14.7,20.6-19.8,28.1-3.4-6.1,5.2-11.4.3-17.2-3.8.9-8.5,24.7-10.5,29.7.8,2,3.9.3,3.8,3-3.8,3.6-6.3-1-9.4-1.8-2.2,6.9,6.3,17.4-2.9,20.6.4-17.4-5.9-17.6,6.8-31.9-9.9-18.5,37.7-61.4,27.9-73.1h0Z"/>
    <path class="cls-141" d="M120.2,280.2c9.9,11.7-37.8,54.6-27.9,73.1-12.7,14.3-6.5,14.5-6.8,31.9,9.2-3.2.7-13.7,2.9-20.6,3.1.8,5.6,5.5,9.4,1.8,0-2.7-3-.9-3.8-3,2-5,6.7-28.8,10.5-29.7,5,5.7-3.7,11.1-.3,17.2,5.1-7.5,10-25.2,19.8-28.1-14.4,25-27.7,49.9-36.7,77.5-8.3,25.6-8.9,53-20.4,76.2-14.9-11.8,5.4-84.1,9.9-99.9,4.6-16.3,10.3-32.7,17.2-48.2,4.1-9.2,16.9-43.6,26.3-48.2h0Z"/>
    <path class="cls-122" d="M166.5,615.2c7.6,7.3,11.5,32.1,15.9,41.7,6.3,13.5,14,25.7,21.7,38.4.8,1.3,1.6,2.7,2.4,4-15.7-8.6-31.2-21.7-42.3-35.7-9.2-11.6-10.8-30.9-19.7-40.8.9-11.1-6.3-23-3.5-33.9,3.9,1.7,2.4,6.7,6,8.1,3.4,11.4,10.2,20.5,19.7,29.4.7-4.6-2.3-7.9-.4-11.2h.2Z"/>
    <path class="cls-244" d="M289.4,179.6c-.2-5.5,14.8-7,19.7-8h-40.1s.6-20.7.3-20.3c3.3-3.4,10.3.4,14.8-.8,1.9,1.6,1.1,3.5,1.5,5.1-3-.3-5.4.4-6.7,3.5-12.9,6.3,17.9,6.4,20.6,6.4,20.3,1.3,40.8,8,61.2,5.2h.6c0-.1.5.2.5.2,1.5,9.2,37.1,7.9,36.5,18.3-.8,1.4-2.6-1-3.1,1,3.8,4,6.2-2.8,9.7-.9l-.2,4.7c-2.9,1.4-6,1.9-9.1,2.7l-10.9-1.6c-10.3-6.1-21.6-9-32.9-11.4-20.6-4.4-41.4-4.9-62.3-4.1h-.1Z"/>
    <path class="cls-211" d="M103.1,448c2.1-5.6,4.2-11.1,6.3-16.7,10.7-3.2,30.4-55.7,33.8-67.3.9-1.7,1.8-3.4,2.8-5,3.8,3.9-1.7,5.4-1,9.3,1.2,6.1,6.8,7.7,6.2,15.8-.9,12.4-18.7,36-12.6,49.7,1.9,0,2.8-1.1,3.5-2.6.9,0,1.8.2,2.6.2-.4,2.8-37.3,15.5-41.5,16.5h0Z"/>
    <path class="cls-120" d="M44.9,571c-6.1,6.2-7.1,14.6-9.5,22.4-1.7,2.6-1.6,5.7-2.6,8.4-1.5,4,0,9.2-4.6,11.9-1.4-1.5-1.6-3.4-1.5-5.3,3.5-41.3,17.2-78.4,44.7-109.9,5-2.1,10.2-.8,15.8-2.5-1,3.3-3.8,3.9-3.6,6.4-9.2,10.1-15.8,22.2-23.7,33.2-3.2,4.5-4.5,8.6-1.9,13.5-.7,1.2.3,3.1-1.8,3.7-9,2.7-9.1,11.1-11.5,18.1h.2Z"/>
    <path class="cls-77" d="M40.9,625.3c.9-18.2,40.4-38.4,54.3-45.5,6.4-3.2,66.6-35.1,67.5-34.6-8.2,20.2-24.2,30.4-44.3,36.4-23.8,7.1-46.1,17.6-64.9,34.3-4.1,3.6-6.5,9.2-12.4,10.8,0-.5,0-.9,0-1.4h0Z"/>
    <path class="cls-22" d="M171.5,450.7c-.6-4.1-2.3-7.5-6.8-8.5-2.5-4.5-6.7-6.5-11.4-8-2.1-.7-4.1-2-6.1-3,5.9-14.9,9.5-30.3,7.7-46.5,1.9-8,3.1-16.2,7.7-23.3-.5,8.1-6,19.3,1.4,25.4-3.8,6.9-6,11.1-6.1,18.5,0,7.1,8.4,12.5,3.2,20,1.9.4,9,.1,9.1,3.4.2,5.1-6.9.1-7.3,5.1-.2,2.1,19.3,13.2,9.1,17l-.4-.2h0Z"/>
    <path class="cls-252" d="M277.8,69.1c-3.2-14.2-3.5-38.2,5.3-11,8.1,25.1,2.1,58-.2,83.5-5.3,3-5.3-.2-4.8-4.1,2.6-22,3-44,.8-66.1,0-.8-.7-1.5-1-2.3h0Z"/>
    <path class="cls-86" d="M210.1,216.4c-8.3,7.4-15.7,15.6-22.8,24-8.3-5.2,25.8-34.1,29.3-36.5,19.4-13.5,42.4-22,66.1-23.7,1.8.2,3.5.3,5.7.5-1.6.8-2.8,1.5-4,2.1-8.4,1.8-17,2.7-25,6.4-13.8,3.2-26.1,9.6-37.9,17.1-4.2,2.7-9.2,4.7-11.3,10h-.1Z"/>
    <path class="cls-110" d="M206.7,648.7c-13.6-11.6-13.4-35-20.2-50.3-2.4-5.5-9.4-14.3-10.3-19.6-1.6-9.6,5.7-18.1,4.4-28.5,0-2.1,0-4.1.1-6.2,2.6-3.1-.1-7.4,2.4-10.5-.7,26.9,3.5,53.1,10.6,79,1.1,3.7,2.5,7.3,3.4,11,2.1,8.8,8.3,16,9.5,25.2h.1Z"/>
    <path class="cls-168" d="M166.5,615.2c-1.9,3.3,1.1,6.6.4,11.2-9.5-8.9-16.3-18-19.7-29.4,3.4,1.7,6,3.9,4.6,9,6.6-2.6,8.5-20.6,11.9-27.3,2.7-.6,2.6,2.2,4.1,2.8-6.3,11-3.2,22.4-1.3,33.8h0Z"/>
    <path class="cls-182" d="M154.8,384.8c1.8,16.2-1.8,31.5-7.7,46.5-.8.1-1.7.2-2.5.3-.9,0-1.8-.2-2.6-.2.2-9.8,2.8-19,6.2-28.1,2.3-6.1,2.9-12.9,6.6-18.5h0Z"/>
    <path class="cls-158" d="M284.2,182.9c1.2-.6,2.4-1.3,4-2.1-2.2-.2-3.9-.3-5.7-.5,2.1-1.5,4.6-.6,6.8-1.4,20.9-.8,41.8-.3,62.3,4.1,8.8,1.9,17.5,4,25.8,7.7-1.8.4-3.8-.5-5.3,1.2-10.1-2.8-20.1-6-30.4-7.7-19.2-3.2-38.4-2.9-57.6-1.3h.1Z"/>
    <path class="cls-16" d="M279,158.4c1.3-3,3.7-3.8,6.7-3.5,1.2-.6,2.5-1.1,3.7-1.7,2.6.5,5.3,1.1,7.9,1.6,1.1,2.1,3,2.4,5.1,2.3,12.4,2.7,24.9.1,36.2,7.6-12-.4-24.1-.9-36.1-1.3,2.6-2,6-2,10.3-3.3-11-3.7-23.7,3.2-33.7-1.7h-.1Z"/>
    <path class="cls-152" d="M40.9,625.3c0,.5,0,.9,0,1.4-3.6,5.2-7.2,10.3-11,15.8-2.3-9.7-2.2-19.2-1.7-28.7,4.7-2.8,3.1-8,4.6-11.9,1-2.7.9-5.8,2.6-8.4,1.7,11.5-2,24.6-1.2,36.5,1.7-2.8,3.1-5.3,6.7-4.6h0Z"/>
    <path class="cls-109" d="M183.2,533.5c-2.5,3.1.2,7.4-2.4,10.5-.3-8,.5-16-1.4-25-3.3,9.6-4.8,19.1-14.5,23.4,2.3-6,6.9-10.7,8.9-16.9,2.4-4.3,3.7-9,5.4-13.6.9-2.4.5-5.7,3.9-6.6-.6,3.4-.9,6.7.3,10.1,0,6-.1,12-.2,18h0Z"/>
    <path class="cls-129" d="M184.3,258.5c-7.3,3.2.3,13-7.6,15.1-4.9-5.9-7.5-12.8-5.2-22.2,3.9,4.4,7.9,6.6,12.9,7.1h0Z"/>
    <path class="cls-195" d="M95.2,476.1c-2.6,4.6-13.2,12-12.2,16.6,2.9-.8,7.2-4.2,7.4,2.4.3,4-3.3,5.3-5.3,7.7-.4-.1-.9-.2-1.3-.4-.2-2.5,2.6-3.1,3.6-6.4-5.6,1.6-10.8.3-15.8,2.5,6.7-8.7,14.7-16,23.6-22.4h0Z"/>
    <path class="cls-249" d="M297.3,154.9c-2.6-.5-5.3-1.1-7.9-1.6.6-1.8,2-3.5.8-5.5,3.8-2.9,9.4,2.2,12.2-3.5,2.3.3,4.6-.6,6.8.7.8,2.1-2,2.1-1.9,3.8,1.4,1.1,3.6,1.3,4.2,3.4-4.3,3.1-10-1-14.2,2.6h0Z"/>
    <path class="cls-15" d="M35,421.1v60.8c-9.5-9.2,6.9-36-2.6-45.3-.2-8,.5-16,2.3-23.8,0,2.8.2,5.5.2,8.3h0Z"/>
    <path class="cls-107" d="M147.5,571.2c5.4,1,10.3-3.1,12.3,2.9,1.6,4.8-2.4,6.6-6.1,6.9-8.2.6-2.3-6.3-6.2-9.9h0Z"/>
    <path class="cls-136" d="M411,144.3c-10.9-1.3-30.6.3-36.2-8.5-5.3-8.4,3.2-38.5,3.9-49.2.7-12.2,5.5-33.4-2.1-44.2-3.9-5.6-21.9-6.9-22.7-10.6,9.2,0,18.3,0,27.5.1,6,3.1,13,1.7,19.2,3.9,4.4,3.3,10.5,3.4,14.4,7.6,22.1,24.9-6.5,72.4-4,100.9h0Z"/>
    <path class="cls-101" d="M428,36.8c-1.9.3-3.5,1.1-4.2,3.1-7.7-1.4-15.4-2.7-23.2-4.1-6.2-2.2-13.2-.8-19.2-3.9,15.8-.8,31.3,1.4,46.6,5h0Z"/>
    <path class="cls-169" d="M566.2,647.4c-2.4,5.9,4.3,38.4,11.6,38.4-3.1,2.1-4.9,3.3-6.2,4.2.9,3.1,2.5,0,3.3,1.6,0,6.9-2.5,2.3.5,5,0,37.4-26,63.9-59.5,76.5-17.2,6.5-35.6,8.5-53.9,7.6-10.2-.5-20.7-4.4-30.7-4.5-9.8,0-19.6,4.4-29.2,3.2-2-2.7-6.2,0-8.8-3.2,10-2.2,34.6,1.1,41.9-8.2-11.5-.4-22.1-1.1-26.7-13.2,1.6-5.5,15.6,3.8,20.8,1.4-3-1.7-5.9-2.8-5.3-6.3,12.1,6.5,25.8,7.3,38.8,10.3-.3,1.5-.6,3-.8,4.6-.8-1.4,27.9,3.1,28,3.1,9.7-1.3,14.8-12.4,26.5-10.8-1-7.3,6.7-3.1,8.7-6.8,0-1.3-1.1-1.7-2.1-2.1,2.6-2.3,6.2-3.3,8.4-6.1,10.9-7.7,20.1-16.5,21.2-30.9,5.6-4.9,4-60.7-5.6-59.8,0-1.3-.2-2.5-.3-3.8-1.7-7.3-4.9-14-7.5-20.9-1.4-10.5-6.8-19.6-11.2-28.8-3.7-7.7-5.2-7.5-10.8-1.8v-.2c-.5-.3-.9-.7-1.3-1,0-2.6-1.8-2.9-3.8-2.8-3.6-2.5-8-3.3-11.9-4.9-4-7.4-6.3-46.1-15.3-46.2,1-1.5,1.9-3.1,2.9-4.6,3-4.1,6-8.2,9-12.4-4.1,0-7.5,2.9-9.4-2.2,3-5.4,5.9-10.8,8.9-16.2,9.6-1.6-9.8-4.9-9.3-4.7.6-1.6,1.2-3.1,1.7-4.6.9-.7,1.8-1.3,2.7-2,.5,1.6,1.4,2.1,2.6.7,1.6-1.9,2.8-4.2,5.2-5.3,1.6,1.9,2.7,5.4,6,3.9,2.3-1.1,4.8-.7,7-1.9,4,1,5.8-3.4,9.2-3.8,0,1.9-.4,3.8,1.6,6.3,7.8-3.8,15.7-7.7,22.8-13.2,5.6-2.4,11.3-4.8,16.9-7.2,3.4-1.5,7.4-1.9,9.8-5.3,1-.5-15.5-20.2-22.9-18.5-6-2.4-12.8-1.4-18.8-3.9-.3,1-1.1,1.2-2.4.8-3.2-4-21-14.4-20.2-17.8,12.3,6.2,24.5,13.8,37.6,5.4,6.7,0,16.3-1.5,22.6,2.3,5.1,3.1,5.6,10.5,10.7,13.2,19.4,19.1,9.2,29.5-13.4,41.6,6.8,9.6,9.9,39.4,9.4,51.5-5.3,5.6,4.9,21.9,3.1,30.2-2.5,11.6-14.8,17.6-14.4,29.2,0,3.4,14.5,22.1,5.7,26.7-4.2,2.2-13-10.9-16.6-12.3,4.4,11.5,11.7,20.2,13.3,31.1v-.6ZM551,542.9c5.6-1.8,7.4-6.4,7.4-11.5s-.7-9.1-6.2-10.6c-7.3-3,.7-5.3.5-8.5-3,2.3-5.3-.7-8.1-.2.5-4.5,4.6-9.8-2.9-12.4,0-3.4-1.6-7.4,3.9-7.7-4.5-8.4-22.8,2.9-20.6,11.8-5.1,3.3-12.2,3.2-15.9,9.1-3.7,4.6-2.7,7.5,2.4,9.4,5,1.8,10,.9,14.9,1.3,2.5,2.7,6.8-.6,9.3,2.6-.8,1.4-3.2,1.6-2.8,3.8-6,2.5-12.1,4.8-18,7.5-1.6.7-4.6.6-4,3.8-2.7,5.9-5.5,9.4,6.1,9.4,8.5,5.9,17.2,2.7,25.7.4,4-1.1,8.5-2.5,8.5-8.1h-.2ZM511.4,570.2c9.8,6.3,45.1,14.4,47-3.9,1.4-14-40.9-1.9-47,3.9h0Z"/>
    <path class="cls-107" d="M408.4,754.8c4.6,12.1,15.2,12.8,26.7,13.2-7.4,9.3-32,6-41.9,8.2,2.6,3.3,6.8.5,8.8,3.2-12.3,2.5-24.8,2-37.2,1.9-21.5-.2-42.9-1.3-63.8-6.9v-1.5c11,1.9,20.1-3.6,31.2-2.4-5-4.3-12.3-2.4-17.8-7-1-7.6,10.5.4,13.2-.8,14.9-6.6,1.3,0,8.2-17.3-4.9-15.4-8.8-31-10.3-47.2.8-3.3,2.5-3.5,5.1-1.7-8.1,41.5,14.3,12.3,12.4,10-2.1-.8-2.1,2.8-4.5,1.9-7.9-8.3-7.9-28-8.3-38.7-.3-8.1,5.8-28.5.4-35.5,14.5,2.9,16.3-17,19.7-26.9,1.6-3,3.4-5.9,5.3-8.7,7.4-11.1,17.7-19.5,27-28.8,1.6-2.7,3.6-5.1,6.5-6.5,3.3-1.7,5.3-5.3,9-6.4,3,14.8-26.7,17.8-23.5,36.2,2,2,3.3-1.8,4.9,0,1.4,3.1-3,4.6-2.2,7.6-1.8,2.1-1.4,5.4-3.9,7-2.1-1.2-4.7.5-4.3,1.5,2,5.9-3.8,8.8-4.7,13.4-12.1,17.4-13.2,36.7-10.3,56.8-9.7,9.5,25.8,55.3,37.8,54.3,3.3,1,5.6,3,6.4,6.5,0,2.3-.4,4.7,0,7,.3,2.6-1.8,6.2,2.5,7.5h7.7-.1Z"/>
    <path class="cls-106" d="M301.1,772.9v1.5c-21.2-3.7-41.5-10.4-61.2-18.8-7.6-3.2-16-4.7-22.8-9.8-7.1-5.5-15.5-8.8-23.1-13.4-2.7-2-5.3-4-8-6,10.2-2,39.1,16.7,49.3,21.6,21.4,10.3,43.5,16.4,65.8,25h0Z"/>
    <path class="cls-265" d="M193.9,732.4c7.6,4.6,16,7.9,23.1,13.4-9.3,2.8-19.6-1.4-23.1-13.4Z"/>
    <path class="cls-24" d="M579,449.6c-5.1-2.7-5.6-10.1-10.7-13.2-6.3-3.8-15.9-2.4-22.6-2.3-8.1.5-15.4-1.7-22.6-5.9,1.4-1.1,2.4-1.8,3.3-2.5-3.2-4.1-8.8-.3-11.7-4.4.3-1.3,1.3-2.2,2.4-2.8,11.3-12,11-25.3,4-39.4,28.2-9.4,61.2-25.1,64.8-59.1,5.1-48.9-46-32.1-73.9-32.3h0c-1-8.7-2.3-17.4-7.8-24.7-.8-2.2-1.5-4.3-2.5-7,15.8-2.1,31.6-3.2,43.8-14.8,2.8-1.3,4.1-4.3,6.9-6.4,9.7,8.5,16.2,19.7,25.3,28.6,18,21.7,31.6,49.3,42.3,75.2,11.4,27.7,12.6,57.5,22.4,85,1.8,16.8,1.2,33.6,1.3,50.5-1.8,13.3-3.6,26.7-5.4,40-.7-.8-1.4-1.7-2.1-2.5,1.5-7.5,2.8-14.9-3.9-20.8-2.9-3.7-7.2-5.3-11.3-4.7-12.4,2-23.8,6.1-29.3,19-1.4-1.6-2.8-3.1-4-4.5.6-2.5,4.5-3.8,1.6-7-4.2.8-5.4,6-10.2,6.9-.4-7.8,6.4-10.9,8.5-16.9.8,2.7,2.6,4.1,5.3,4.2,5.9-3.2,4.5-42.2-14-38.3h.1ZM632.1,395.2c-6-29.8-50.8-18.5-47.3,11.1,2.7,22.6,41.3,44.9,51.2,14.7,1.6-9-1-17.5-3.9-25.8h0ZM557.3,401.9c-6.2,2.9-8.9,16.3.2,17.8,12.3,2,4.4-15-.2-17.8Z"/>
    <path class="cls-212" d="M636.4,511.6c.7.8,1.4,1.7,2.1,2.5-8.9,53.9-33,100.5-68.6,142-1.9-3.1-1.5-6.5-3.7-8.7-1.7-10.9-8.9-19.6-13.3-31.1,3.6,1.4,12.4,14.5,16.6,12.3,8.8-4.5-5.6-23.2-5.7-26.7-.4-11.6,11.9-17.6,14.4-29.2,1.8-8.2-8.5-24.5-3.1-30.2,3.4-11,8.5-21.5,7-34,3.7,1.4,1.4,3.5,2.9,4.4.7-.4,1.4-.9,2.1-1.3-6.2,25.8,19.8,42.7,37.6,18.2,6.1-4.6,8.9-11.5,11.6-18.3h.1Z"/>
    <path class="cls-102" d="M643.9,474.1c0-16.8.5-33.7-1.3-50.5,8.9,10.8,3.9,39.1,3.9,52.2-1.3-.9-1.9-1.3-2.6-1.7h0Z"/>
    <path class="cls-145" d="M512,287.1c27.9.2,79.1-16.6,73.9,32.3-3.6,34-36.6,49.7-64.8,59.1,7,14.1,7.3,27.4-4,39.4,0-2.3,10.3-38.4-.4-33.2-5.7,7.8,3.8,12.8.6,21.1-2-6.7-5.3,1.3-7.6-2.5,1-2.2,1.4-4.7.5-7.6-.7,2-1.3,3.7-1.9,5.4,0-3.6,1.1-7.6-2.9-10.3-3.8,3-6.6,7-11.7,7.6-4.9-5.3-30,7.4-29.7-6.1,13.2,5.4,1.1-11.6-1.4-14.3.1-6-15.3-14.7-19.6-12.7-.8-4.4-38.8-11.5-39.9-6.9-4,.2-3.3,5.2-6.4,6.3-7.9-5.2-14.5-11.9-21.1-18.5s-14.5-10.3-24.2-8.4c-1.4-.8-3.3.8-4.7-1,8.9-7.2,19-6.2,29.7-4.2,10.9,3.7,21.7,7.4,32.7,11.1,12.2,6,25.1,10.5,38.2,13.8,21,5.4,42.3,6.5,63.7,2.2,12.8-1.4,24.5-5.7,35.4-12.5,2.7-1.7,5.1-3.7,6-6.9,5.4-3.9,9.3-9,11.6-15.3,4.8-4,3.1-9.6,3.7-14.6-3.6-16.1-19.4-10.4-30.9-9.1-6.5.7-38.9-2.6-43.3,2.7l-4.6-1.3c-.7-3,2.4-3.1,3.7-4.3,2.1-2,2.4-3.7,1-6.1l1.4-4c2.7-.9,5.1-2.6,7-5.1-5.7-6.1,1.5-13.9,2.5-20.8,5.5,7.3,6.8,16,7.8,24.7h-3.2c-.5,6.5,11.4,17.6,15.6,7.9-4.2-4-10.5-3.7-12.4-7.9h-.3Z"/>
    <path class="cls-175" d="M252.2,243.8c-.4-4,4.2-4.7,5.2-7.7,67.3-48,143.5,8.6,211.9,17,.5,6.7-95.2-19.2-104.8-20.8-24.8-.2-49.6-1.3-74.7,3.9.1-16.9-30.1,6.4-37.6,7.7h0Z"/>
    <path class="cls-188" d="M284.2,182.9c19.2-1.6,38.4-1.9,57.6,1.3,10.4,1.7,20.3,4.9,30.4,7.7,4.6,1.8,9.2,3.6,13.8,5.4,15.8,6.1,30.9,13.9,47,19.2,2.1,2,4.8,2.5,7.4,3.5,10,3.6,20.1,7.2,30.1,10.8,1.9,5.6-29.9-5.2-34.2-6.7-19.7-7.2-38.6-16.5-58.2-24-37.3-14.3-75.5-16.4-114.5-7.8-.9-1.8-2.1-3.3-4.4-2.9,7.9-3.7,16.5-4.6,25-6.4h0Z"/>
    <path class="cls-251" d="M364.4,232.3c9.6,1.6,105.2,27.5,104.8,20.8.9,0,1.9,0,2.8-.1,0,.5.1.9.2,1.4,1.8,3.6.4,4.7-3.3,5-5.1.4-10.5-1.3-15.4,1.1-7.5-.4-14.4-4-21.8-4.8-16.3-5.3-32.7-10.6-49-15.8-6.6-2.7-13.4-4-20.5-3.9-.1-.4-.3-.7-.4-1.1,1.6-.2,2.6-.9,2.8-2.6h-.2Z"/>
    <path class="cls-274" d="M394,196.5c4.5-1.5,9.4-1.7,13.3-4.9-.9-1.1-1.9-2.1-2.8-3.2.5,0,1-.2,1.6-.3,2.9.9,5.9,1.8,8.8,2.7.6,1.2,1.7,1.8,2.8,2.5,9.2,6,20,8.4,29.8,12.9-3.9.5-7.4-.4-11.1-1.8-6.1-2.3-11.9.2-17.7,2-8.2-3.3-16.4-6.6-24.7-9.9h0Z"/>
    <path class="cls-203" d="M447.5,206.2c-9.8-4.5-20.6-6.9-29.8-12.9-1.1-.7-2.2-1.3-2.8-2.5h9.1c1.3.3,2.6.7,4,1,12.5,6.1,26.2,9,39.2,13.6.5.2,1.2-.4,1.8-.6,1.2,2.2,2.9,3.3,5.4,2,.3,1.2.7,2.4,1.1,3.9-10.2,2.1-18.6-4.2-27.9-4.7v.2Z"/>
    <path class="cls-263" d="M259.3,189.4c2.4-.4,3.5,1.1,4.4,2.9-7.2,3.5-47.3,26.1-53.6,24.2,2-5.3,7-7.3,11.3-10,11.8-7.5,24.1-13.9,37.9-17.1h0Z"/>
    <path class="cls-160" d="M394,196.5c8.2,3.3,16.4,6.6,24.7,9.9,5.8,2.5,11.6,5,17.4,7.6-1.3.6-4.4-1-3.1,2.6-16.1-5.3-31.2-13.1-47-19.2-4.6-1.8-9.2-3.6-13.8-5.4,1.5-1.7,3.5-.8,5.3-1.2,5.5,1.9,11,3.8,16.5,5.7h0Z"/>
    <path class="cls-277" d="M472.2,254.4c0-.5-.1-.9-.2-1.4,5.2-.7,8.5,2.3,11.1,6,6.3,9.1,10.4,19,11,30.2-.2,1.4-.4,2.8-.6,4.1-5.2-6.5-6-15-10.2-21.9-3.5-5.8-5.3-12.8-11.2-17h.1Z"/>
    <path class="cls-269" d="M535.3,212.9c-1.5.2-27.5-11.4-29.1-12.7,5.3-.3,34.6.2,28.9,12.8h.2Z"/>
    <path class="cls-75" d="M35.9,421.1c0-2.8-.2-5.5-.2-8.3,1.4-24.6,9-47.8,16.6-70.9,2.5-7.7,5.5-15.3,8.2-23,.3-.1.7-.2,1-.2,4.9,9.6-10.2,34.8-13.2,44.4-6,19.2-7.6,38.7-12.4,58Z"/>
    <path class="cls-41" d="M460.2,51.1c1.6,0,3.3.3,4.9.4-.5,1.2-2.6.5-2.8,2.5,5.6,3.8,12.3,5.1,18.5,7.6,5.1,7.5-6.1,33.2-8.5,42-4.8,17.6-10.4,34.2-12.2,52.6-16.1-5-32.5-8.9-49.1-11.8-2.5-28.5,26.1-76,4-100.9,11.4-.6,22.2,2.6,32.8,5.8,4.2,1.3,8.1,2,12.4,2v-.2Z"/>
    <path class="cls-60" d="M460.1,156.1c1.8-18.4,7.5-34.9,12.2-52.6,2.4-8.7,13.6-34.5,8.5-42,3.6-1,6.4,3.8,10.2,1.4,2.9,1.7,5.8,3.5,9,5.4-.6,1.7-1.2,3.4-1.8,5-21.7,17.1-17,62.5-29,85.3-3.2-.2-6.2-1.1-9-2.6h-.1Z"/>
    <path class="cls-275" d="M424,190.9h-9.1c-2.9-.9-5.9-1.8-8.8-2.7-14-7.8-28.4-14.7-44.2-17.9l-.5-.3h-.6c-5.3-3.1-11.7-2.4-17.1-4.9-2-5.6,4-2.4,4.9-4.4-8.6-6.5-36.2-8.6-46.2-3.6-2.1.2-4-.2-5.1-2.3,4.2-3.6,9.9.5,14.2-2.6,5.6,0,11.1-.2,16.7-.2,2.2,2.6,5.2,2.5,8.2,2.6,12.9.6,25.9-1.4,38.5,2.7-6.2,13.9,45.8,24.5,49.2,33.7h-.1Z"/>
    <path class="cls-194" d="M469.1,158.6c12-22.8,7.3-68.2,29-85.3-10.1,26.3-18.9,52.9-25.6,80.3-.5,2.1-.6,4.2-.9,6.3-1.1.1-1.9-.5-2.5-1.3Z"/>
    <path class="cls-229" d="M374.8,156.7c-12.6-4-25.6-2.1-38.5-2.7-3-.1-6,0-8.2-2.6,2.5-5.5,53.5-.4,58.8,1.2h-11.5c3.5,2.9,8.1-.8,9.7,4-.9.1-1.7.3-2.6.4-2.6,0-5.2-.2-7.7-.2h0Z"/>
    <path class="cls-171" d="M311.2,742c2.1-5.3-1.5-9.7-2.5-14.5-2.7-13.4-5.9-26.7-8.8-40-2-47.6,1.5-89,10.1-135.7,9.5-33.4,25-66.2,49.7-91.3,12.7-12.9,26.3-22.7,42.5-30.6,6-2.9,17.8-3.6,18.1-12.4.2-5-8.7-7.6-8.3-13.1,1.3.1,2.6,0,3.8.5,12.7,4.3,25.7,7.5,39.1,8.7-2.4,2.6-6.1,0-9.4,2.5,14-.7,24.1-2.7,28.6,6.3-8-.6-37.8,3.8-42.7-2.3.5,2.9-4.9,13.4-1.2,14.1-2.3,3.5,0,8-2.5,11.4-1.7-5.4-35.4,15.9-39.2,18.9-16.1,12.4-26.9,28.2-38.1,44.8-8.4-1.6-8.3,20.5-19,16.4-1.5,4.6,3.7,4.7,4.1,8.2-6.2,1.7-23,70.6-12.7,69.8,0,5.9-6.7,55.3.1,58.4-.2,12.2-.3,24.4,2.5,36.4,1.6,16.1,5.5,31.8,10.3,47.2-8.4.5-16.5-1.5-24.6-3.5v-.2Z"/>
    <path class="cls-209" d="M253,669.4c1.8,7.7,4.8,14.9,7.7,22.2,4.7,11.8,9.4,23.7,15.8,34.7,1.1,2.6,2.3,5.1,3.4,7.7-3.3-.9-6.6-1.7-9.9-2.6-1.3-1.6-.8-4.6-3.5-4.9-7-.7-12.2-5.5-18.4-7.9.2-2.5-.5-4.5-2.4-6.3-7-6.4-10.4-15.1-14.4-23.3-2-6.3-4.4-12.5-5.9-18.9-2.1-8.9-7.3-17-7.1-26.5,5.1-.7,3.5,3.9,4.3,6.4,1.5-.8.5-3,2.8-3,2,2.6-1,5.1-.4,7.7,6.9,5.1,9.6-4,11.7-7.5,1.3,3.8,1.9,7.3,6.2,6.7,2.2,1.6,2.5,4.4,4,6.4,2.1,3,2,7.6,6.2,9.1h-.1Z"/>
    <path class="cls-66" d="M248,718.6c6.2,2.4,11.4,7.2,18.4,7.9,2.8.3,2.3,3.3,3.5,4.9-20.1-6.9-39.1-15.8-56.7-27.7-2.2-1.5-5.5-1.5-6.8-4.5-.8-1.3-1.6-2.7-2.4-4,14.2,4,29.6,22.6,43.9,23.3h.1Z"/>
    <path class="cls-11" d="M44.9,571c2.3-7,2.5-15.4,11.5-18.1,2.1-.6,1-2.5,1.8-3.7,1.2-.4,1.9-1.3,2.3-2.5,4.6,0,6.5-3.7,8.6-6.9,7.7-12,17.1-22.5,27.4-32.3,5,6.1-11.6,6.6-4.2,14.5,1.6-5.3,6.7-6.3,9.3-9.9,2,0,1.4,3.1,4.4,2.3-1.6-9.1,5.8-12.3,12-16.6,8.6,3.2,2.3,14.8,8.6,16.3-.2,3.8-5.5,6.3-2.9,11.4,3.4-2.9,5.1,2,8.1,1.6-11.7,9.6-27.2,15.1-40.7,21.6-11.7,5.7-33.5,23.7-46.1,22.2h-.1Z"/>
    <path class="cls-224" d="M131.6,527.2c-3,.4-4.7-4.5-8.1-1.6-2.7-5.1,2.7-7.5,2.9-11.4,5.5-2.5,10.4-7.7,18.6-1.3-2.5-9.3,7.7-12.2,5.3-19.9-12.1-11.7,6.9-8.6,6.2-5.6-1.3,1.7-4.2-.1-4.8,2.8,4.4,1.6,7.4-.6,10.8-3.1-3.6-6.1,6.5-24.2,13-24.7,3.5,3.5-1.2,8,1.4,11.6.4,3.1-.6,6.1-1.3,9.1-.3,3.2-3,5.6-2.7,9-8.4,10.2-17.1,20-28.3,27.3-4.2,2.7-7.9,6.4-13,7.7h0Z"/>
    <path class="cls-174" d="M172.9,492.2c-.3-3.4,2.4-5.8,2.7-9,4.4.7,5.8,4,6.3,7.7.6,4.8.8,9.7,1.2,14.5-3.4.9-3.1,4.2-3.9,6.6-1.7,4.6-3,9.3-5.4,13.6-1.4-8-.6-28,2.5-35.8-2.1,1.4-2.8,1.9-3.4,2.3h0Z"/>
    <path class="cls-202" d="M218.2,643.6c-.2,9.5,5,17.6,7.1,26.5,1.5,6.4,3.9,12.6,5.9,18.9-3,0-3.6-2.5-4.8-4.5-6.6-11.9-13.2-23.8-19.7-35.7-1.2-9.1-7.4-16.4-9.5-25.2-.9-3.7-2.3-7.4-3.4-11,6.2,7.3,9.5,29.8,18.7,33.4-1.7-13.2-6.7-24.9-5.8-37.4,1.6,2.1,2.1,4.6,2.5,7.1,1.1,6.9,2.5,13.7,5.2,20.2.5,3,1.8,5.5,3.8,7.7Z"/>
    <path class="cls-87" d="M154.8,384.8c-3.8,5.6-4.3,12.3-6.6,18.5-3.4,9-6,18.3-6.2,28.1-.7,1.4-1.6,2.6-3.5,2.6-6.1-13.8,11.7-37.3,12.6-49.7.6-8.1-5-9.7-6.2-15.8-.8-3.9,4.8-5.4,1-9.3,4.6-9.2,10.9-17.4,16.3-26.1,2.8-4.6,7.6-8.2,8-14.2,1.5-2,2.9-4.1,4.4-6.1,5.2-1.9,8.1-6.6,11.9-10.1,6.2-5.8,11.4-12.6,18.5-17.5-.9,4-.8,8.3-3.6,11.8-15.7,2.1-28.8,26.1-25.8,38.9,0,.4,0,.9.1,1.3-.1,1.2-.2,2.4-.3,3.6-2.6,0-4,1.4-5.5,3.6-3.5,5.4-5.3,11.4-7.4,17.3-4.7,7.1-5.8,15.3-7.7,23.3v-.2Z"/>
    <path class="cls-9" d="M364.4,232.3c-.1,1.7-1.2,2.5-2.8,2.6-13.3,0-26.7-1.4-39.9,0-16,1.7-31.8,4.8-46.6,11.5-12.9,4.1-25.6,8.8-37.3,15.7-.9-.5-1.9-1-2.8-1.4,1.3-1.9,3.2-3.6,2.8-6.3,4.8-3.5,9.6-7,14.3-10.5,7.5-1.3,37.7-24.6,37.6-7.7,25-5.2,49.9-4.1,74.7-3.9h0Z"/>
    <path class="cls-53" d="M143.2,364.1c-3.4,11.6-23.2,64.1-33.8,67.3,5.7-18.5,13.4-36.2,22.7-53.1,2.3-4.1,4.1-8.4,6.2-12.6,1.6-.5,3.3-1,4.9-1.6h0Z"/>
    <path class="cls-253" d="M237.8,254.3c.4,2.7-1.5,4.4-2.8,6.3-2.8.2-4.4,2.5-6.3,4.1-7.9,6.4-15.6,12.9-23.4,19.4-1.7-2.2-3.6.1-5.3-.1,1.6-10.3,28.7-29.5,37.9-29.7h0Z"/>
    <path class="cls-184" d="M143.2,364.1c-1.6.5-3.3,1-4.9,1.6-1.3-4.4,25.2-47,32-46.8-.4,6-5.2,9.6-8,14.2-5.4,8.7-11.7,16.9-16.3,26.1-.9,1.7-1.8,3.4-2.8,5h0Z"/>
    <path class="cls-206" d="M200,284c1.8.2,3.6-2.1,5.3.1-.1.3-.2.7-.3,1-7.1,4.8-12.3,11.7-18.5,17.5-3.8,3.5-6.7,8.2-11.9,10.1-.3-4.7,3.9-6.4,6.3-9.1,6.1-6.8,11.2-14.6,19.1-19.6h0Z"/>
    <path class="cls-5" d="M343.6,165.1c5.5,2.5,11.9,1.8,17.1,5-20.5,2.8-41-3.9-61.2-5.2,1-.5,1.9-.9,2.9-1.4,12,.4,24.1.9,36.1,1.3,1.7.1,3.4.2,5.1.3h0Z"/>
    <path class="cls-260" d="M302.4,163.5c-1,.5-1.9.9-2.9,1.4-2.6,0-33.5-.2-20.6-6.4,10.1,4.9,22.7-1.9,33.7,1.7-4.3,1.3-7.7,1.2-10.3,3.3h0Z"/>
    <path class="cls-7" d="M361.8,170.3c15.9,3.2,30.2,10.1,44.2,17.9-.5,0-1,.2-1.6.3-3.3-1.2-5.6,5-9.3,1.1.5-2,2.3.4,3.1-1,.6-10.5-35-9.1-36.5-18.3h0Z"/>
    <path class="cls-240" d="M60.5,546.7c-.4,1.2-1.1,2-2.3,2.5-2.6-5-1.3-9.1,1.9-13.5,7.9-11.1,14.5-23.1,23.7-33.2.4.1.9.2,1.3.4.3,1.3-2,3.4,1.2,3.7-5.9,8-12,15.8-17.7,23.9-3.5,5-7.5,9.8-8.1,16.3h0Z"/>
    <path class="cls-79" d="M175.5,462.5c-6.5.6-16.6,18.7-13,24.7-3.4,2.4-6.4,4.7-10.8,3.1.6-3,3.6-1.1,4.8-2.8.7-3-18.3-6.1-6.2,5.6,2.4,7.8-7.8,10.7-5.3,19.9-8.1-6.5-13.1-1.2-18.6,1.3-6.2-1.5,0-13.2-8.6-16.3-6.2,4.3-13.5,7.5-12,16.6-3,.8-2.4-2.3-4.4-2.3-2.6,3.6-7.7,4.6-9.3,9.9-7.4-7.8,9.2-8.3,4.2-14.5,11.6-13.5,25.9-23.8,41.1-32.7,2.4-1.4,6.1-1.9,5.8-6,3.8-1.6,7.2-3.3,11.9-3.3,8.5,0,13.1-5.7,11.3-11.9,1.7-1,3.3-2,5-3l.4.2c2.3,3.5,2,7.8,3.6,11.6h.1Z"/>
    <path class="cls-156" d="M166.5,453.7c1.8,6.3-2.8,12-11.3,11.9-4.6,0-8.1,1.7-11.9,3.3-3.5-.3-6.5.8-9.6,2.2-3.5,1.6-6.7,4.2-10.8,4.5-1.1-.6-1.5-1.7-1.7-2.9,14-8.9,28.7-16.2,45.3-19Z"/>
    <path class="cls-97" d="M121.2,472.7c0,1.2.5,2.3,1.7,2.9-1.3,2.4-3.7,3.5-5.8,4.9-11.3,7.4-21,16.7-30.8,25.9-3.2-.3-.9-2.4-1.2-3.7,2-2.4,5.6-3.7,5.3-7.7,2.5,0,3.6-2.2,5.1-3.6,7.6-7.7,16.1-14,25.8-18.8h0Z"/>
    <path class="cls-159" d="M175.5,462.5c-1.6-3.7-1.2-8.1-3.6-11.6,10.2-3.8-9.3-14.9-9.1-17,.4-5,7.5,0,7.3-5.1-.1-3.3-7.2-3-9.1-3.4,5.2-7.6-3.3-12.9-3.2-20,0-7.5,2.3-11.6,6.1-18.5-7.4-6.2-1.8-17.4-1.4-25.4,2.1-5.9,3.9-11.9,7.4-17.3,1.4-2.2,2.9-3.5,5.5-3.6,1.1,5.3-4,7.9-3.4,12.4.7,4.5,6.2,5.5,6.9,10.1-19.4,7.2,10.2,68.6,8.9,81.6-.9.6-2.5,1.7-3.9,2.7,4.7,10.9-3.8,18.6,5.5,25.8,4.2,3.2,27.1,5.1,30.6.2,18.3,9.4,4.6,45.5,9.8,61.4-1,12.2,4.4,24,2.6,36.2-1.9,10.3,3.7,19.9,2.6,30.1-.9,7.8,2.2,14.7,5.1,21.7-.3,3.2.7,6.5-1,10.2-1.9-2.3-1.8-5.8-5.4-5,.6-6-5.1-9.8-5.4-15.5.6-2.9-.8-5.4-2-7.7-2-4.1-4.4-8.1-4.4-12.9-.4-7.3-13.4-81.3-20.6-83v-3.9c5.4-8.5,1.1-11.7-3.5-16.5,3,3.1-24.7-14.5-21.1-14.5-2.6-3.6,2.1-8.1-1.4-11.6h.2Z"/>
    <path class="cls-140" d="M201.4,505.2v7.8c-1.2-.3-.6-2.6-2.5-2.3.2,10.3-6.1,53,2.5,60.5,0,2.8.3,5.5.8,8.3,1.7,9.7,3,19.4,4.5,29.1-.9,12.5,4.1,24.2,5.8,37.4-9.2-3.7-12.5-26.2-18.7-33.4-7.1-25.9-11.2-52.1-10.6-79,0-6,.1-12,.2-18,6.8,3.7,2.5,29.7,2.5,35.5,4.1-4,.9-8.3,4.2-10.7,6,.6,1.8,7.1,5.9,10,1-17.5-1.2-34.1,2.2-50.8,2.7,1.2,1.2,4.4,3.2,5.5h0Z"/>
    <path class="cls-92" d="M343.6,165.1c-1.7-.1-3.4-.2-5.1-.3-11.3-7.5-23.8-4.9-36.2-7.6,10-5.1,37.6-2.9,46.2,3.6-.9,2-7-1.3-4.9,4.4h0Z"/>
    <path class="cls-266" d="M201.4,505.2c-2-1.1-.5-4.3-3.2-5.5-3.4,16.6-1.2,33.3-2.2,50.8-4.1-2.9,0-9.4-5.9-10-3.2,2.4,0,6.7-4.2,10.7,0-5.9,4.3-31.9-2.5-35.5-1.2-3.3-.9-6.7-.3-10.1-.4-4.8-.5-9.7-1.2-14.5-.5-3.7-1.9-7.1-6.3-7.7.6-3,1.7-6,1.3-9.1-3.6,0,24.1,17.6,21.1,14.5,4.6,4.8,8.9,8.1,3.5,16.5h-.1Z"/>
    <path class="cls-221" d="M460.2,51.1c-4.3,0-8.2-.7-12.4-2-10.6-3.2-21.5-6.4-32.8-5.8-3.9-4.2-10-4.3-14.4-7.6,7.7,1.4,15.4,2.7,23.2,4.1,10.6,2.8,21.5,4.5,31.8,8.4,1.7.7,3.9.5,4.7,2.8h-.1Z"/>
    <path class="cls-30" d="M491,62.9c-3.8,2.4-6.6-2.3-10.2-1.4-6.2-2.6-12.9-3.8-18.5-7.6.2-1.9,2.3-1.2,2.8-2.5,8.8,3.5,17.9,6,25.8,11.5h.1Z"/>
    <path class="cls-128" d="M323.8,661.9c-6.9-3.2-.2-52.6-.1-58.4-.3-6.6,2.7-12.7,3-19.3,6.1-2.5,10.1-32.6,12.9-40,5.2-13.8,11.5-27.3,19.4-39.8,17.8-28.1,41.2-43.3,69.6-59,2.5-3.4.2-7.9,2.5-11.4,11.3-21.3,58.1,4.1,71-23.4,4.8-1,4.4-6.2,7.1-8.9.6-1.7,1.2-3.4,1.9-5.4.9,2.9.5,5.4-.5,7.6,2.3,3.8,5.6-4.2,7.6,2.5,3.2-8.2-6.3-13.3-.6-21.1,10.7-5.2.6,30.9.4,33.2-1.1.7-2.1,1.5-2.4,2.8-3.2,1.6-4.1,5.1-6.6,7.4-.8,3.4,17,13.8,20.2,17.8,1.3.4,2,.2,2.4-.8,6,2.6,12.7,1.6,18.8,3.9-25.4,8.2-38.5-5.8-63.1-.4l-8.3-1c-7.4-3.6-14.9-3.6-22.8-2.1,1,4.6,9.3,25.4,13.8,24.5,1.2,5.9,3.3,11.6,3.1,17.8-.5,2.3.3,4.2,2.3,5.5,0,2.2,2.4,2,3.2,3.3-.7,1.5-1.4,2.9-2,4.4-2.8.3-5.9-1.3-8.5.9v13.9c4.9.4,9.3,1.7,13.7,3.2-2.1,2.5,2.9,2.2,1.7,4.4-2.2,1.1-4.6.4-6.8.7-3.6-.2-1.7,6-5.4,4.9-4.3-1.3-5.5,1.7-7.5,4-1.7,0-3.2.3-4.8,1.3-12.8,7.9-24.2,17.5-34.6,28.4-2.1,0-1.9,3.5-4.4,2.6-3.6.4-6.1,2.3-7.8,5.4l-.5,2.4c-8,2.8-12.9,9.2-18.2,15.1-1.4,0-2.2,1-3.3,1.5-5,2.4-6.5,8.7-11.9,10.6-.9-3,3.6-4.5,2.2-7.6-1.7-1.9-2.9,1.8-4.9,0-3.2-18.4,26.5-21.4,23.5-36.2,2.6-2.1,5.2-4.3,7.8-6.4,8.5-7,18.6-11.4,28.4-16.3-1-2.3-2.2-2.2-3.5-2,0-1.4-.4-2.7-1.6-3.6,0-11.4-33.9-54.5-39-32.8-1.7,1.7-3,3.1-4.7,4.9-4.6,1.5-2.4,6.7-6.2,8.8-3.3,1.8-3.5,5.1-3,8.5-2.1,3.9-2,7.8-.2,11.8h-1.3c-1.5,0-4.2-4-5.8-4.2-3-.5-4.2,5.4-8.3,3,3.6-4.7,15-26.3,9.8-31.7-16.3,15.2-33,50.1-34.5,73-5.2,1.3-8.7,27.1-9.7,32.4-3.9,19.4-2.5,40-3.3,59.7l-.2-.2ZM429.1,466.4c-5.2,3-10.4,6-15.5,9.1-2.8.2-4.4,2.1-6.6,4.2,7,5.6,13.7,11,21.3,17.1-.2-2.9-1.2-5.5,2-5.7,11.2,17.7,34.7,51.8,23.5,8.2,2.4-8.7-12.4-40.7-24.7-32.8h0Z"/>
    <path class="cls-208" d="M398.2,740.4c-.8-3.5-3.1-5.5-6.4-6.5-18.6-15.7-25-34.8-37.8-54.3-2.9-20.1-1.8-39.4,10.3-56.8,3.5,4.9,4.1,10.7,5.2,16.3,1.4,6.7,2.6,13.4,3.9,20,.1,4.7-.5,9.6,3.9,12.9,4.1,17,15.3,29.1,28.1,39.7,11.4,9.5,24.9,15.6,39.2,19.8,10.9,6.2,26.1,9.1,40,10.8,3.9,5.3,1.1,9.5-1.2,13.5,1.7,2,3.4,2.6,5.4,2.9-8.6,2.6-17.4.4-26,1.3-13.1-3-26.7-3.8-38.8-10.3-1.7,0-3.3-.2-5-.3-6-5.1-12.9-8.2-20.8-9.2v.2Z"/>
    <path class="cls-45" d="M500,586.9c4,1.6,8.3,2.4,11.9,4.9,4.2,6.3,6.6,13.5,9,20.6,2.5,5.5,5.5,6.1,9,1.8,4.6,3,1.1,13.4,9.2,12.3,2.6,6.9,5.8,13.6,7.5,20.9-2.3,1.4-4-1.2-6.1-1.4-1,5.1.9,10.2-2,15.2,1.1-17.5-13.1-12.8-21.4-15.5-1.1-2.7,1.8-6.2-2.6-7.3-1.9-2.8-5.1-3.5-7.7-5.2.2-1.5-6.1-15.9-6.2-16.2-5.6-9.4-3.8-8.5-16.9-13.4-6.2-2.2-5.9,14.5-6,14.9-19.6,3.3-23.9,6-29.6,18.5-4.2-11.4,12.3-10.7,8.4-19.2-6.3,8-10.5,1.5-15.1,13.3-13.6-1.8,6.1-14.4,2.4-17.7-3.8-3.3-14.9,13.6-21.6,0,.8-1.4,3.1-.4,3.7-2.8-3.1-.7-5.2-2.4-4.5-6.1,1.8-7.3,9.3-9.7,13-15.3,3.2-.6,1.4,3.7,3.8,3.9,6.9,2.5,24.8-15.3,24.6-22.1,3.3,1.3,5-1.8,7.5-2.8,8.1,2.7-6.6,13.8-7,14.2,6.4,5.3,8.9-5.9,14.4-1.8,3.6-8.2,8.7-23.1,2.1-30.4,0-1.7-.2-3.3-.2-5,.9,0,1.7-.2,2.6-.3,10.6,6.6,3.3,39.4,18,41.8h-.2Z"/>
    <path class="cls-98" d="M514.5,638.4c4.4,1.1,1.6,4.6,2.6,7.3,8.3,2.7,22.5-2,21.4,15.5,2.9-5,1.1-10.1,2-15.2,2,.3,3.7,2.8,6.1,1.4,0,1.3.2,2.5.3,3.8-.4,6.2-.2,12.3,1.1,18.4-.4,1.6-.9,3.3-1.3,4.9-6.6-7.8-4.3-5.8-15.6-7.4-6.4-.9-20.6-1.2-21.7,7.5-1.2,1.3-2.5,2.6-3.7,3.9,1.2-6.9-4.1-11.3-6.7-16.7.7-2.7-1.1-4.8-1.9-7,7.1-6.8,17.3-3.7,17.5-16.4h0Z"/>
    <path class="cls-179" d="M587.1,511.7c-.7.4-1.4.9-2.1,1.3-1.5-.9.9-3-2.9-4.4,1.5,12.5-3.6,23-7,34,.5-12.1-2.6-41.9-9.4-51.5,22.6-12.1,32.8-22.4,13.4-41.6,18.5-3.9,19.9,35.1,14,38.3-2.7,0-4.5-1.4-5.3-4.2-2.1,5.9-8.9,9.1-8.5,16.9,4.8-.9,6-6.1,10.2-6.9,2.9,3.2-1,4.5-1.6,7,1.3,1.4,2.7,2.9,4.1,4.5-1.6,2.2-3.2,4.4-4.7,6.6h-.2Z"/>
    <path class="cls-99" d="M511.4,570.2c6.1-5.8,48.4-17.9,47-3.9-1.8,18.3-37.1,10.1-47,3.9h0Z"/>
    <path class="cls-100" d="M485.8,449.3c24.9-5.7,38.1,8.6,63.6.3,7.4-1.7,23.9,18,22.9,18.5-3.1-1.2-6.6.5-9.6-1.7-1.3-3.2-4.9-2.9-7.1-4.9-7.4-6.8-8.3-6.8-18-1.8-11,.5-22.4,2.6-31.7-6-.3-.3-1.2,0-1.9,0-3.2-1.2-6.5-2.6-9.9-1.1-4.1,1.8-6.5,0-8.4-3.3h0Z"/>
    <path class="cls-267" d="M481.6,519.6c-4.4-1.5-8.8-2.8-13.7-3.2v-13.9c2.6-2.2,5.7-.6,8.5-.9.6,3.4,3.2,3.6,5.8,3.4,4.9-.4,9.9-.5,14.8.3-3,5.4-5.9,10.8-8.9,16.2-1.9-1.5-4-2.2-6.5-1.9h0Z"/>
    <path class="cls-76" d="M512,491.4c-2.2,1.1-4.7.8-7,1.9-3.3,1.6-4.4-2-6-3.9,1-1.5,1.3-3.2,1.2-5,3.7-3.1,4.2-7.5,3.4-11.5-1.1-5.7-.8-11.3-.8-16.9,5,6.1,8.2,13,9.9,21.8,1.7-4.7,3.2-8.7,8.1-10.7-2.7,5-5.3,7.1-1.2,7-1.5,6.2-5.8,11.2-7.6,17.3h0Z"/>
    <path class="cls-230" d="M462.8,760.1c8.7-.9,17.5,1.3,26-1.3,7.7.5,13.4-5.1,20.5-6.6,5.1.5,9.1-2.9,13.7-4.1,1,.5,2,.8,2.1,2.1-2,3.7-9.7-.6-8.7,6.8-11.7-1.6-16.7,9.5-26.5,10.8-.2,0-28.8-4.5-28-3.1.3-1.5.6-3,.8-4.6h.1Z"/>
    <path class="cls-31" d="M526.2,523.5c-5-.4-10,.6-14.9-1.3-5.1-1.9-6.1-4.8-2.4-9.4,9.2.9,18.2-1.2,27.2-2.7,2.9-.5,5.1-1.1,5.5,2.8-1.4,2-1.7,5.9-4.1,5.8-4.8,0-7.2,4.1-11.3,4.8h0Z"/>
    <path class="cls-65" d="M474.4,493.9c-2-1.3-2.7-3.2-2.3-5.5,7.3-3.6,5.7-11.2,6.9-19.1,2.1,4.4,3.3,7.1,5.4,9.1,5.7-3-1.3-9.1,4-11.9.9,3.9,1.8,7.7,2.7,11.6v15.9c-.9.7-1.8,1.3-2.7,2-3-.4-4.2-3.2-6.5-5.2-1.9,2.8-4.7,3.3-7.7,3.1h.2Z"/>
    <path class="cls-205" d="M482,545.1c-.9,0-1.7.2-2.6.3l.3-.4c3-3.3-2.3-4-2.2-6.6-.5.8-1,1.7-1.5,2.5-.9-1.2,1.3-3.8-1.7-4.2-2.3,1.6-2.8,4.3-3.9,6.6-4.5.4-6.1,4.4-8.7,7.1-2.7-2.3-1.1-4.6,0-6.9.9-2,2.2-4-1.2-5,.3-1.9,3-2.8,2.3-5.1,2-2.3,3.2-5.3,7.5-4,3.6,1.1,1.8-5.1,5.4-4.9,2.1,3.1,7.1,4.4,5.7,9.4,2.3,1.3,4.7.4,6.3,2-1,1.5-1.9,3.1-2.9,4.6-.9,1.5-1.8,2.9-2.7,4.4v.2Z"/>
    <path class="cls-196" d="M539.1,626.6c-8.1,1-4.7-9.4-9.2-12.3-3.5,4.4-6.5,3.8-9-1.8,1.5-6.1-1.9-11.2-3.9-16.5,5.7-5.7,7.2-6,10.8,1.8,4.4,9.3,9.9,18.3,11.2,28.8h.1Z"/>
    <path class="cls-256" d="M512,491.4c1.8-6.1,6.1-11,7.6-17.3,3.6-4.8,7.2-9.6,14.3-9.4,2.2,0,4.4-1.4,6.6-2.2,2.1.3,4.5-.7,6.3,1.2-5.4,3.8-12.4,6.1-12.9,14.3-.4.4-.8.8-1.2,1.2-.9-1.4-1.7-3-3.9-3.1-4.1,2.7-4.9,7.7-7.6,11.4-3.4.4-5.2,4.9-9.2,3.8h0Z"/>
    <path class="cls-231" d="M548.1,669.7c-1.3-6.1-1.5-12.2-1.1-18.4,9.6-.9,11.2,54.9,5.6,59.8-1.4,0-2.9,0-4.3-.2,2.9-13.7,4.6-27.5-.2-41.1h0Z"/>
    <path class="cls-243" d="M516.8,550.6c-11.7,0-8.8-3.5-6.1-9.4,8.9,0,16.3-4.9,24.4-7.4-1.3,3.8-3,7.7,2.2,10.1-4.3,4-10.5-2.4-14.4,2.9,2.4,2.4,4.8,2.2,7.1,2.3-4.2,2.4-8.9.4-13.2,1.5h0Z"/>
    <path class="cls-38" d="M541.6,512.9c-.4-3.9-2.7-3.2-5.5-2.8-9,1.5-17.9,3.6-27.2,2.7,3.7-5.8,10.8-5.7,15.9-9.1,6,.5,11.5-1.3,16.8-4.1,7.5,2.6,3.4,7.9,2.9,12.4-1,.3-1.9.5-2.9.8h0Z"/>
    <path class="cls-104" d="M508.1,428.7c2.4-2.3,3.4-5.8,6.6-7.4,2.9,4.1,8.5.3,11.7,4.4-.9.7-1.8,1.4-3.3,2.5,7.1,4.3,14.5,6.4,22.6,5.9-13,8.4-25.2.8-37.6-5.4Z"/>
    <path class="cls-271" d="M541.6,512.9c1-.3,1.9-.5,2.9-.8,2.7-.5,5.1,2.6,8.1.2.2,3.2-7.8,5.5-.5,8.5-1.4.9-2.7,1.8-4.1,2.8-5.3,1.8-9.8,5.3-15.4,6.4-.4-2.2,2-2.4,2.8-3.8-2.5-3.3-6.7,0-9.3-2.6,4.1-.7,6.5-4.9,11.3-4.8,2.4,0,2.8-3.8,4.1-5.8h.1Z"/>
    <path class="cls-26" d="M532.7,479.3c.4-.4.8-.8,1.2-1.2,5.3.6,9.1-2.4,13-5.2,4.8-3.4,11.4-2.4,15.9-6.5,2.9,2.2,6.5.5,9.5,1.7-2.4,3.4-6.4,3.8-9.8,5.3-5.6,2.5-11.2,4.8-16.9,7.2-4.3-.6-9,2.7-13-1.4h0Z"/>
    <path class="cls-242" d="M532.7,479.3c3.9,4.1,8.7.8,13,1.4-7.1,5.6-15,9.5-22.8,13.2-2.1-2.5-1.7-4.4-1.6-6.3,2.7-3.7,3.5-8.7,7.6-11.4,2.2.2,3,1.7,3.9,3.1h-.1Z"/>
    <path class="cls-47" d="M541.7,499.7c-5.3,2.7-10.7,4.6-16.8,4.1-2.1-9,16.1-20.2,20.6-11.8-5.5.3-3.9,4.4-3.9,7.7h.1Z"/>
    <path class="cls-222" d="M482,545.1c.9-1.5,1.8-2.9,2.7-4.4,9.1,0,11.3,38.8,15.3,46.2-14.7-2.4-7.4-35.3-18-41.8Z"/>
    <path class="cls-121" d="M474.4,493.9c3,.2,5.8-.3,7.7-3.1,2.3,2,3.5,4.8,6.5,5.2-.6,1.5-1.1,3-1.7,4.6-.4-.2,18.9,3.2,9.3,4.7-4.9-.8-9.8-.7-14.8-.3-2.6.2-5.2,0-5.8-3.4.7-1.5,1.3-2.9,2-4.4-.8-1.3-3.3-1.1-3.2-3.3h0Z"/>
    <path class="cls-239" d="M532.7,529.9c5.6-1.1,10.1-4.6,15.4-6.4,1.1,2.4,3.5,4.4,2.5,7.5-1.3-1-2.7-2-4.1-3-2.6,4.5-8,3-11.3,5.8-8.1,2.5-15.5,7.4-24.4,7.4-.6-3.3,2.3-3.1,4-3.8,5.9-2.6,12-5,18-7.5h-.1Z"/>
    <path class="cls-39" d="M487.6,536.1c-1.6-1.6-4.1-.7-6.3-2,1.5-5-3.6-6.3-5.7-9.4,2.3-.3,4.6.5,6.8-.7,1.2-2.2-3.8-1.9-1.7-4.4,2.4-.3,4.6.4,6.5,1.9,1.9,5.1,5.3,2.3,9.4,2.2-3,4.1-6,8.2-9,12.4h0Z"/>
    <path class="cls-163" d="M491.2,494v-15.9c4-6.5,1.6-14,3.6-20.8,1.2.3,2.6-.4,3.4,1.1-5,3.6-3.7,19.8,2.1,26,0,1.8-.3,3.5-1.2,5-2.4,1.1-3.6,3.4-5.2,5.3-1.2,1.4-2.1.9-2.6-.7h0Z"/>
    <path class="cls-248" d="M550.6,531c1-3.1-1.4-5.1-2.5-7.5,1.4-.9,2.7-1.8,4.1-2.8,5.5,1.5,6.2,6.2,6.2,10.6s-1.8,9.7-7.4,11.5c0-.3-.2-.5-.6-.5,1.2-3.8,2.8-7.5.2-11.4h0Z"/>
    <path class="cls-112" d="M535.2,731.9c1.6,2.8-1,4-2.2,5.8-.8,1.2-4,1.8-1.6,4.3-2.2,2.9-5.8,3.8-8.4,6.1-4.6,1.2-8.6,4.6-13.7,4.1.3-3.2,4.3-2.6,5.3-5.2,8-3.5,13.8-10.1,20.7-15.2h0Z"/>
    <path class="cls-132" d="M516.8,550.6c4.3-1.1,9,.9,13.2-1.5,7.8.8,14.1-3,20.4-6.8.4,0,.6.2.6.5,0,5.6-4.5,7-8.5,8.1-8.5,2.3-17.2,5.5-25.7-.4h0Z"/>
    <path class="cls-61" d="M419,749.6c1.7,0,3.3.2,5,.3-.6,3.5,2.2,4.6,5.3,6.3-5.2,2.4-19.2-6.9-20.8-1.4h-7.7c4.8-6.5,11.8-4.9,18.3-5.2h0Z"/>
    <path class="cls-216" d="M517.1,596c2,5.3,5.3,10.3,3.9,16.5-2.4-7.1-4.8-14.3-9-20.6,2,0,3.8.2,3.8,2.8.4.3.8.7,1.2,1v.2h0Z"/>
    <path class="cls-232" d="M517,595.7c-.4-.3-.8-.7-1.2-1,.4.3.8.7,1.2,1Z"/>
    <path class="cls-27" d="M322.9,661.9c.8-19.7-.6-40.3,3.3-59.7,1.1-5.3,4.5-31.1,9.7-32.4-5.3,10.5,9.7,7.7,15.3,7.2-1.1-11,7.2-4.7,10.9-6.3,1.6-9.1-7.7-4.6-10.2-8.7,3.7-3.8,19.8-4.6,21.5-1.7,5.3-7.9,4.2-14.2-4.1-18.9,4.3-3.5,6.2-7.1,5.3-11.8h1.3c1.7,4.2,1.7,8.7,3,13,2.3,7.5,7.4,13.4,10,20.6-2.9,1.4-4.9,3.8-6.5,6.5-1.2-5.1-6-5.1-10-7.9,1.1,5.2-22.2,39-27.2,41.6,1.2,2.4,1.3,5.5,4.9,3.8-3.4,9.8-5.3,29.7-19.7,26.9,5.5,6.9-.7,27.4-.4,35.5.4,10.7.4,30.4,8.3,38.7,2.4.9,2.5-2.6,4.5-1.9,2,2.4-20.5,31.6-12.4-10-2.6-1.7-4.3-1.5-5.1,1.7-2.9-12-2.7-24.2-2.5-36.4v.2Z"/>
    <path class="cls-197" d="M389,563.4c-2.6-7.2-7.7-13.1-10-20.6-1.3-4.3-1.3-8.8-3-13-1.8-3.9-1.9-7.9.2-11.8,2.1,11.5,9.9,19.2,18,26.5,3.2,2.9,6.3,6.7,11.6,6-2.6,2.1-5.2,4.3-7.8,6.4-3.7,1.1-5.7,4.7-9,6.4h0Z"/>
    <path class="cls-80" d="M350.2,607.3c-3.6,1.7-3.7-1.4-4.9-3.8,5-2.6,28.4-36.4,27.2-41.6,4,2.8,8.9,2.8,10,7.9-9.3,9.3-19.6,17.7-27,28.8-1.9,2.8-3.7,5.7-5.3,8.7h0Z"/>
    <path class="cls-187" d="M373.1,659.1c-1.3-6.7-2.5-13.4-3.9-20-1.2-5.6-1.7-11.5-5.2-16.3.9-4.7,6.8-7.5,4.7-13.4-.3-1,2.2-2.8,4.3-1.5.2,2.4.4,4.9,4,4.1,2.9-.6,2.3,1.7,2.5,3.2-2.5,5.8-4.6,11.7-5.1,18.1-2.8,5.4-.7,11.2-1.4,16.8v9.1h.1Z"/>
    <path class="cls-72" d="M354.1,679.5c12.8,19.5,19.2,38.7,37.8,54.3-11.9,1-47.5-44.9-37.8-54.3Z"/>
    <path class="cls-181" d="M379.9,615.1c-.2-1.5.4-3.8-2.5-3.2-3.6.8-3.8-1.6-4-4.1,2.6-1.6,2.1-4.9,3.9-7,5.4-1.9,6.9-8.2,11.9-10.6,1.1-.5,2-1.5,3.3-1.5.5,1.1,1.1,2.1,1.6,3.2-1.7,2.6-3.5,5.2-5.2,7.8-4.5,4.3-6.3,10.1-9.1,15.4h.1Z"/>
    <path class="cls-169" d="M419,749.6c-6.5.4-13.6-1.2-18.3,5.2-4.3-1.3-2.2-4.9-2.5-7.5-.3-2.3,0-4.6,0-7,7.8,1,14.7,4.1,20.8,9.2h0Z"/>
    <path class="cls-268" d="M636,421.1c-9.8,30.2-48.5,7.9-51.2-14.7-3.5-29.7,41.2-40.9,47.3-11.1-3,.2-5.4-3.5-8.6-1.4-.5-1.3-1.7-1.3-2.8-1.6-5.5-6.9-15.5-7-20.5,0,.8.6,1.6,1.2,2.4,1.8-10.3-.3-12.2,1.9-8.8,11.7,1.5,4.3,4.1,8.3,6.3,12.4,4.4,5.3,0,7,7.1,11.2,4.9,2.9,16.9,4.7,18.5-3.2h0c4.9,1.3,6.9-3.4,10.4-5h-.1Z"/>
    <path class="cls-71" d="M587.1,511.7c1.6-2.2,3.2-4.4,4.7-6.6,5.5-12.9,16.9-17,29.3-19,4.1-.7,8.4.9,11.3,4.7-4.5-1.2-9.4.7-13.6-2-1.3,2.1,0,3.3.5,4.6-5.2,2.4-11,3.6-15.5,7.5-2.5,3.3-5.1,6.5-7.6,9.8-1.7.8-1.6,2.2-1.4,3.7,0,1.6,0,3.2-.2,4.9-7.4,7,1.3,11.7,6.3,13.4,7.1,2.5,14-5.3,19.7-7.9-.4,3.1.4,5.3,4.1,5.2-17.8,24.5-43.8,7.6-37.6-18.2h0Z"/>
    <path class="cls-125" d="M619.3,493.4c-.5-1.3-1.7-2.5-.5-4.6,4.2,2.7,9.1.8,13.6,2,6.7,5.9,5.4,13.3,4,20.8-2.7,6.8-5.5,13.6-11.6,18.3-3.7,0-4.5-2-4.1-5.2,3.8-3,5.8-6.8,5.3-11.8,1.5-.7.7-2.3,1.3-3.4,5-8.8,2.2-14.3-8-16.2h0Z"/>
    <path class="cls-257" d="M557.3,401.9c4.6,2.9,12.5,19.9.2,17.8-9.1-1.5-6.4-14.9-.2-17.8Z"/>
    <path class="cls-84" d="M623.4,393.9c3.3-2.1,5.7,1.6,8.6,1.4,2.9,8.4,5.5,16.8,3.9,25.8-3.5,1.6-5.5,6.3-10.4,4.9.6-1.1,1.2-2.3,1.8-3.4.9-1.3,1.8-2.5,2.6-3.8,1.4-.5,2.1-1.4,1.9-2.9.3-3.5,1.8-7-1.1-10.2-1.6-.2-3-.6-2.4-2.6.8-2.9-1-4.7-2.7-6.6.4-1.9-2.6-.9-2.3-2.7h.1Z"/>
    <path class="cls-94" d="M488.7,303.4c1.5.4,3.1.8,4.6,1.3,2,5.2,7.3,3.2,10.9,5-12.5-1.3-24.9,6.9-37.4-.8-.6,7.8,3.6,8.8,8.8,8.8.4,4.4,5.5,1,7.1,4.5-9,1.9-18.1-.6-27.2,1.5,6.7,10.1,59.9-6.4,63.2,6.2-4.3,2-9.5-.4-14.5,1.9,2.9,2.2,5.6,1.1,7.9,1.7-18.7,5.2-37.8,4.7-56.8,2.9-11.4-1.1-22.7-3.7-34.1-5.6-13-3.9-25.9-8.8-39.3-11.2-14.5-2.6-27.8,1.3-41.8-.4-2.7-2.1-5.8-1.1-9-.8-.2-1.8-.3-3.2-.4-4.6,3.9-.3,7.4,1.5,11.9,2.2-1.5-3.7,3.7-2.9,3.7-6,3.7.3,7.4.7,11.1,1.8,4.7,1.4,10,2,14.8-.6,2.5-1,4.8-2.8,7.7-2.5.9-.3,6.6,3.3,9.7,2.9,9.8-1.3,8-9.8,14-14.6,7.2,7.4,6.6-7.3,8.3-9.5,12,11.4,28.8,12.5,35.3,2.2,3.9,2.5,6.8,2.2,7.7-3,11.2,9.4,4,17.1,20.6,15.5,4.3,1.5,8.7,1.4,13.1,1.3h0Z"/>
    <path class="cls-183" d="M433,348.7c26.4,3.7,53.8,5.2,80.1,0,8.8-1.8,50.3-23.4,50.9-22.9-2.3,6.3-6.2,11.4-11.6,15.3-5.3,2.2-13.1-.2-14.9,7.9-7.9,1-15.9,1.2-21.9,8.4-1.2.1-2.9-1.7-4.8-.5-.5.9,2.2,1,.5,2.1-2-.3-3.8-.6-6.5-1,2.4,2.3,4.4,2.2,6.3,2.5-21.4,4.2-42.6,3.1-63.7-2.2-9.7-2.5-19.3-5.6-28.6-9.5,1.6-2,3-.4,4.5.2,3.3,1.2,6.5,1.9,9.7-.2h0Z"/>
    <path class="cls-34" d="M440.1,392.4c-4.5-2.2-8.9-4.5-13.4-6.7-10.2-6.4-21.1-11.9-29.9-20.4,3.1-1.2,2.4-6.1,6.4-6.3,1.4,2.8,4.5,2.6,6.7,3.8,2,2.1,3.9,4.3,5.9,6.4,4.3,8.1,24.7,22.5,35.4,19.6,2.2,2,5.4.7,7.7,2.3l5.1,1.7c-.3,13.5,24.9.8,29.7,6.1-8.7,3.4-17.6,1.9-26.4.6s-17.3-4.7-26.3-4.5c-.3-.9-.6-1.8-.9-2.7h0Z"/>
    <path class="cls-148" d="M567.6,310.8c-2.1,1.2-4.3,1.5-6.6,1.3-.9-6.5-6-6.5-10.5-5.8-7.7,1.2-15.2,3.8-23.1,3.3h-20.8l-3.5-.6c-3.5-1-8,.1-9.8-4.6,4.4-5.3,36.8-2,43.3-2.7,11.6-1.2,27.3-6.9,30.9,9.1h0Z"/>
    <path class="cls-19" d="M488.7,303.4c-4.4.1-8.9.2-13.1-1.3,1.8-3.8,4.7-21.2,4.2-24.6-2-14.7-6.6-16.9-22.3-16.8l-4.1-.3c5-2.4,10.3-.7,15.4-1.1,3.7-.3,5.1-1.4,3.3-5,5.9,4.3,7.7,11.2,11.2,17.1,4.2,6.9,5,15.4,10.2,21.9,1.2,2.2.8,3.9-1.1,5.8-1.3,1.2-4.3,1.4-3.7,4.3Z"/>
    <path class="cls-1" d="M330.8,325.8c1,5.6,5.4,3.1,8.5,2.7,10.2-1.5,20.3-2,30.4.5,1.1,1.9,5,.4,5.2,3.4-10-1.6-19.6-2.1-28,4.1,1.5,1.7,3.3.2,4.7.9-4.1,1.9-8.5,2-13,2.3-5.2-1.1-10.5,3.2-15.6-.3,1.5-2.5,2.4-5.2,2.7-8,.3-2.9,1.6-5,5.1-5.5h0Z"/>
    <path class="cls-8" d="M409.9,362.8c-2.3-1.2-5.4-.9-6.7-3.8,1.1-4.6,39.1,2.5,39.9,6.9,4.3-1.9,19.7,6.8,19.6,12.7-3.6-1.8-7.1-3.9-10.8-5.4-3.5-1.4-7.1-4.5-10.9-.3-7.2-5.9-15.8-8.6-24.5-11-2-.6-4.6-1.3-6.5.9h-.1Z"/>
    <path class="cls-105" d="M440.9,373c3.7-4.2,7.4-1.1,10.9.3,3.7,1.5,7.2,3.6,10.8,5.4,2.5,2.7,14.6,19.7,1.4,14.3-1.7-.6-3.4-1.2-5.1-1.7.4-3-.5-5.3-3.3-7.1-4.6-3-9.1-6.3-13.6-9.5-.4-.6-.7-1.1-1.1-1.7h0Z"/>
    <path class="cls-210" d="M511,360.5c-1.9-.3-3.9-.2-6.3-2.5,2.8.4,4.6.7,6.5,1,1.7-1.1-1-1.3-.5-2.1,1.9-1.2,3.6.6,4.8.5,6-7.2,14-7.4,21.9-8.4,1.7-8.1,9.6-5.7,14.9-7.9-.9,3.3-3.3,5.3-6,6.9-10.8,6.8-22.6,11.2-35.4,12.5h0Z"/>
    <path class="cls-150" d="M374.8,333c-.2-3.3-4.1-1.7-5.2-3.8,9.9.3,18.6,4.7,27.3,8.6,11.6,5.2,23.9,7.6,36.1,10.9-3.2,2.1-6.5,1.4-9.7.2-1.5-.5-2.9-2.2-4.5-.2-14.6-5.3-29.3-10.5-43.9-15.8h0Z"/>
    <path class="cls-129" d="M512,287.1c1.9,4.2,8.2,3.9,12.4,7.9-4.2,9.7-16.1-1.4-15.6-7.9h3.2Z"/>
    <path class="cls-170" d="M382.5,157.5c.9-.1,1.7-.3,2.6-.4,28.6,5.3,55.5,11.8,81.8,24.4-4.7,5.3-9.4-1.1-14.3,1.8,5.3,5.8,13.7,4.8,18.4,10.6-3.1,2.8-1.4,7.1-2.2,11-.6.2-1.3.8-1.8.6-13-4.7-26.7-7.5-39.2-13.6,3.9-1.6,9.5-4.4,10.1-8.8,1.9-13.9-12.8-3.6-18.4-6,1-3.2-6.7-11.3-8.5-12.3-5.6.8-28.6.2-28.7-7.4h.2Z"/>
    <path class="cls-177" d="M453.4,260.5c1.4,0,2.7.2,4.1.3-1.9,2.5-2.7,5.2-2.6,8.4.2,5.8,0,11.6,0,17.4-.9,5.2-3.8,5.5-7.7,3-6.6,10.3-23.3,9.2-35.3-2.2-1.7,2.2-1.1,16.9-8.3,9.5-6.1,4.8-4.2,13.3-14,14.6-3.1.4-8.7-3.3-9.7-2.9,1.2-1,25-11.9,15.2-18.3,3.9-10.2,2.6-20-2.5-29.4,5.6-2.2,10.4-7.6,17.9-4.3-1.8,2.8-3.3,5.6.3,10.2-1.1-5.9,6.5-5.5,3.6-10.9,8.6,1.5,14.3,1.5,17.2-.2,7.4.8,14.3,4.4,21.8,4.8h0Z"/>
    <path class="cls-172" d="M431.6,255.7c-2.9,1.7-8.6,1.7-17.2.2,2.9,5.3-4.7,5-3.6,10.9-3.6-4.6-2-7.4-.3-10.2-7.5-3.2-12.3,2.2-17.9,4.3-6.1-5.5-10.4-13.3-19.3-15.2,1.9-1.7-1.3-3.5.1-5,2.9-2.6,6.3,1.7,9.2-.8,16.3,5.3,32.7,10.6,49,15.8h0Z"/>
    <path class="cls-185" d="M275.1,246.4c14.9-6.6,30.6-9.8,46.6-11.5,13.3-1.4,26.6,0,39.9,0,.1.4.3.7.4,1.1-1.7.1-3.5.3-5.2.4,1.4,1,2.3,2,2.4,3.6-11.3-.9-22.4,2.2-33.6,2.6-11.3.1-22.4,2.7-33.6,3.9-3.4.4-6.9.9-10.3,1.3-2.3.1-4.5,0-6.5-1.4h0Z"/>
    <path class="cls-28" d="M359.3,240c-.1-1.6-1-2.6-2.4-3.6,1.7-.1,3.5-.3,5.2-.4,7.1-.1,13.9,1.2,20.5,3.9-2.9,2.5-6.2-1.8-9.2.8-1.4,1.5,1.8,3.3-.1,5-4.6-.9-9.2-1.7-13.9-1.4,0-1.4,0-2.8-.1-4.2h0Z"/>
    <path class="cls-82" d="M382.5,157.5c0,7.6,23,8.2,28.7,7.4,1.8,1,9.5,9.1,8.5,12.3,5.5,2.3,20.3-7.9,18.4,6-.6,4.4-6.2,7.2-10.1,8.8-1.3-.3-2.6-.7-4-1-3.3-9.2-55.4-19.8-49.2-33.7,2.6,0,5.2.2,7.7.2Z"/>
    <path class="cls-223" d="M285.7,374.8c-15.3,18.6-23.3,39.9-32.5,61.8-1.9-1-2,.6-2.5,1.7-1.4,3.1-1.8,6.8-5.3,8.7-4.8-2.5-2.3-6.6-2-10.1.5-5.5,3.6-11.1-1.9-15.8-2.9-7.2,5.2-14.2,1.6-23.9,6-4.8,7.6-9.8,4.8-14.9-.4-7.2,16.2-16,22.4-13.9,3.5-3.3-8.6-6.8.9-9.4,4.3,2.6,6.2,15.6,6,20,2.8-3.9,7.4-5.4,9.2-11.1,1.1,3.7-.6,5.2-.8,6.9h0Z"/>
    <path class="cls-207" d="M285.7,374.8c.2-1.7,1.9-3.2.8-6.9-1.8,5.8-6.4,7.2-9.2,11.1.2-4.4-1.7-17.4-6-20,.1-3.1-3.5-1.9-4.4-3.9,1-1.9,2-3.7,3.5-6.3,4.4,11.1,13.5-.9,3.6-2.8,3.9-7.1,12.2-10.1,15.8-17.9,3.4-7.6,13.3-8.9,17.9-15.7,2.2,9.3,10,17.5,4.9,29-.8.7-4.6,0-4.2,3.6,1,1.3,2.4.9,3.6,1.1-1.5,2.9-3.9,5-6,7.3-5.6,6-12.6,10.8-16.2,18.5-1.3,1-2.5,1.9-3.8,2.9h-.3Z"/>
    <path class="cls-6" d="M245.4,447c3.4-1.9,3.8-5.6,5.3-8.7.5-1.1.6-2.7,2.5-1.7-1.6,4.6-3,9.3-2.5,14.2-1,1.6-2.4,2.9-2.9,4.9-5.5,21.7-10.3,43.4-10.2,66-2.4,13.8-1.7,27.7-2.3,41.6-2.7,2-.1,5.8-2.7,7.9,1.8-12.3-3.6-24-2.6-36.2-1-3.5,2.6-5.7,2.6-8.9.2-12.6-1.2-25.3,2.6-37.7,6.5-5,.4-10.5.2-15.9,9.5-2.2,10.9-17.4,10.1-25.5h-.1Z"/>
    <path class="cls-135" d="M237.5,521.7c0-22.5,4.7-44.3,10.2-66,.5-2,1.9-3.3,2.9-4.9.8.2-9.1,86.8-12.8,86.7,0-5.3-.2-10.6-.3-15.9h0Z"/>
    <path class="cls-130" d="M310,551.8c-8.6,46.8-12,88.1-10.1,135.7-5.2-.6-2.7-17.7-2.7-16.7-1.4.2-2.1,1.2-2.2,2.8-3.3-16.8,1.7-37.6,2.5-55,1.1-22.2-1.4-47.5,12.4-66.9h.1Z"/>
    <path class="cls-134" d="M237.5,521.7c0,5.3.2,10.6.3,15.9,0,18.4,1.3,35.6,2.2,53.7.4,7.9,10.5,44.2,5.3,48.5-2.7-5.3-2.1-11.4-4-17-2-19.9-4.1-39.7-6.1-59.6.6-13.9-.1-27.8,2.3-41.6h0Z"/>
    <path class="cls-62" d="M289.5,371.9c3.6-7.7,10.7-12.4,16.2-18.5,2.2-2.3,4.6-4.4,6-7.3,4-1.2,6.1-6.5,11.2-5.5,5.1,3.8,10.4-.9,15.6.3-3.1,2.8-7.1,5.3-4,10.5-7,2.9-11.1-1.5-15-4.9-6.1,3.9-23.3,26.2-30.2,25.3h.2Z"/>
    <path class="cls-35" d="M241.3,623.5c1.9,4.9,1.4,11,4,16.4.9,10.3,5.1,19.7,7.6,29.6-4.3-1.5-4.1-6.1-6.2-9.1-1.5-2-1.8-4.8-4-6.4-3-8.6-6-17.3-9-25.9,3.6-.8,3.5,2.7,5.4,5,1.8-3.7.7-7.1,1-11.4l.6,1.7h.6,0Z"/>
    <path class="cls-273" d="M276.5,726.3c-6.4-11.1-11.1-22.9-15.8-34.7.5-.2,18.7,23.9,20.1,26-1.9,2.5-3.8-.4-6.4-1.1,1.7,3.6,2.4,6.7,2.1,9.9h0Z"/>
    <path class="cls-180" d="M427.7,445.4c-28.5,15.7-51.8,30.9-69.6,59-7.9,12.5-14.2,26-19.4,39.8-2.8,7.4-6.8,37.5-12.9,40-2.5-2.5,0-4.9.4-7.1,4.8-23.8,13.3-46.4,24.2-68,11.3-16.7,22.1-32.4,38.1-44.8,3.8-3,37.6-24.3,39.2-18.9h0Z"/>
    <path class="cls-138" d="M454.9,413.4c15.5.5,31-.1,46.3-2.8-12.9,27.5-59.7,2.2-71,23.4-3.7-.7,1.7-11.1,1.2-14.1,4.9,6.1,34.6,1.7,42.7,2.3-4.5-9-14.5-7-28.6-6.3,3.3-2.5,7,0,9.4-2.5Z"/>
    <path class="cls-237" d="M350.4,509.1c-10.9,21.7-19.4,44.2-24.2,68-.4,2.2-2.8,4.6-.4,7.1-.3,6.5-3.3,12.7-3,19.3-10.3.8,6.5-68,12.7-69.8-.4-3.5-5.7-3.6-4.1-8.2,10.7,4.1,10.6-18,19-16.4h0Z"/>
    <path class="cls-218" d="M233.8,628.1c3,8.6,6,17.3,9,25.9-4.3.6-4.9-2.9-6.2-6.7-2.1,3.5-4.8,12.6-11.7,7.5-.6-2.6,2.4-5.1.4-7.7-2.3,0-1.3,2.1-2.8,3-.9-2.5.8-7.1-4.3-6.4-2-2.2-3.3-4.8-3.8-7.7,10.6-8.7-17.2-62-2.6-64.7-2.1,8,9.2,37.5,16.6,41.5.3,5.7,6,9.5,5.4,15.5v-.2Z"/>
    <path class="cls-55" d="M86.3,506.5c9.8-9.2,19.5-18.5,30.8-25.9,2.1-1.4,4.5-2.5,5.8-4.9,4.1-.3,7.3-2.9,10.8-4.5,3.1-1.4,6.2-2.5,9.6-2.2.3,4.1-3.4,4.6-5.8,6-15.3,8.9-29.5,19.2-41.1,32.7-10.3,9.8-19.7,20.3-27.4,32.3-2,3.1-4,6.7-8.6,6.9.6-6.5,4.6-11.3,8.1-16.3,5.7-8.1,11.8-16,17.7-23.9v-.2Z"/>
    <path class="cls-199" d="M211.8,571.1c-14.6,2.7,13.1,56,2.6,64.7-2.7-6.5-4.1-13.3-5.2-20.2-.4-2.5-.9-5-2.5-7.1-1.5-9.7-2.8-19.5-4.5-29.1-.5-2.8-.7-5.5-.8-8.3,0-4.5-2.3-35.3,3.9-33.6-.2,5.9,4,10.8,4,16.7-1.7,6,2.4,11.2,2.5,16.9h0Z"/>
    <path class="cls-200" d="M235.1,488.4c-3.8,12.3-2.4,25.1-2.6,37.7,0,3.3-3.6,5.4-2.6,8.9-5.2-15.9,8.5-52-9.8-61.4-3.5,4.8-26.5,3-30.6-.2-9.3-7.2-.8-14.9-5.5-25.8,1.4-1,3-2.1,3.9-2.7,1.3-13-28.3-74.4-8.9-81.6-.8-4.6-6.3-5.5-6.9-10.1-.7-4.5,4.5-7.2,3.4-12.4.1-1.2.2-2.4.3-3.6h1.4c.8,1.3,1.5,2.6,2.3,3.9l.7,1.6c.2-.5.5-1.1.7-1.6l5.1,2.9c3.9,2.9,2,7.7-4.9,11.8,8.8,16.8,5.1,36.3,8.7,54.5,1.6,8.1,2.2,20.7,7.9,27.6,10.5,12.6,5.5,5.9,14.6,1.7,2.7,6,10.2,1.7,14.6,6.1-9.6,7.1,7.9,32,8.3,42.9v-.2Z"/>
    <path class="cls-68" d="M175.6,335.7c-3-12.7,10.1-36.8,25.8-38.9v1.3c-2.3,3-5,5.5-6.5,9.1-3.7,2.9-5.4,6.9-5.5,11.5-4.3,4.2-6.9,9.6-10.2,14.6v2.2c-.7.5-1.4.9-2.1,1.4h-.3c-.4-.4-.8-.8-1.3-1.2h.1Z"/>
    <path class="cls-137" d="M201.5,298.2v-1.3c2.8-3.4,2.7-7.7,3.6-11.8,0-.3.2-.7.3-1,7.8-6.5,15.5-13,23.4-19.4,1.9-1.5,3.5-3.8,6.3-4.1.9.5,1.9,1,2.8,1.4-2.4,2.4-6.3,2.9-8,6.2-7.6,3.4-9.7,10.9-12.7,17.6-1.2,2.8-5.4,1.3-6.3,4.5-4.9.3-5.1,6.5-9.3,7.7v.2Z"/>
    <path class="cls-226" d="M175.6,335.7c.4.4.8.8,1.3,1.2h-1.1c0-.4,0-.9-.1-1.3h0Z"/>
    <path class="cls-233" d="M229.8,268.3c1.7-3.3,5.6-3.8,8-6.2,11.7-6.9,24.4-11.6,37.3-15.7,2,1.3,4.2,1.5,6.5,1.4-14.4,6.8.2,4.3-2.1,12.3-6,.5-8.5,6.2-13.9,8.6,7.9,9.3-11.4,14.4,1.9,25.3-4.4,1.7-9.4,2.3-10.5,8.2-4.2-3.3-.6-12.5-9.2-10.5-.7-2.6-2.8-5.1,0-7.7-2.8-1.8-1.9-5.4-3.7-7.4-5.4-1.5-11,1.1-15.9-2.2,1.5-2,1.8-4,1.5-6.2h0Z"/>
    <path class="cls-54" d="M209.3,554.2c0-5.9-4.2-10.8-4-16.7-.4-8.3-3.8-16.2-3.9-24.5v-3.9c7.2,1.7,20.2,75.6,20.6,83-3.1-3.8-3.7-8.5-5-12.9-2.5-8.3-4.4-16.8-7.8-24.8v-.2Z"/>
    <path class="cls-48" d="M241.3,621.7l-.6,1.7h-.6c-3-7.5-6-14.4-5.1-22.3,1.1-10.2-4.5-19.8-2.6-30.1,2.6-2,0-5.9,2.7-7.9,2,19.9,4.1,39.7,6.1,58.4v.2Z"/>
    <path class="cls-235" d="M209.3,554.2c3.4,8,5.2,16.5,7.8,24.8,1.4,4.4,2,9.2,5,12.9,0,4.8,2.3,8.7,4.4,12.9,1.2,2.4,2.5,4.9,2,7.7-7.4-4-18.7-33.4-16.6-41.4-.2-5.7-4.2-10.9-2.5-16.9h0Z"/>
    <path class="cls-59" d="M201.4,513c0,8.4,3.6,16.2,3.9,24.5-6.2-1.7-3.9,29.1-3.9,33.6-8.6-7.6-2.3-50.2-2.5-60.5,1.9-.3,1.3,2,2.5,2.3h0Z"/>
    <path class="cls-107" d="M374.8,529.8c.9,4.7-1,8.3-5.3,11.8,8.3,4.8,9.4,11,4.1,18.9-1.7-2.9-17.9-2.2-21.5,1.7,2.4,4.1,11.8-.4,10.2,8.7-3.7,1.6-12-4.7-10.9,6.3-5.6.5-20.7,3.3-15.3-7.2,1.5-22.9,18.2-57.9,34.5-73,5.3,5.4-6.2,27.1-9.8,31.7,4.1,2.4,5.3-3.5,8.3-3,1.6.3,4.3,4.3,5.8,4.2h-.1Z"/>
    <path class="cls-49" d="M405.9,550.5c-5.2.7-8.4-3.1-11.6-6-8.1-7.3-15.9-15.1-18-26.5-.5-3.4-.2-6.7,3-8.5,3.3-1.8,2.1-6,4.7-8-1.7,11.7,43.4,42,46.8,30.7,1.3-.2,2.5-.3,3.5,2-9.7,4.9-19.9,9.3-28.4,16.3Z"/>
    <path class="cls-241" d="M430.7,532.2c-3.4,11.2-48.5-19-46.8-30.7,2-1.8,4.1-3.6,6.1-5.5,1.6,4.9,32.7,32.3,39,32.6,1.2.9,1.6,2.1,1.6,3.6h0Z"/>
    <path class="cls-115" d="M488.5,466.4c-5.3,2.8,1.7,8.9-4,11.9-2.2-2-3.3-4.7-5.4-9.1-1.2,7.9.4,15.5-6.9,19.1.2-6.1-1.9-11.9-3.1-17.8,0-5.7-2.4-11-2.2-16.7,0-2.1-1.5-4.2,2.2-4.1,9.4,2.2,17.2,6.3,19.5,16.7h-.1Z"/>
    <path class="cls-10" d="M453.8,499.2c11.3,43.6-12.3,9.5-23.5-8.2v-1.3c4.4,2.6,6.3-3.7,10.2-2.6,1.9.5,1.1,4,4.1,3.8,2.6,3.2,3.7,8.2,9.2,8.3h0Z"/>
    <path class="cls-198" d="M462.8,533.5c.6,2.4-2.1,3.2-2.3,5.1-.4.5-.7,1-1.1,1.5-2.8-.8-4.5,1-6.1,2.6-3.4,3.8-6.6,7.7-10,11.6-4.3,4.4-8.6,8.8-11.9,14.1-6.2,4.7-9.9,11.5-14.7,17.4-2.3,2.9-4.7,4.8-8.4,4.8.4-2.2.9-4.4,1.3-6.7,6.4-5.8,10-13.9,17.2-19.6-1.8-.5-2.9-.2-3.4-1.3,10.4-10.8,21.7-20.5,34.6-28.4,1.6-1,3.1-1.3,4.8-1.3v.2Z"/>
    <path class="cls-247" d="M444.7,490.9c-2.9.2-2.2-3.3-4.1-3.8-4-1.1-5.9,5.2-10.2,2.6-4.4-3.4-8.8-7-14.1-8.9-2.8-1-3.9-2.5-2.6-5.4,5.2-3,10.4-6,15.5-9.1.3,2.7,2.3,4.5,3.9,6.5,4.5,5.6,9.1,11.2,11.7,18.1h0Z"/>
    <path class="cls-17" d="M444.7,490.9c-2.6-6.9-7.2-12.4-11.7-18.1-1.6-2-3.6-3.7-3.9-6.5,12.2-7.8,27.1,24.1,24.7,32.8-5.4-.1-6.5-5.1-9.2-8.3h.1Z"/>
    <path class="cls-111" d="M488.5,466.4c-2.3-10.4-10.1-14.5-19.5-16.7,2.3-.5,5.3.7,6.5-2.6,3.4.7,6.9,1.5,10.3,2.2,2,3.2,4.3,5.1,8.4,3.3,3.4-1.5,6.7,0,9.9,1.1-.5.4-.9.8-1.4,1.2-3.1-.9-6.4-2.3-8,2.3-2.1,6.8.4,14.4-3.6,20.8-.9-3.9-1.8-7.7-2.7-11.6h.1Z"/>
    <path class="cls-193" d="M475.5,447.1c-1.2,3.3-4.2,2.1-6.5,2.6-3.7-.1-2.1,2-2.2,4.1-.2,5.8,2.2,11.1,2.2,16.7-4.4.9-12.7-19.9-13.8-24.5,7-1.4,13.7-1.5,20.3,1h0Z"/>
    <path class="cls-131" d="M413.6,475.4c-1.2,2.8-.1,4.4,2.6,5.4,5.4,1.9,9.7,5.4,14.1,8.9v1.3c-3.2.2-2.2,2.8-2,5.7-7.6-6.1-14.3-11.4-21.3-17.1,2.2-2.2,3.8-4,6.6-4.2h0Z"/>
    <path class="cls-164" d="M394.2,591.9c-.5-1.1-1.1-2.1-1.6-3.2,5.3-6,10.3-12.4,18.2-15.1l.4.4c-3.2,6.1-9.3,9.8-13.1,15.4-1.3.8-2.6,1.7-3.9,2.5h0Z"/>
    <path class="cls-278" d="M423.5,563.2c.5,1.1,1.6.9,3.4,1.3-7.2,5.7-10.8,13.8-17.2,19.6h-1.3c1.3-5.1,6-8.2,7.8-13.1,1-1.7,1.9-3.5,2.9-5.2,2.5.9,2.3-2.8,4.4-2.6h0Z"/>
    <path class="cls-91" d="M419.1,565.8c-1,1.7-1.9,3.5-2.9,5.2-.8,0-1.7.2-2.5.2h-2.4c1.7-3.1,4.2-5,7.8-5.4Z"/>
    <path class="cls-164" d="M411.3,571.2h2.4c-.8.9-1.6,1.8-2.5,2.7l-.4-.4c.2-.8.3-1.6.5-2.4h0Z"/>
    <path class="cls-155" d="M444.6,731.5c-14.3-4.2-27.7-10.2-39.2-19.8-12.8-10.7-24-22.8-28.1-39.7,6.3,4.3,8.1,13.1,15.6,16.1,1.5-1.1-.2-2.9,2-3.6.8,1.6,1.1,4,3.5,4.6,0-2.1.7-3.5,2.2-4.2,5.6,7,12.4,12.7,19.4,18.1,7.1,5.6,14.1,11.1,23.2,13,4.7,3,10,4.5,15.5,5.2,15.1,5.7,22.1,7.8,37.6,7.8-6.5,3.2-13.6,3.4-20.5,3.7-10.4.5-20.9.4-31.3-1.2h0Z"/>
    <path class="cls-238" d="M444.6,731.5c10.4,1.6,20.9,1.7,31.3,1.2,6.9-.3,14-.6,20.5-3.7,4.9-1.8,9.8-3.4,14.1-6.5,2.2-1.3,4.4-2.5,6.6-3.8,2.8,3.6,8.4-1.2,9.5,6.6-.3-2.1-11.5,13.7-11.2,13.5,1.5.8,3.4.7,3.5,2.9-1.4,1.8-2.8,3.6-4.3,5.4-.9,2.6-5,1.9-5.3,5.2-7,1.5-12.8,7.2-20.5,6.6-1.9-.3-3.7-1-5.4-2.9,2.3-4,5.1-8.3,1.2-13.5-13.9-1.8-29.1-4.6-40-10.8v-.2Z"/>
    <path class="cls-74" d="M400.2,685c-1.6.7-2.3,2.1-2.2,4.2-2.3-.6-2.6-3-3.5-4.6-2.3.7-.5,2.5-2,3.6-7.5-3-9.3-11.8-15.6-16.1-4.4-3.4-3.7-8.3-3.9-12.9v-9.1c2.6-.7,5.4-2.9,7.2.9.7-2.4,1.4-13.1,7-11.3.4,3-.9,6.3,1.2,9.1-.2,5.4,1.4,10.4,2.8,15.4.5,3.7,2.1,7.1,3.8,10.4.5,4.1,4.6,6.3,5.2,10.3h0Z"/>
    <path class="cls-36" d="M448,637c5.7-12.5,9.9-15.2,29.6-18.5,0-.4-.1-17,6-14.9,1.7,4.1,11.3,8.1,14.1,12.3-3.4,3.9-3.5,7.8-.4,11.5,3.2,1.8,6.1,4.2,8.5,7,.9,4.1,6.8,4.2,7.1,9.1-5.1,1.8-10,4.4-15.1,7.6-3.8-4.6-8.3-8.1-14.2-9.1-3.3-2.2-6.9-.6-10.4-.8-4,1.5-3.2,3.9-1.6,6.9,2.5,4.9,8.4,4.2,11.9,7.4-2,11.1-8.6-1.2-12.1,5.2,2.2,1.7,5.8,1.8,6.1,5.5-2,.8-4,1.5-5.9,2.2-5-1.2-9.9-3.6-15.3-2.8-.9-3.7-3-6.8-5.1-10-3.6-5.6-7.8-11.4-3.1-18.5h-.1Z"/>
    <path class="cls-157" d="M448,637c-4.7,7.1-.5,13,3.1,18.5,2.1,3.2,4.2,6.2,5.1,10-.4.5-.9.9-1.3,1.4-2.6.2-5.1-1.2-7.7-.3-2.7-1.9-6-3.4-5.2-7.7.2-1.5-1.1-2.2-2.4-2.4.2-5.5,5.9-14-1.5-17.3-2.5,2.5.3,6.5-2.9,9.2-4.9-19.2-42.6-9-39.6-41.1v-1.3c3.5-4.8,5.3-11.1,11.7-13.3,5.1.3,3.6,3.2,2.1,6.1,1.9.6,3.6,1.2,5.4,1.8-1.4,2.3-4.7,3.9-2.9,7.5,4,.7,5.4-5.1,9.5-3.6-.8,3.6,1.4,5.4,4.5,6.1-.6,2.4-2.9,1.4-3.7,2.8,6.7,13.5,17.8-3.4,21.6,0,3.7,3.2-16,15.9-2.4,17.7,4.7-11.8,8.9-5.2,15.1-13.3,3.9,8.5-12.6,7.8-8.4,19.2h-.1Z"/>
    <path class="cls-219" d="M483.6,641.9c5.9,1,10.4,4.5,14.2,9.1,5.1-3.1,10-5.8,15.1-7.6-.3-4.9-6.2-4.9-7.1-9.1.3-.4.7-.8,1-1.2,2.6,1.7,5.9,2.4,7.7,5.2-.2,12.7-10.4,9.5-17.5,16.4.8,2.2,2.6,4.3,1.9,7-5.2-2.1-10.3-4.2-15.5-6.4-3.5-3.2-9.3-2.5-11.9-7.4-1.5-3-2.4-5.4,1.6-6.9,0,1.4-.4,3,1.2,4.5,2.2-3.4,6.7-.7,9.2-3.7h0Z"/>
    <path class="cls-149" d="M421.3,604.6c-4.1-1.4-5.5,4.3-9.5,3.6-1.8-3.6,1.5-5.2,2.9-7.5,7-5.8,11-14.2,17-20.8,4.4-2.6,8.1-5.8,10.9-10,6.9,5.9,2.7,9.9-2.3,13.9-2.1,1.7-4,3.6-6.1,5.5-3.7,5.6-11.2,8.1-13,15.3h.1Z"/>
    <path class="cls-186" d="M479.7,550.4c6.6,7.2,1.5,22.1-2.1,30.4-5.4-4.1-8,7.1-14.4,1.8.4-.4,15.1-11.5,7-14.2,3.2-6,6.3-12,9.5-18Z"/>
    <path class="cls-116" d="M434.3,589.3c2-1.8,3.9-3.8,6.1-5.5,5-4,9.2-8,2.3-13.9-.2-.3-.4-.7-.6-1.1,6.6,0,8.2-6.8,12.9-9.4.7,3.9-2.8,5.4-4.9,7.9,2.7,1.7,1.3,5.8,5,6.4-1.6,2.5-3.9,4.4-5.9,6.6-3.7,4.2-8.6,7.4-11,12.8-2.4-.2-.6-4.5-3.8-3.9h-.1Z"/>
    <path class="cls-20" d="M438.2,593.2c2.4-5.4,7.3-8.6,11-12.8,2-2.2,4.3-4.1,5.9-6.6,2.5-1.1,4.4-3.8,7.7-2.6.2,6.8-17.7,24.6-24.6,22.1h0Z"/>
    <path class="cls-64" d="M479.7,550.4c-3.2,6-6.3,12-9.5,18-2.5,1-4.1,4.1-7.5,2.8-1.5-7.2,4.1-11.4,7.3-16.5,4.7,1.2,4.7-2.6,5.7-5.3h0c.7-.2,1.2-.5,1.1-1.4.5-1.4,1.4-2.4,2.9-2.9l-.3.4c0,1.7.2,3.3.2,5h0Z"/>
    <path class="cls-78" d="M506.8,633.2c-.3.4-.7.8-1,1.2-2.4-2.8-5.2-5.2-8.5-7-3.1-3.7-3-7.6.4-11.5-2.8-4.2-12.4-8.2-14.1-12.3,13.2,4.9,11.3,4,16.9,13.4.2.3,6.4,14.8,6.2,16.2h.1Z"/>
    <path class="cls-58" d="M483.4,655.4c5.2,2.1,10.3,4.2,15.5,6.4,2.6,5.4,7.9,9.8,6.7,16.7.8,6.1-1.8,11-5.6,15.4-6.8,4-13.2,8.9-21.8,8.1h-2.5c-3.9-1-4.8,11.4-6,13.9-5.8.3-18.5-2.3-17.5-10.3,1.6-2.5,2.9-4.9.1-7.4-5.1.8-3.1-3.2-3.7-5.5-3.1-3.4-6.1-6.9-9.2-10.3-3.6-5.4-3.7-9.6,3.5-12,1.6-.5,2.8-2.4,4.2-3.7,2.6-1,5.1.5,7.7.3,7.7,20.2,42.7,16.6,16.6,1.4,2-.7,3.9-1.5,5.9-2.2-.3-3.6-3.9-3.8-6.1-5.5,3.6-6.4,10.1,5.9,12.1-5.2h0Z"/>
    <path class="cls-191" d="M514.5,747c1.5-1.8,2.9-3.7,4.3-5.4,0-2.1-2-2-3.5-2.9-.3.3,11-15.6,11.2-13.5-1-7.8-6.7-3-9.5-6.6,1.7-1.3,3.4-2.7,5.2-4,2.2-1.2,3.9-2.9,5.3-5,5.8-5.4,11.5-10.9,12.9-19.3,4.9-4.1,6.2-9.7,6.3-15.8.4-1.6.9-3.3,1.3-4.9,4.9,13.7,3.1,27.4.2,41.1-3.1,7.8-7.5,14.8-13.1,21-6.9,5.1-12.7,11.6-20.7,15.2h0Z"/>
    <path class="cls-176" d="M540.4,690.4c-1.3,8.4-7,13.9-12.9,19.3-1.1-.9-1.8-21-11.8-4.3-8.7-5.2-2.1-11-15.7-11.5,3.7-4.2,6.2-8.9,5.7-14.7l3.4-4.5c8.9-1.3,2.2,7.9,7.8,10.1,5.6,2.2,21.3-2.5,23.4-8.5v14.1h0Z"/>
    <path class="cls-93" d="M540.4,690.4v-14.1c-2.1,6-17.8,10.7-23.4,8.5-5.6-2.2.9-11.3-7.6-10.1,1.1-8.7,15.4-8.4,21.7-7.5,11.4,1.6,9-.4,15.6,7.4-.2,6-1.4,11.6-6.3,15.8h0Z"/>
    <path class="cls-178" d="M502.8,454.9c.5-.4.9-.8,1.4-1.2.6,0,1.5-.4,1.9,0,9.3,8.6,20.7,6.5,31.7,6,0,1.7,1.1,2.7,2.8,2.9-2.2.8-4.4,2.3-6.6,2.2-7.1-.2-10.6,4.6-14.3,9.4-4,0-1.5-2,1.2-7-4.9,2-6.3,5.9-8.1,10.7-1.7-8.8-5-15.7-9.9-21.8,0-.4,0-.7-.1-1.1h0Z"/>
    <path class="cls-23" d="M540.5,462.6c-1.8-.2-2.7-1.2-2.8-2.9,9.7-4.9,10.6-5,18,1.8,2.2,2,5.8,1.8,7.1,4.9-4.5,4.1-11.1,3.1-15.9,6.5-2.6-4.3,4.4-2.7,3.7-5-.3-3.1-3-2.5-3.8-4.1-1.8-1.9-4.2-.9-6.3-1.2h0Z"/>
    <path class="cls-123" d="M502.8,454.9c0,.4,0,.7.1,1.1,0,5.6-.3,11.3.8,16.9.8,4,.2,8.4-3.4,11.5-5.8-6.2-7.1-22.5-2.1-26-.8-1.5-2.2-.8-3.4-1.1,1.6-4.6,4.8-3.2,8-2.3h0Z"/>
    <path class="cls-262" d="M470.1,554.6c-3.2,5.2-8.8,9.3-7.3,16.5-3.3-1.2-5.2,1.6-7.7,2.6-3.7-.5-2.3-4.7-5-6.4,2.1-2.5,5.6-4.1,4.9-7.9,2.2-3,4.5-5.9,6.7-8.9,2.6-2.7,4.2-6.7,8.7-7.1.5,2.3-2,4.8.3,7-.2,1.4-.5,2.7-.7,4.1h.1Z"/>
    <path class="cls-14" d="M461.7,550.6c-2.2,3-4.5,5.9-6.7,8.9-4.7,2.6-6.2,9.5-12.9,9.4v-1.5c7.8-4.9,9.5-14.3,15.1-20.7,1.7-2,2-4.1,2.2-6.4.4-.5.7-1,1.1-1.5,3.3,1,2,3.1,1.2,5-1,2.3-2.6,4.6,0,6.9h0Z"/>
    <path class="cls-96" d="M470.1,554.6c.2-1.4.5-2.7.7-4.1,3-4.1,2.9-8.9,3.6-13.6,3,.4.8,2.9,1.7,4.2.4,2.8-3.1,5.4-.3,8.3-1.1,2.7-1.1,6.5-5.7,5.3h0Z"/>
    <path class="cls-124" d="M475.8,549.3c-2.9-2.8.6-5.5.3-8.3.5-.8,1-1.7,1.5-2.5-.2,2.5,5.1,3.2,2.2,6.6-1.5.4-2.4,1.5-2.9,2.9-.4.5-.7.9-1.1,1.4h0Z"/>
    <path class="cls-192" d="M474.3,536.9c-.7,4.7-.5,9.6-3.6,13.6-2.3-2.2.1-4.7-.3-7,1.2-2.3,1.6-5,3.9-6.6Z"/>
    <path class="cls-178" d="M546.8,463.8c.8,1.6,3.4,1,3.8,4.1.8,2.4-6.3.8-3.7,5-3.9,2.8-7.7,5.9-13,5.2.5-8.2,7.6-10.5,12.9-14.3h0Z"/>
    <path class="cls-264" d="M550.4,542.4c-6.3,3.8-12.6,7.5-20.4,6.8-2.3,0-4.7.2-7.1-2.3,3.9-5.3,10.1,1.1,14.4-2.9-5.1-2.4-3.5-6.3-2.2-10.1,3.3-2.8,8.8-1.4,11.3-5.8,1.4,1.1,2.8,2,4.1,3,2.6,3.8,1.1,7.6-.2,11.3h.1Z"/>
    <path class="cls-165" d="M395.5,606.1v1.3c-1.6,1.3-2,3.2-2.6,5-3.2,11-4.7,22.2-3.8,33.7,0,.9-.1,1.8-.2,2.7-2.2-2.8-.8-6.1-1.2-9.1-.5-6.1,2.5-13.2-4.2-17.1-5.8,1.4-3.8,8.5-8.6,10.6.5-6.4,2.6-12.3,5.1-18.1,2.8-5.3,4.6-11.2,9.1-15.4,2.6,1.7,8.1.5,6.5,6.4h0Z"/>
    <path class="cls-21" d="M374.9,633.2c4.8-2,2.8-9.1,8.6-10.6,6.7,3.9,3.7,11,4.2,17.1-5.6-1.8-6.3,8.9-7,11.3-1.8-3.9-4.6-1.6-7.2-.9.6-5.6-1.5-11.4,1.4-16.8h0Z"/>
    <path class="cls-154" d="M395.5,606.1c1.6-5.9-3.9-4.7-6.5-6.4,1.7-2.6,3.5-5.2,5.2-7.8,1.3-.8,2.6-1.7,3.9-2.5.8,3.7,2.3,1.6,3.9.5,2.4-1.6,3.1-5.2,6.4-5.8h1.3c-.4,2.2-.9,4.4-1.3,6.7-.4.7-.8,1.4-1.2,2.1-6.4,2.2-8.2,8.5-11.7,13.3h0Z"/>
    <path class="cls-103" d="M627.4,422.6c-.6,1.1-1.2,2.3-1.8,3.4h0c-10,2.1-18-2.2-25.6-8-2.1-4.1-4.8-8.1-6.3-12.4-3.4-9.7-1.5-12,8.8-11.7h0c-.3.3-.4.7-.4,1.1-1.6,1.5-.6,3.6-1,5.3-1.7,2.5-3.9,5.6-1.3,8,7.9,7.1,14.2,17.9,27.7,14.2h-.1Z"/>
    <path class="cls-127" d="M600,418.1c7.5,5.8,15.6,10.1,25.6,8-1.5,7.9-13.6,6.1-18.5,3.2-7.1-4.2-2.7-5.9-7.1-11.2Z"/>
    <path class="cls-250" d="M602.5,394c-.8-.6-1.6-1.2-2.4-1.8,5-6.9,15-6.9,20.5,0-.6,4.7-3.9.9-5.8,1.8-.7-.3-1.4-.6-2.1-.9-1.9-7.7-5-1.6-7.7-.7-.9.5-1.8,1-2.6,1.4h0c0,.1,0,.2,0,.2Z"/>
    <path class="cls-119" d="M614.9,394.1c1.8-.9,5.1,2.9,5.8-1.8,1.1.3,2.3.3,2.8,1.6-.3,1.8,2.8.7,2.3,2.7-3.2.6.3,4.5-2.7,5.2-2.7-2.6-5.5-5.1-8.2-7.7h0Z"/>
    <path class="cls-153" d="M625.9,513c.5,4.9-1.5,8.8-5.3,11.8-5.7,2.6-12.6,10.4-19.7,7.9-4.9-1.7-13.7-6.4-6.3-13.4,1.1,3.2,1.8,7,6.6,3.9,1.9,1.2,4,1.9,6.3,1.3,5.4-2.7,10.2-6,13.2-11.4l1.5-1.5c1.2.5,2.5.9,3.7,1.4Z"/>
    <path class="cls-146" d="M625.9,513c-1.2-.5-2.5-.9-3.7-1.4.4-2.6,3.6-4.8.9-7.7-1.6-5.3-5.7-2-8.6-2.4-4.8-2.9-6.2,2.9-9.6,3.6,0-.5,0-1,0-1.6-.2-1-.2-2.1-1.3-2.7,4.5-3.9,10.3-5,15.5-7.5,10.2,1.9,12.9,7.4,8,16.2-.6,1,0,2.6-1.3,3.4h0Z"/>
    <path class="cls-70" d="M603.8,500.9c1.1.6,1.1,1.7,1.3,2.7l-1.2.6c-.4.4-.8.8-1.2,1.2-.2.4-.2.8-.2,1.2-1.4.6-2.1,1.5-2.1,3.3,1.7-.9,2.1-2,2.1-3.3.5-.4,1-.9,1.4-1.3h.6c0,.1.6-.1.6-.1,3.4-.8,4.8-6.6,9.6-3.6-2.3,1.7-4.6,3.4-6.9,5.1-4.9,3.4-7,8.4-7.9,14.1-2.4-1.1-2.6-3.2-2.6-5.4s0-1.5,0-2.3c.2-.2.4-.4.6-.5-.3,0-.5.2-.5.6-1.1-.4-1-1.4-1.1-2.3,2.5-3.3,5.1-6.5,7.6-9.8l-.2-.2Z"/>
    <path class="cls-272" d="M597.1,515.2c0,2.2.2,4.3,2.6,5.4.5.8,1,1.7,1.5,2.5-4.8,3.1-5.5-.8-6.6-3.9,0-1.6,0-3.2.2-4.9.8.3,1.6.6,2.3.8h0Z"/>
    <path class="cls-63" d="M597.1,515.2c-.8-.3-1.6-.6-2.3-.8-.3-1.5-.3-2.9,1.4-3.7,0,.9,0,1.9,1.1,2.3h0c0,.7,0,1.5,0,2.3h-.1Z"/>
    <path class="cls-69" d="M627.4,422.6c-13.5,3.7-19.8-7.1-27.7-14.2-2.6-2.4-.4-5.5,1.3-8,2.1,7.1,6.3,12.5,13.2,15.6h7.6c2.1.3,2.5-1.8,3.8-2.6.5.5.9.9,1.4,1.4h0c0,2,1.2,3.4,3,4.2-.9,1.3-1.8,2.5-2.6,3.8v-.2Z"/>
    <path class="cls-32" d="M627,414.6c-.5-.5-.9-.9-1.4-1.4.4-3.8.2-7.4-2.5-10.4v-1c2.9-.7-.5-4.7,2.7-5.2,1.7,1.9,3.5,3.6,2.7,6.6-.6,2.1.8,2.4,2.4,2.6.5,3.4-1,7,1.1,10.2.2,1.5-.5,2.4-1.9,2.9-1.8-.8-2.9-2.2-3-4.2,0-.1.2-.3.3-.4,0,.2-.2.3-.2.5l-.2-.2Z"/>
    <path class="cls-220" d="M631.9,415.9c-2.1-3.2-.6-6.8-1.1-10.2,2.9,3.1,1.4,6.7,1.1,10.2Z"/>
    <path class="cls-67" d="M323,340.7c-5.1-1-7.2,4.3-11.2,5.5-1.2-.2-2.6.2-3.6-1.1-.3-3.7,3.4-2.9,4.2-3.6,5.1-11.5-2.7-19.7-4.9-29-3.8-15.6,1.6-12.4-10-15.3-.3-3.4-.9-6.7.4-9.8,2.6-.4,4.3,2,7,1,2-8.1,4.2-7.9,3.4-15.5-.3-2.6-4.2-5.3-2.1-8.2,2.2,1,.2,4.8,3.3,5.3,1.5-2.9-.8-6.3,1.9-8.7,21.4,7.5,5,20.8,16.8,30.6,0,1.4,0,2.9,1.3,3.9,1.7,4.4,1.1,9.9,6.3,12.7-2.3,1.8-4.4,2.9-5,5.4.1,1.4.2,2.8.4,4.6,3.3-.4,6.4-1.4,9,.8-1.6,4.5-7.1,3.3-9.5,6.7-3.5.6-4.8,2.9-5.1,6.1-.3,3.2-1.2,6.1-2.7,8.8v-.2Z"/>
    <path class="cls-2" d="M527.4,309.9c7.9.5,15.4-2.1,23.1-3.3,4.4-.7,9.6-.7,10.5,5.8-12.6,11.2-27.6,17.5-43.9,21-1.7,0-3.3,0-5-.1-2.3-.6-5,.5-7.9-1.7,5.1-2.3,10.2.1,14.5-1.9-3.3-12.6-56.5,3.9-63.2-6.2,9.1-2.1,18.2.4,27.2-1.5-1.6-3.5-6.7,0-7.1-4.5,13.5-.2,26.8,5.5,41.5,1.2-5.4-2.6-10.6.4-14.8-3.3,4.1,1.8,23.9-3,25.1-5.7v.2Z"/>
    <path class="cls-279" d="M455,286.6c0-5.8.2-11.6,0-17.4-.1-3.2.6-5.9,2.6-8.4,15.7-.2,20.3,2,22.3,16.8.5,3.4-2.4,20.8-4.2,24.6-16.6,1.5-9.4-6.2-20.6-15.5h0Z"/>
    <path class="cls-204" d="M329.5,295.6c-1.4-1-1.3-2.5-1.3-3.9.3-3.1-.6-6.4.6-9.3,1.8-1.5,3.9-.7,5.7-1.1,2.9,2,5.2,5.3,6.3,7.9,3.5,8.4,10,12.7,17.5,16.5-2.1,4.2,1.8,3.5,3.6,4,3.3.9,7.1-1,10.3,1.3-4.8,2.6-10.1,2-14.8.6-3.7-1.1-7.3-1.5-11.1-1.8-6-.8-12.3-6.6-13-12.6-.4-3.3-1.9-2.6-3.8-1.6h0Z"/>
    <path class="cls-89" d="M512.2,333.3c1.7,0,3.3,0,5,.1-15,11-81.8,12-95.8-2.8,11.4,1.9,22.6,4.5,34.1,5.6,19,1.8,38.1,2.3,56.8-2.9h-.1Z"/>
    <path class="cls-2" d="M504.3,309.7c.8,0,1.6.1,2.4.2-2,10-29.1-.7-31,7.8-5.2,0-9.4-1-8.8-8.8,12.5,7.8,24.9-.5,37.4.8Z"/>
    <path class="cls-25" d="M372.2,311.1c-3.2-2.4-7-.5-10.3-1.3-1.8-.5-5.7.2-3.6-4,16.9,4,27.4-.5,36.7-15.5,9.9,6.4-13.9,17.3-15.2,18.3-2.9-.3-5.2,1.5-7.7,2.5h.1Z"/>
    <path class="cls-88" d="M329.5,295.6c1.9-.9,3.5-1.6,3.8,1.6.7,6,6.9,11.8,13,12.6,0,3.1-5.1,2.4-3.7,6-4.5-.7-8-2.4-11.9-2.2.6-2.4,2.7-3.6,5-5.4-5.2-2.9-4.6-8.3-6.3-12.7h.1Z"/>
    <path class="cls-254" d="M451.3,388.9c-10.8,2.9-31.2-11.5-35.4-19.6,5.5-1,9.9,2.1,14.5,4,.8,1.7,2.6,2.1,3.9,3.2,5.5,4.4,12.6,6.6,17,12.4Z"/>
    <path class="cls-44" d="M430.4,373.3c-4.7-1.9-9-5-14.5-4-2-2.2-3.9-4.3-5.9-6.4,1.9-2.2,4.5-1.4,6.5-.9,8.7,2.5,17.3,5.2,24.5,11,.4.6.7,1.1,1.1,1.7-.2,1-.9,2.5-1.8,1.6-2.9-2.6-6.5-2.2-9.8-3h-.1Z"/>
    <path class="cls-166" d="M430.4,373.3c3.3.8,6.9.4,9.8,3,1,.9,1.6-.5,1.8-1.6,4.5,3.2,9,6.5,13.6,9.5,2.7,1.8,3.6,4,3.3,7.1-2.3-1.6-5.5-.3-7.7-2.3-4.4-5.8-11.5-8-17-12.4-1.3-1.1-3.1-1.5-3.9-3.2h.1Z"/>
    <path class="cls-94" d="M475.7,317.3c2-8.4,29,2.2,31-7.8h20.7c-1.2,2.7-21,7.5-25.1,5.7,4.2,3.6,9.5.7,14.8,3.3-14.7,4.3-28-1.4-41.5-1.2h0Z"/>
    <path class="cls-145" d="M395.1,290.3c-9.3,15-19.9,19.5-36.7,15.5-7.4-3.8-13.9-8.2-17.5-16.5-1.1-2.6-3.5-5.9-6.3-7.9-2-3.8-3.8-8-2.1-12.1,2.4-5.6,4.3-11.6,8.5-16.3,5.8-3.7,11.6-7.3,18.4-8.7,4.7-.3,9.3.6,13.9,1.4,8.9,1.9,13.2,9.7,19.3,15.2,5.1,9.4,6.3,19.2,2.5,29.4h0ZM363.4,284.2c14.7-.1,12.8-22.8-1-22.1-14.6.7-13.3,22.2,1,22.1ZM377.7,253c-11.3,2.2-4.4,10,1.6,13.3,7.1,3.9,6.1-10-1.6-13.3h0Z"/>
    <path class="cls-162" d="M306.2,264.6c-2.1,3,1.8,5.6,2.1,8.2.8,7.6-1.4,7.3-3.4,15.5-2.8,1-4.4-1.5-7-1-1.3,3.1-.7,6.4-.4,9.8,11.6,2.9,6.2-.3,10,15.3-4.6,6.9-14.4,8.2-17.9,15.7-3.5,7.8-11.9,10.8-15.8,17.9-9.9-2.7-7.7-10.3-12.6-16.7.4.5-14.7-13.9-14.4-14-2.3,1.3,2.1,2.9-.5,4.4-2.9-1.9-6.5-2.1-10.3-2.7,2.1-2.6,1.6-5.2,1.5-7.8,5.1-4.9,8.5-10.8,10.4-17.6,8.6-2,5,7.2,9.2,10.5,1-5.9,6.1-6.5,10.5-8.2-13.4-10.9,6-16.1-1.9-25.3,5.4-2.4,7.9-8.1,13.9-8.6,2.3-8-12.2-5.5,2.1-12.3,3.4-.4,6.9-.9,10.3-1.3-.5,1.4-2.8,1.3-2.7,3.3,2.2,1.5,5.1-.5,7.2,1.6,3.1,6.5-4.6,12,3.2,17.3,0-13.6,5.5-28.2,6.5-4.1h0Z"/>
    <path class="cls-88" d="M306.2,264.6c-.9-24.1-6.5-9.5-6.5,4.1-7.9-5.3-.1-10.8-3.2-17.3-2.1-2.1-5-.1-7.2-1.6-.2-2,2.2-1.9,2.7-3.3,11.2-1.1,22.3-3.7,33.6-3.9.2,1.2,13.1,7.9,15.3,10.3-4.2,4.7-6.1,10.6-8.5,16.3-1.7,4.1,0,8.3,2.1,12.1-1.8.3-3.9-.4-5.7,1.1-1.2,2.9-.3,6.2-.6,9.3-11.7-9.8,4.6-23-16.8-30.6-2.7,2.4-.4,5.8-1.9,8.7-3.1-.5-1.1-4.3-3.3-5.3h0Z"/>
    <path class="cls-258" d="M341,252.9c-2.2-2.4-15.2-9.2-15.3-10.3,11.2-.4,22.3-3.5,33.6-2.6,0,1.4,0,2.8.1,4.2-6.9,1.4-12.6,5.1-18.4,8.7h0Z"/>
    <path class="cls-83" d="M189.5,318.8c.1-4.7,1.8-8.6,5.5-11.5,4.4.3,6.3-5.1,10.7-4.5,5,4.8.5,11,1.6,16.7,2.8-1.1,1.2-4.2,4.2-4.8,2.5.4,4.5,4.2,8.1,3.1.5,1.6,1,3.1,1.4,4.7-2.5,1.2-5.4-.5-7.6,1.9,0,2.6-1.1,5.6.8,8.3,2.2-1.2.9-4.1,3.9-5.2,6.2,8.1,14.7,20.7,15,31.4.2,7.8-8.1,6.6-4.9,15.9,3,8.6,12.7,7.7,19.8,7.7,2.7,5.2,1.1,10.2-4.8,14.9,3.6,9.7-4.5,16.6-1.6,23.9-3.2-1.3-25.1-2.6-17.3,6.2-7,2.2-11.8-6.8-14-11.9-3.6-8.4,1.1-6.9.1-14.7-.7-6-2.1-16.5-3.7-22.5-3.5-13.6-1.6-6.9-9.4-14.9.3-3.8,6.9.8,6.5-4.5-.3-3.9-7.5-1.2-7.5-3.7s1.7-11.3,1.2-14.1c6.6-9.1,6.6-14.5-.5-18.9-2.2-1.4-4.6-3.1-7.4-3.2v-.3Z"/>
    <path class="cls-226" d="M197.4,340.8c.5,2.9-1.3,10.7-1.2,14.1,0,2.5,7.3-.2,7.5,3.7.4,5.3-6.2.7-6.5,4.5,7.7,8,5.9,1.3,9.4,14.9,1.5,6,2.9,16.6,3.7,22.5,1,7.8-3.7,6.3-.1,14.7,2.2,5.1,7,14.1,14,11.9-7.7-8.7,14.1-7.5,17.3-6.2,5.6,4.7,2.4,10.4,1.9,15.8-.3,3.4-2.9,7.5,2,10.1.8,8.1-.6,23.3-10.1,25.5.1,5.4,6.3,10.9-.2,15.9-.4-10.9-17.8-35.8-8.3-42.9-4.4-4.4-11.9-.1-14.6-6.1-9.1,4.2-4.1,10.9-14.6-1.7-5.7-6.9-6.3-19.4-7.9-27.6-3.6-18.2,0-37.8-8.7-54.5,7-4.1,8.8-8.9,4.9-11.8,4.2.3,7.9-1.2,11.5-2.9h0Z"/>
    <path class="cls-18" d="M248,382.3c-7.2,0-16.8.9-19.8-7.7-3.2-9.3,5.1-8,4.9-15.9-.2-10.7-8.8-23.4-15-31.4-3,1.1-1.7,4-3.9,5.2-1.9-2.7-.9-5.6-.8-8.3,2.2-2.5,5.1-.7,7.6-1.9-.5-1.5-1-3.1-1.4-4.7,5,.1,9.9-.1,13-5.1,1.7-1.1,3.3-2.1,5-3.2.1,2.5.6,5.1-1.5,7.8,3.8.5,7.4.8,10.3,2.7,2.6-1.5-1.8-3,.5-4.4-.2,0,14.8,14.5,14.4,14,4.9,6.4,2.7,13.9,12.6,16.7,9.9,1.9.8,13.9-3.6,2.8-1.5,2.6-2.4,4.4-3.5,6.3.9,2,4.6.8,4.4,3.9-9.5,2.6,2.6,6.1-.9,9.4-6.2-2.1-22.8,6.7-22.4,13.9h0Z"/>
    <path class="cls-226" d="M179.4,340.8h1.3c-.2.5-.5,1.1-.7,1.6-.2-.5-.4-1.1-.7-1.6h0Z"/>
    <path class="cls-90" d="M232.5,312.5c-3,5-7.9,5.2-13,5.1-3.6,1.1-5.5-2.6-8.1-3.1-3,.6-1.4,3.7-4.2,4.8-1.1-5.6,3.4-11.8-1.6-16.7-4.5-.6-6.4,4.9-10.7,4.5,1.4-3.6,4.2-6.2,6.5-9.1,4.2-1.2,4.3-7.4,9.3-7.7,1.9,7.2-4.3,15,3,21.1,7.7,6.4,11-.2,18.8,1h0Z"/>
    <path class="cls-226" d="M179.3,333.4c1.7.3,1.3,1.5,1.2,2.6-.4-.1-.8-.3-1.2-.4v-2.2Z"/>
    <path class="cls-245" d="M248,284.1c-10.8-8-21-5.1-30.9,1.8,3.1-6.7,5.1-14.2,12.7-17.6.4,2.2,0,4.2-1.5,6.2,4.9,3.3,10.5.8,15.9,2.2,1.7,2,.9,5.7,3.7,7.4h.1Z"/>
    <path class="cls-43" d="M407.2,592.8c.4-.7.8-1.4,1.2-2.1,3.7,0,6.2-1.9,8.4-4.8,4.7-5.9,8.4-12.8,14.7-17.4,1,.2,2.7.6,2,1.7-1.8,3.1-.8,6.6-1.7,9.7-6,6.6-10,15-17,20.8-1.8-.6-3.5-1.2-5.4-1.8,1.4-2.8,3-5.8-2.1-6.1h-.1Z"/>
    <path class="cls-281" d="M459.4,540.1c-.2,2.3-.5,4.4-2.2,6.4-5.6,6.5-7.2,15.9-15.1,20.7-.7-.7-1.4-1.5-2.1-2.2,2.9-3,5.4-6.2,3.4-10.7,3.3-3.9,6.5-7.8,10-11.6,1.5-1.7,3.3-3.5,6.1-2.6h0Z"/>
    <path class="cls-234" d="M443.4,554.4c2.1,4.5-.5,7.7-3.4,10.7.7.7,1.4,1.5,2.1,2.2v1.5c.1.4.3.8.6,1.1-2.9,4.2-6.6,7.5-10.9,10,.9-3.2,0-6.6,1.7-9.7.7-1.2-1-1.5-2-1.7,3.3-5.3,7.6-9.7,11.9-14.1h0Z"/>
    <path class="cls-126" d="M408.4,584.1c-3.3.6-4,4.2-6.4,5.8-1.6,1.1-3.1,3.1-3.9-.5,3.8-5.6,9.9-9.3,13.1-15.4.8-.9,1.6-1.8,2.5-2.7.8,0,1.7-.2,2.5-.2-1.7,4.9-6.5,8-7.8,13.1h0Z"/>
    <path class="cls-113" d="M448.7,692.7c.6,2.3-1.4,6.3,3.7,5.5-.8.8-1.7,1.5-2.5,2.3-.2,0-.3-.2-.5-.3.2,0,.3.2.5.3-2.3,2.6-4.4,6.3-8.6,4.7-3.3-1.2-1.2-4.8-1.8-7.3,1.8,1,3.6,2,5.4,3.1-1.9-2.8,2.2-3.5,2.2-6.3-2.8,1.3-6.3-1-7.5,3.2-1.9,0-3.6.8-5.4,1.2-4.7,1.2-9,3.8-14,3.9-7-5.4-13.8-11.1-19.4-18.1-.6-4-4.7-6.3-5.2-10.3,17.1,8.6,36.7,6.5,53.1,18.1h0Z"/>
    <path class="cls-190" d="M510.5,722.4c-4.3,3.1-9.2,4.7-14.1,6.5-15.5,0-22.5-2.1-37.6-7.8,2.6,0,5.1,0,7.6-1,9.6-3.7,19.7-5.1,30-4.2,0,2.6-.2,5.1,3.6,5.2,3.5,0,7,.8,10.5,1.2h0Z"/>
    <path class="cls-228" d="M496.4,716c-10.3-.9-20.3.4-30,4.2-2.5,1-5,1-7.6,1-5.5-.7-10.7-2.2-15.5-5.2,3.3-3.4,7.4-6.2,6.8-12.2,1.1.9,1.6,1.3,2.1,1.7-1,8,11.7,10.6,17.5,10.3,1.2-2.4,2.1-14.8,6-13.8-.6,3.3.4,5.9,3.1,7.6-.7,1.5-3,1.2-1.8,3.8,3.3,0,18.4-2.7,19.3,2.6h.1Z"/>
    <path class="cls-51" d="M452.2,705.6c-.5-.4-1-.8-2.1-1.7.6,6-3.5,8.8-6.8,12.2-9.1-1.8-16.2-7.4-23.2-13,5,0,9.3-2.7,14-3.9,1.8-.5,3.5-1.2,5.4-1.2h0c.5,2.5-1.5,6.1,1.8,7.3,4.1,1.6,6.2-2.2,8.6-4.7h0c.8-.8,1.7-1.5,2.5-2.3,2.8,2.5,1.5,5-.1,7.4h0Z"/>
    <path class="cls-13" d="M496.4,716c-.9-5.3-16.1-2.6-19.3-2.6-1.2-2.6,1.2-2.3,1.8-3.8-2.7-1.7-3.7-4.3-3.1-7.6h2.5c5.3,7.3,21.4,8.2,25.3-1.2,2.6,1,0,3,1.6,4.1,7.2.3,12.2,4.8,17,9.8-1.7,1.3-3.4,2.7-5.2,4-2.2,1.3-4.4,2.5-6.6,3.8-3.5-.4-7-1.1-10.5-1.2-3.8,0-3.6-2.6-3.6-5.2h.1Z"/>
    <path class="cls-161" d="M388.9,648.8c0-.9.1-1.8.2-2.7,4.4-4.2,39.8,6.1,48,6.7.3.2-.7,3.7,2.4,3.6,1.4.2,2.7,1,2.4,2.4-.7,4.4,2.5,5.8,5.2,7.7-1.4,1.3-2.6,3.2-4.2,3.7-7.2,2.4-7.1,6.6-3.5,12-7.5-2.6-2.5-8.9-7.3-12.7-10.8-8.6-29.1-1.1-40.5-5.4-1.4-5.1-3-10.1-2.8-15.4h0Z"/>
    <path class="cls-227" d="M391.7,664.2c11.3,4.3,29.7-3.2,40.5,5.4,4.8,3.8-.3,10.1,7.3,12.7,3.1,3.4,6.1,6.9,9.2,10.3-16.5-11.6-36-9.5-53.1-18.1-1.7-3.3-3.3-6.6-3.8-10.4h-.1Z"/>
    <path class="cls-50" d="M471.4,668.3c26.1,15.2-8.9,18.8-16.6-1.4.4-.5.9-.9,1.3-1.4,5.4-.8,10.2,1.6,15.3,2.8h0Z"/>
    <path class="cls-246" d="M483.6,641.9c-2.5,3-7.1.3-9.2,3.7-1.6-1.6-1.1-3.1-1.2-4.5,3.5.2,7.1-1.5,10.4.8h0Z"/>
    <path class="cls-114" d="M439.5,656.5c-3.1,0-2-3.4-2.4-3.6-8.2-.6-43.6-10.9-48-6.7-.9-11.5.5-22.7,3.8-33.7.6-1.9,1-3.7,2.6-5-3,32.1,34.7,21.9,39.6,41.1,3.2-2.7.5-6.7,2.9-9.2,7.3,3.3,1.6,11.8,1.5,17.3v-.2Z"/>
    <path class="cls-96" d="M475.8,549.3c.4-.5.7-.9,1.1-1.4.1.8-.4,1.2-1.1,1.4Z"/>
    <path class="cls-280" d="M522.2,714.7c-4.8-4.9-9.8-9.5-17-9.8-1.7-1.1,1-3.1-1.6-4.1-4,9.4-20,8.5-25.3,1.2,8.6.8,15-4.1,21.8-8.1,13.6.5,7,6.3,15.7,11.5,10-16.7,10.7,3.4,11.8,4.3-1.4,2.1-3.1,3.8-5.3,5h0Z"/>
    <path class="cls-261" d="M623.1,401.8c0,.3,0,.7,0,1,0,1.1-.2,2.2-1.4,2.8-2.9-1.8-4-5.6-7.6-6.5l-.2-.2-1-.8c-.9-.5-1.8-1.1-2.7-1.6-2.2-2.1-4.5-1.8-6.8-.1-.5-.4-.9-.9-1.4-1.3,0-.5,0-.9.4-1.2.9-.5,1.8-1,2.6-1.4,2.6.2,5.1.5,7.7.7.7.3,1.4.6,2.1.9,2.7,2.6,5.5,5.1,8.2,7.7h0Z"/>
    <path class="cls-33" d="M602.4,395.1c.5.4.9.9,1.4,1.3.3,1.4.2,3,1.5,4,.3,2,1,3.8,2.6,5.2,0,1.9,1.1,3,2.6,3.9h0c0,1,.2,2,1.1,2.7.5.4,1,.8,1.5,1.2.4.4.9.7,1.3,1.1h0v1.5c-6.9-3.1-11.1-8.4-13.2-15.6.5-1.7-.6-3.8,1-5.3h.1Z"/>
    <path class="cls-52" d="M612.8,393.2c-2.6-.2-5.1-.5-7.7-.7,2.7-.9,5.8-6.9,7.7.7Z"/>
    <path class="cls-85" d="M620.8,513.1c-3.1,5.4-7.8,8.7-13.2,11.4-.6-2.2-5.5-1.2-3.8-5.1,2-.2,2.5,1.7,3.8,2.5,1.2,0,2.1-.3,2.8-1.3.4-.4.7-.8,1.1-1.2.2-.2.4-.5.6-.7l-.6.6c-1.9-1.9-1.1-4.2-1.2-6.4.4-.9.8-1.8,1.3-2.7.6,1,1.5,1.3,2.6,1.4,1.6,1.6-.5,3.6.5,5.5,1.6-1.1,3.2-2.1,3.4-4.2h2.5l.3.3h0Z"/>
    <path class="cls-214" d="M603.7,519.4c-1.7,3.9,3.2,2.9,3.8,5.1-2.3.6-4.4,0-6.3-1.3-.5-.8-1-1.7-1.5-2.5.9-5.7,3-10.7,7.9-14.1,1.3,2,2.6.2,3.8,0v3.9c-.4.9-.8,1.8-1.3,2.7h-1.3c-.9-1.7-1.9-2.9-3.5-.7-1,1.5-1.9,3.1-2.8,4.7,0,1,0,1.9,1.1,2.4v-.2Z"/>
    <path class="cls-259" d="M623.2,503.8c2.7,2.9-.6,5.2-.9,7.7l-1.5,1.5-.3-.3c.5-2.1,1-4.3,1.4-6.4.4-.9.8-1.7,1.2-2.6h0Z"/>
    <path class="cls-225" d="M623.2,503.8c-.4.9-.8,1.7-1.2,2.6h0c-3.5-7.9-6.9-.8-10.4,0-1.3.3-2.5,2.1-3.8,0,2.3-1.7,4.6-3.4,6.9-5.1,3,.4,7-2.9,8.6,2.4h0Z"/>
    <path class="cls-56" d="M604.9,505.1l-.6.2h-.6c0-.4,0-.8,0-1.2l1.2-.6c0,.5,0,1,0,1.6h0Z"/>
    <path class="cls-63" d="M602.4,506.5c0,1.3-.3,2.4-2.1,3.3,0-1.8.7-2.7,2.1-3.3h0Z"/>
    <path class="cls-63" d="M597.3,512.9c0-.4.2-.6.5-.6-.2.2-.4.4-.6.5h0Z"/>
    <path class="cls-146" d="M603.9,504.1c0,.4,0,.8,0,1.2h0c-.4,0-.8,0-1.2.1.4-.4.8-.8,1.2-1.2h0Z"/>
    <path class="cls-56" d="M602.6,505.3c.4,0,.8,0,1.2-.1-.5.4-1,.9-1.4,1.3h0c0-.4,0-.8.2-1.2h0Z"/>
    <path class="cls-151" d="M614.5,416l-.3-1.3c3-1.6,2.6-3.9,1.5-6.3l-.2-.4c.8-2.9-.6-5.1-2.4-7.2l.9-1.6c3.9.7,5,4.7,8,6.5,1.8,3.4,3.1,6.8,0,10.2h-7.6,0Z"/>
    <path class="cls-40" d="M621.9,415.9c3-3.4,1.7-6.8,0-10.2,1.2-.6,1.2-1.7,1.4-2.8,2.7,3,2.9,6.6,2.5,10.4-1.3.8-1.7,3-3.8,2.6h-.1Z"/>
    <path class="cls-69" d="M627,414.6c0-.2.2-.3.2-.5,0,.1-.2.3-.3.4h0Z"/>
    <path class="cls-42" d="M377.7,253c7.7,3.4,8.7,17.2,1.6,13.3-6.1-3.3-12.9-11.1-1.6-13.3h0Z"/>
    <path class="cls-51" d="M439.5,697.9c1.3-4.2,4.8-2,7.5-3.2,0,2.8-4.1,3.4-2.2,6.3-1.8-1-3.6-2-5.4-3.1h.1Z"/>
    <path class="cls-147" d="M449.8,700.5c-.2,0-.3-.2-.5-.3.2,0,.3.2.5.3h0Z"/>
    <path class="cls-151" d="M605,400.5c-1.3-1.1-1.2-2.6-1.5-4,2.3-1.7,4.5-2,6.8.1.4,1.2.8,2.5,1.3,3.7-1.3.4-2.8-1.3-4,.3h-2.6Z"/>
    <path class="cls-95" d="M611.5,400.3c-.4-1.2-.8-2.5-1.3-3.7.9.5,1.8,1.1,2.7,1.6.3.3.7.5,1,.8l.2.2c-.5.5-.9.9-1.4,1.4-.4,0-.8-.2-1.2-.3Z"/>
    <path class="cls-151" d="M614,399c-.3-.3-.7-.5-1-.8.3.3.7.5,1,.8Z"/>
    <path class="cls-151" d="M610.2,409.5c-1.5-.9-2.7-2-2.6-3.9,0-1.3,0-2.7.2-4,3,1.5,6,3,7.5,6.3l.2.4c-1.4,1.3-2.8,2.5-4.2,3.8-.9-.7-1.2-1.6-1.1-2.7,0-.2.2-.3.3-.5,0,.2-.2.3-.2.5h-.1Z"/>
    <path class="cls-276" d="M611.3,412.1c1.4-1.3,2.8-2.5,4.2-3.8,1.1,2.3,1.4,4.6-1.2,6.2h0c-.4-.4-.9-.7-1.3-1.1-.5-.4-1-.8-1.5-1.2h-.1Z"/>
    <path class="cls-118" d="M607.8,401.6c0,1.3,0,2.7-.2,4-1.6-1.3-2.3-3.2-2.6-5.2h2.5c0,.4.2.7.3,1.1h0Z"/>
    <path class="cls-151" d="M612.8,413.4c.4.4.9.7,1.3,1.1-.4-.4-.9-.7-1.3-1.1Z"/>
    <path class="cls-143" d="M611.4,510.3v-1.3c2.3-3.3,5.8-2.6,9.1-2.5-2.7,1.4-1,4.6-2.6,6.4h0c-1.3-.4-2.6-.8-3.9-1.3-1.1,0-2-.4-2.6-1.4h0Z"/>
    <path class="cls-4" d="M603.7,519.4c-1-.5-1.2-1.4-1.1-2.4,3.9,1.5,4.1-2.8,6.3-4h1.3c.2,2.2-.7,4.6,1.2,6.4h0c-.4.4-.7.8-1.1,1.2-1.1,0-2.2,0-2.8,1.3-1.3-.8-1.8-2.7-3.8-2.5h0Z"/>
    <path class="cls-139" d="M614.1,511.7c1.3.4,2.6.8,3.9,1.3-.2,2.1-1.8,3.1-3.4,4.2-1-1.8,1-3.8-.5-5.5Z"/>
    <path class="cls-139" d="M617.9,512.9c1.6-1.8,0-5,2.6-6.4.4,0,.9-.1,1.3-.2h0c-.5,2.1-1,4.3-1.4,6.4h-2.5v.2Z"/>
    <path class="cls-37" d="M607.5,521.9c.6-1.2,1.7-1.3,2.8-1.3-.7,1-1.6,1.4-2.8,1.3Z"/>
    <path class="cls-270" d="M611.4,519.4l.6-.6c-.2.2-.4.5-.6.7h0Z"/>
    <path class="cls-142" d="M621.9,506.4c-.4,0-.9,0-1.3.2-3.3,0-6.7-.8-9.1,2.5v-2.6c3.5-.8,6.9-8,10.4,0h0Z"/>
    <path class="cls-85" d="M608.9,513c-2.1,1.3-2.4,5.5-6.3,4,.9-1.6,1.8-3.2,2.8-4.7,1.6-2.3,2.6-1,3.5.7Z"/>
    <path class="cls-189" d="M607.8,401.6c0-.4-.2-.7-.3-1.1,1.2-1.6,2.7.1,4-.3.4.1.8.2,1.2.3,1.8,2.1,3.3,4.4,2.5,7.4-1.5-3.3-4.5-4.8-7.5-6.3h0Z"/>
    <path class="cls-33" d="M610.2,409.5c0-.2.2-.3.2-.5,0,.2-.2.3-.3.5h0Z"/>
  </g>
  <text class="cls-283" transform="translate(756 594.7)"><tspan x="0" y="0">Bank</tspan></text>
  <text/>
  <text/>
  <text class="cls-282" transform="translate(2107.7 597.7)"><tspan x="0" y="0">Stream</tspan></text>
</svg>